/* XPM */
static char *_308b0a03fdb48f5ffcd95f100a2bcefV5jYSWEpU9D3aFzp[] = {
/* columns rows colors chars-per-pixel */
"20 20 13 1 ",
"  c gray99",
". c #F6F6F6",
"X c #FEFEFE",
"o c white",
"O c #F9F9F9",
"+ c #F4F4F4",
"@ c gray94",
"# c #EDEDEC",
"$ c gray91",
"% c #E2E2E2",
"& c #ECF1DB",
"* c #D5DEB9",
"= c #CEE395",
/* pixels */
" O+O O oX+$$   Xo   ",
"+ O OO     @+ .o O @",
".OO  O. o OO . X XX@",
"O.  +++ oX  O$@+ O. ",
"#o O.@+O++ .#%@++ O ",
"@@@@$OO.O. #%%Xo  OX",
"@+.+@ O@ ++#$#+@O..O",
"  X .O#@#@.#O.+.O.@O",
"@.  OO+o#%#O XX.O @#",
"@X O@ OoO$@ X    o.@",
" X @$OO O.+ XX X   o",
"o  @#  XOO.OXoo  O  ",
"+o +OOX @@O+XXOoo  O",
"$@@.@ o.o@$OO $+O.+O",
"O++ X.OoO+$O.o+@.  X",
"+@@.O##OO#@  oXO oo ",
"%$%$$+.. @.@#X O XX ",
".+@+O oX O@O+oo  oo ",
"&&@@OOOO.O+.@#.O.+O ",
"=*%%@O XXXoX .Xo&#+O"
};
