/* XPM */
static char *d8559e9d4593453bdf56545d95e18f9djtUjhl5bkmxDWjIo[] = {
/* columns rows colors chars-per-pixel */
"20 20 104 2 ",
"   c #91ACC8",
".  c #976337",
"X  c #9EB9D7",
"o  c #97663F",
"O  c #9BB4D1",
"+  c #9CB6D4",
"@  c #9A6940",
"#  c #A0B8D3",
"$  c #9EB6CF",
"%  c #93ADCA",
"&  c #6E6D70",
"*  c #8FA9C6",
"=  c #97AFC9",
"-  c #936036",
";  c #97B3D0",
":  c #B4CBE3",
">  c #ABC0D7",
",  c #8F6038",
"<  c #95653D",
"1  c #7B8DA3",
"2  c #333E4C",
"3  c #3F4E5F",
"4  c #5E6D81",
"5  c #9C663B",
"6  c #786253",
"7  c #8EA6C1",
"8  c #8F5E34",
"9  c #92633B",
"0  c #AAC3DF",
"q  c #374B5E",
"w  c #566576",
"e  c #314355",
"r  c #2D4153",
"t  c #9E6C42",
"y  c #A9BED5",
"u  c #A5BED8",
"i  c #95AFCD",
"p  c #9AB1CD",
"a  c #7A5F4C",
"s  c #945D30",
"d  c #6E6968",
"f  c #A2BDDB",
"g  c #716B6A",
"h  c #3F5266",
"j  c #4F4039",
"k  c #41566B",
"l  c #73869C",
"z  c #A7C0DB",
"x  c #4C647D",
"c  c #7D4F2A",
"v  c #687B8F",
"b  c #885B34",
"n  c #627283",
"m  c #454E59",
"M  c #B0C5DC",
"N  c #755C4B",
"B  c #9FBAD9",
"V  c #7A6556",
"C  c #8A572E",
"Z  c #708195",
"A  c #2D3743",
"S  c #3F2E27",
"D  c #A47043",
"F  c #3B4655",
"G  c #344759",
"H  c #4B5159",
"J  c #1F2A37",
"K  c #4C4748",
"L  c #445C73",
"P  c #8D562C",
"I  c #865731",
"U  c #46372F",
"Y  c #754C2C",
"T  c #ADC6E1",
"R  c #734422",
"E  c #505B65",
"W  c #41474E",
"Q  c #8297AF",
"!  c #53677B",
"~  c #293A4B",
"^  c #94AAC3",
"/  c #7B5231",
"(  c #96A7BA",
")  c #643A1C",
"_  c #575F68",
"`  c #4F6881",
"'  c #9F6C39",
"]  c #856923",
"[  c #684F43",
"{  c #816551",
"}  c #9C752E",
"|  c #747273",
" . c #6B6463",
".. c #9FB1C7",
"X. c #7A5D49",
"o. c #152231",
"O. c #464142",
"+. c #AD7646",
"@. c #506881",
"#. c #6A492D",
"$. c #313235",
"%. c #3BAC37",
"&. c #9163D7",
"*. c #97B93F",
/* pixels */
"7   $ > * * $ > % % # > 7 * $ > * * $ y ",
"% u # + % 0 f p 7 p = O X z + + i u + + ",
"# M =   u ( w 2 h 3 A F n y O   # M = % ",
"+ ;   0 1 2 x k e q G x 3 3 Q z O ; % # ",
"* * u Z q L 2 3 A A F 3 3 G 2 ..% * $ y ",
"  z = 2 q K ) c Y / c R / m ~ 4 X # # + ",
"$ : l @.F R < @ < t t < +.#.h ! ^ M = % ",
"O B 4 o.S - o < , o o , t b $.J Q X   # ",
"7 ; w k j . @ o 9 @ @ 9 D b E q v ; p y ",
"  0 4 r S C 8 b I 8 8 I o c W ~ Z T + O ",
"$ : n J H | & & & & & & & & 2 J 1 : =   ",
"O X 4 e O.X.a a N a a N { [ m e 1 X   $ ",
"^ i 4 x j s 5 . - 5 5 - ' } w h Z ; p y ",
"% z v x j - o < , @ < 9 b ] E L l 0 # O ",
"# : w r U - o < , @ o 9 t Y m e 1 :   i ",
"p X ! e U s . . 8 5 . 8 D P H r l X   # ",
"7 ; n k K 6 6 6 6 V V 6 V N m h v O $ > ",
"  0 v ` _ g d d g d g d g  .w k l T O + ",
"$ : n r S P - 8 C - 8 C 5 c W r 1 :   i ",
"+ f 4 q j . @ o 9 @ @ 9 D b H G 1 f % X "
};
