/* XPM */
static char *_e48fabf92ed47c2c2c6a8da7b290fedHbisnfVd8k3zB7F7[] = {
/* columns rows colors chars-per-pixel */
"20 20 70 1 ",
"  c None",
". c #06051C",
"X c #0C0A23",
"o c #0D0B24",
"O c #100D26",
"+ c #14122B",
"@ c #18162F",
"# c #151531",
"$ c #191833",
"% c #191934",
"& c #191935",
"* c #1A1A35",
"= c #191A36",
"- c #1C1F3C",
"; c #1E203C",
": c #26263F",
"> c #202342",
", c #22294A",
"< c #242B4C",
"1 c #323146",
"2 c #2A3151",
"3 c #313550",
"4 c #353750",
"5 c #333754",
"6 c #383A53",
"7 c #3D3D51",
"8 c #333A5A",
"9 c #444357",
"0 c #42435A",
"q c #4C4D60",
"w c #4A4D66",
"e c #424B68",
"r c #545466",
"t c #4C5472",
"y c #565E79",
"u c #5D6683",
"i c #5E6784",
"p c #7B7D8C",
"a c #6E7893",
"s c #78829E",
"d c #7C859E",
"f c #7D88A2",
"g c #828DA8",
"h c #8490AB",
"j c #8994AE",
"k c #999CA8",
"l c #8E99B1",
"z c #939EB8",
"x c #939FBA",
"c c #96A2BC",
"v c #99A5BE",
"b c #A9ACB7",
"n c #9EA9C1",
"m c #A0ADC7",
"M c #A9B4C9",
"N c #B6B9C3",
"B c #B0BACD",
"V c #B5BED0",
"C c #B8C1D2",
"Z c #BBC4D4",
"A c #BEC6D6",
"S c #C2C9D8",
"D c #CCD2DE",
"F c #D0D7E1",
"G c #D6DBE5",
"H c #D8DEE6",
"J c #DCE1E9",
"K c #DFE4EB",
"L c #E3E8EF",
"P c #E8EDF2",
/* pixels */
"                    ",
"        OoX         ",
"       rppp7..      ",
"      9kPLLpqq6     ",
"     1bLKKKGHDl3@   ",
"    1NJKKKJBAKDl5.  ",
"   9bJKKKHBAGFMvfw  ",
"  rkLKKKKHnDPDxvmyO ",
" OpPHLLLHSvCDZxsfeX ",
" XpLLLFJDnnvcvje2;+ ",
" XpLJHBZJGGMzxxje*+ ",
"  7pHNcCLJBnauvvt*O ",
"  .0VvzMAVcvu3ii3*  ",
"   4azvhfccgt,,,*   ",
"    :glyejje,<,,*   ",
"     >322882<>@@    ",
"      #><<<-**      ",
"       *;;;$        ",
"        O++         ",
"                    "
};
