/* XPM */
static char *_82aff597bae42d9c2c9dd75553eb676jmjGK8XYclepgUA7[] = {
/* columns rows colors chars-per-pixel */
"20 20 3 1 ",
"  c #417325",
". c #3E6D23",
"X c #3A6721",
/* pixels */
".      .X.XX..X  .. ",
"X....  .. ...XX  ...",
"X...X..XX.X....   XX",
"X...X..XX.X.     .XX",
"   X.  .      .   XX",
"       ..     .. .X ",
"      . .X...X X....",
"  ...... X .XX .X...",
"  .X X.... XX...XX .",
"   . . .XX.X. XXXX. ",
"X ..   .X. .. ....  ",
"...X..X..      .X.. ",
".... ...   ..  .... ",
".       ........  ..",
"    XX   XX..XX .. .",
"    ...      ....   ",
"X    XX...      XXX.",
"X    .XX.     ..XXX.",
"      .X.     ......",
"       ...      ...."
};
