/* XPM */
static char *pin_erik1630165172[] = {
/* columns rows colors chars-per-pixel */
"50 50 232 2 ",
"   c #050505",
".  c #0A0603",
"X  c #060B06",
"o  c #0B0A05",
"O  c #040609",
"+  c #0B050B",
"@  c #050B0B",
"#  c #0C0C0C",
"$  c #130300",
"%  c #120B05",
"&  c #1C0B00",
"*  c #120D0C",
"=  c #0F120B",
"-  c #12110D",
";  c #1E1007",
":  c #0C0D11",
">  c #060811",
",  c #120F11",
"<  c #1A0F13",
"1  c #0E1213",
"2  c #0C141A",
"3  c #131313",
"4  c #1A1616",
"5  c #1A1916",
"6  c #141519",
"7  c #1A171A",
"8  c #151A1A",
"9  c #1C1B1B",
"0  c #151914",
"q  c #280903",
"w  c #330900",
"e  c #2A170A",
"r  c #3A1100",
"t  c #3A1D0D",
"y  c #221D1B",
"u  c #281A16",
"i  c #321D1A",
"p  c #1E211D",
"a  c #21211E",
"s  c #35241A",
"d  c #39261C",
"f  c #1F1C22",
"g  c #141F23",
"h  c #211C20",
"j  c #1B2323",
"k  c #232323",
"l  c #2A2524",
"z  c #24242A",
"x  c #262929",
"c  c #2B2B2B",
"v  c #282926",
"b  c #332E2C",
"n  c #322F26",
"m  c #35322D",
"M  c #2D2F31",
"N  c #242B33",
"B  c #323232",
"V  c #3A3533",
"C  c #3B3B3B",
"Z  c #393739",
"A  c #2C3033",
"S  c #4A0E0B",
"D  c #4A2107",
"F  c #56270D",
"G  c #522E17",
"H  c #622F10",
"J  c #65351D",
"K  c #763818",
"L  c #431925",
"P  c #442C26",
"I  c #583626",
"U  c #413E3C",
"Y  c #473E37",
"T  c #453529",
"R  c #683925",
"E  c #773B24",
"W  c #733F29",
"Q  c #45423B",
"!  c #74442A",
"~  c #684839",
"^  c #764936",
"/  c #444342",
"(  c #4E4844",
")  c #4C4B4A",
"_  c #474748",
"`  c #564C49",
"'  c #54514D",
"]  c #5B524C",
"[  c #545151",
"{  c #5A5653",
"}  c #72594B",
"|  c #765644",
" . c #615D5C",
".. c #655651",
"X. c #624243",
"o. c #63615E",
"O. c #74675F",
"+. c #656463",
"@. c #6D6D6A",
"#. c #6A6864",
"$. c #716D69",
"%. c #786C66",
"&. c #6F706B",
"*. c #78726D",
"=. c #7A7673",
"-. c #7C7975",
";. c #7E7C7A",
":. c #757475",
">. c #8A3F1D",
",. c #9C3C12",
"<. c #8A4419",
"1. c #9B4717",
"2. c #94531D",
"3. c #A74C19",
"4. c #B3701F",
"5. c #AF731D",
"6. c #874827",
"7. c #9C4E23",
"8. c #9A5425",
"9. c #834D34",
"0. c #8E5733",
"q. c #AE5F3A",
"w. c #9A6233",
"e. c #AC6925",
"r. c #8D554D",
"t. c #A1574C",
"y. c #B37252",
"u. c #867467",
"i. c #8A7D79",
"p. c #837B77",
"a. c #8F7364",
"s. c #987056",
"d. c #D17B60",
"f. c #B88256",
"g. c #84817D",
"h. c #8B857D",
"j. c #8F887E",
"k. c #928B7F",
"l. c #99867A",
"z. c #B98A6E",
"x. c #C89577",
"c. c #D69A7E",
"v. c #D78F54",
"b. c #7F8382",
"n. c #858382",
"m. c #8B8583",
"M. c #8D8986",
"N. c #8E8C8B",
"B. c #878789",
"V. c #918C84",
"C. c #928D8B",
"Z. c #958A87",
"A. c #95918D",
"S. c #999188",
"D. c #969493",
"F. c #9B9692",
"G. c #9D9995",
"H. c #9E9B99",
"J. c #8F928B",
"K. c #A4978B",
"L. c #A49B94",
"P. c #A39E9A",
"I. c #A5A19C",
"U. c #A7A298",
"Y. c #B7AC9E",
"T. c #959EA5",
"R. c #98A6AC",
"E. c #A5A6A3",
"W. c #ACA7A3",
"Q. c #ADAAA5",
"!. c #A9A8AA",
"~. c #B3AAA4",
"^. c #B4AEAA",
"/. c #B5B1AD",
"(. c #BBB4AD",
"). c #AFB1B0",
"_. c #BAB4B1",
"`. c #BDB9B4",
"'. c #B8B8B6",
"]. c #ABAAB0",
"[. c #C19E8A",
"{. c #D7A288",
"}. c #F0B794",
"|. c #C2B6AB",
" X c #C3BCB5",
".X c #C4BEB9",
"XX c #C8BFB7",
"oX c #C8ACA1",
"OX c #C7C1BA",
"+X c #CBC3BC",
"@X c #CAC4B9",
"#X c #D7CBBB",
"$X c #E5CFBC",
"%X c #EDD2BF",
"&X c #F3D0B4",
"*X c #C5BFC1",
"=X c #CDC8C4",
"-X c #D0C7C0",
";X c #D4CBC4",
":X c #D8CFC8",
">X c #D6CFC8",
",X c #D4D1C5",
"<X c #DCD4CC",
"1X c #DFD9CD",
"2X c #D9D4C5",
"3X c #CBD4D6",
"4X c #DAD7D6",
"5X c #E1D5CC",
"6X c #E7D9CB",
"7X c #F7DBC6",
"8X c #E5DCD3",
"9X c #EADFD5",
"0X c #E4DBDA",
"qX c #E8DDD8",
"wX c #F8DED1",
"eX c #E9E1D7",
"rX c #EDE4DB",
"tX c #E6E1DD",
"yX c #F1E7DD",
"uX c #F1E8DE",
"iX c #F5E7D4",
"pX c #FDE2CD",
"aX c #D9E2E1",
"sX c #EBE6E3",
"dX c #E7EAE7",
"fX c #F4EBE2",
"gX c #F9EEE6",
"hX c #F3EAE6",
"jX c #FAF1E5",
"kX c #FBF3EB",
"lX c #F6F4ED",
"zX c #FEFBF7",
/* pixels */
"v 7 6 4 7 7 7 7 9 9 9 9 9 a k 9 f 9 k k 9 9 k k j v p a {  .Z c c x A j k x k a c x x v x z k k k Z ",
"0         X O X + # # # # # # = # 0 : X 3 0 , 3 0   m W.sXsX^.[ +.Q - 5 0 3 9 3 5 5 7 0 5 0 5 5 0 x ",
"0         X   o O + X X # # # # X 3 * # 3 - # 7 . m +XzX9XyX5X8XrX(.Q V l # y 7 7 5 0 7 7 5 0 0 0 x ",
"7       O + O X O # # # # # # # , # 7 0 : 3 3 3 & Y.uXrXrXiX6X#X2X2XOX@XM.5 * 9 9 9 9 9 9 7 7 9 7 c ",
"7     o   # X X + # # # # # : # , : 3 # 3 7 1 : ( aXdX4X>X).>X1X:XU.L.`.+X) 4 h 9 9 9 7 9 9 7 9 9 c ",
"9 + X + + * # # 1 # # - 3 # 3 3 3 6 * : 9 # : [ tXlXdX3XR.T.4X4XI.V.~..X=X+.3 5 p p k 9 p 9 f y 9 c ",
"5   O O X + O + # # # # # 3 : = 3 , # 0 9   c '.&X7X6X~.` %.5XoXG.E.).'.'.@.9 p f 9 9 9 9 9 9 9 9 c ",
"9 X X X + # X # # # 3 # # 3 * 3 - 0 9 3 3 0 #.zXv.2.f.x.z.}.{.y.].R.b.'.).#.0 p k k k k k k j a 9 B ",
"7 X O # # = + # 1 : # 1 # 3 3 3 : 7 0 4 - y =XsX}.9.r J w.e.4.5.K.$.#.F.W._ 8 j k k k k k k k k h c ",
"7 X X + + # # # # = * 3 3 3 3 3 6 0 7 5 - ' eXhX7Xx.<.S w w w D } u.i.K.L.' a k k k k k k h k h k B ",
"9 X + + + = # # # 1 3 1 3 3 3 3 7 : 4 y - U.kXrXhXpXx.>.r.r.i L w G I } l.] u a k k k k k k k k k B ",
"9 X o # # # # # * * : - 3 3 3 0 8 7 9 a l 8XjXeX8XuXwXx.y.d.t.S r r t ~ S.] u l z k k k k k k k k Z ",
"9 + X # # # # 1 3 1 1 - 3 3 0 7 7 9 k 3 $.jXgXgXkX8XrX$Xy.6.6.E | } %.i.A._ k z v x x v z l l l k Z ",
"9 + @ # # , # # : - 3 3 3 7 7 7 9 9 9 u -XgXhXuXeXjXiX2X'.N.u.a.i.i.Z.F.B.A N N v c c x c x x x k B ",
"9 # + # # * # * - 3 0 7 9 9 9 p h 4 y #.kXfXyXyXuXiXiXtX3XR.n.p.m.=.;.m.:.k x x c l c c x x c v v Z ",
"p # # # # 1 # 1 , 3 7 9 k k k 9 9 y V 8XkXyXgXgXgXkXlXrXiX$XZ.:.$.*.-.-.o.5 b s c c c z c v c c v C ",
"h X   # = # # 3 5 5 v a 0 7 k 3 * Y  XkXuXuXjXfXjXuXfXrXtXuX+Xh.$.=.=.n.[ 8 M A c M B c c v v c c Z ",
"9 # + # + 3 3 7 l k - 5 y 3   b %.@XkXrXrXjXrXfXfXuXfXrXrXuX6X(.p.=.-.g./ 7 A M c c c B B c c c v C ",
"9 # X # 1 0 9 p 4 9 5 3 9 .  ./.rXgXfXyXkXjXeXjXgXfXfXuXrXuXrX8XW.-.;.i.U 3 B A c c c B c c c c c C ",
"j + X 3 7 h 9 9 5 # 7 3 o b >XzXkXqX8XfXuXrXjXgXfXfXfXuXrXrXrXuX<XG.p.n.) 1 A B B c B c B B c B v C ",
"a X : 9 h f 0 4 3 3 6 9 o F.gXyX8XhXsXyXyXqXuXuXeXuXgXyXrXrXrXrXsX+XC.g.{ # k A B B B B B c c c c C ",
"7 - 0 k 9 0 : 3 > 3 9 . ( eXfXqXsXfXqXrXgXrXuXuXuXgXuXrXrXrXrX8X8XrX^.m.o.- 5 9 c B B B A B B c c U ",
"9 0 9 9 , , # 3 6 1 3 o ~.gXyXeXrXrXhXfXeXuXjXuXfXfXhXyXrXeXeX8X8X8X;XP.p.c 4 7 9 v B B B M B c A C ",
"k 9 7 , X 3 3 1 1 8 # ( yXyXyXiXfXrXrXfXfXuXrXuXuXrXyXhXrXeXrXeXqX>X<X`.G.) k y 3 9 c B V B B c M U ",
"B 7 1 # # 3 * 3 7 0   L.yXyXeXuXrXyXyXsXfXfXfXfXuXuXuXuXrXrXeXeX8X6X>X;X/.M.) b 7 3 9 B Z B b B c U ",
"v 3 * # # 6 # 3 3 , l XXfXeXrXsXrXyXyXfXrXrXfXrXuXuXuXrXrXeX9X8X<X<X>X>X.XH. .B k 0 0 v B M B M A C ",
"9 # # # # 3 3 3 3 O { rXuX9XeXrXrXyXfXrXfXfXfXfXuXrXuXrXeXeX8X6X<X:X;X;X=X_.-.b B 9 , 7 k c B c B C ",
"9 # # : # 3 # 3 6   *.jXrX9XiXeXrXrXrXrXrXrXrXfXuXuXrXeXeXeX1X1X<X;X=X-X.X`.B.V Z z 7 0 9 v B c c C ",
"9 # # 3 # 3 # 0 3 + A.fX8XrXtXeXqXrXrXrXrXrXrXrXrXrXeXqX1X1X1X<X:X;X+X+X`.`.C.V B B v 7 3 y B B M Q ",
"k # # # # 3 # 3 # , W.fX8XeXeXrXrXqXeXeXeXeXeXeXrXeXqX0X8X1X<X,X#X@X+XXX_./.C.Z c B B k 6 7 v M c C ",
"9 # # = # 1 , 3 1 3 /.uXeXeX6XeXeX8XqXqXqX8X8X8X8XqX8X<X<X:X;X-XXX X X X/.E.m.V c B B c 9 0 k M c C ",
"9 X + # # 3 # # 1 * ^.iXeXeX1X8X8X8X9X8X8X8X8X8X8X1X5X<X:X;X-X+XXX X|./.W.F.;.b B c M B k 0 7 v c C ",
"g X % * @ 2 2   2 # Y.6X8X0X8X1X5X5X5X5X5X<X5X5X<X:X:X:X-X+XXXXX_.XX^.I.F.M.$.b v B c B B h 4 k c C ",
"j O % % 1 # % s % o U.rXqX<X8X,X<X<X<X<X<X<X:X<X>X;X;X-X+XXX X X X~.W.F.A.A. .v c c c M M k 9 k c Z ",
"h O * + 0 o q ^ t & E.dX<X#X1X,X:X:X;X;X;X=X-X-X=X=XXX+XXX.X X_./.L.F.m.C.M.U k b c c c c c k k x C ",
"y X + O 1 ; F 8.K q E.aX>X5X;X=X+X+X+XOXXXXX X X.X.X X X X(.^.Q.L.C.C.m.F.$.v c c v c v v c v k k Z ",
"y # @ @ @ e 6.8.8.F oXrX>X#X X+XOXXXXX.X X X|.`. X`._._.^.Q.P.L.C.C.M.G.M./ k c c z c c z v M k k C ",
"y + @ @ X i w.1.8.6.{.7XeX@X X_._._.(.(.(./.(./._.^.^.Q.E.H.C.C.V.N.A.H.o.k k z l l c x k k v v k Z ",
"f + @ @ X q ! 3.7.7.q.c.6X@X_.U.U.P.I.I.I.I.I.I.I.I.H.F.A.C.Z.N.C.C.D.:.B 9 x k k k x l k k x k k V ",
"f + X X = $ H 8.<.1.3.q.[.I.A.S.M.C.M.V.C.M.A.A.A.C.N.M.M.M.C.A.C.A.D._ 9 c k v k k k k x k k k k M ",
"9 O @ # o $ q ~ 6.1.,.>.s.K.C.A.A.B.m.m.l.h.k.j.N.N.M.k.k.V.M.C.G.N.) 7 k k 9 k k k 9 k k k k 9 k B ",
"h O @ @ o + o i ! 6.>.K | S.A.Z.m.J.A.S.m.i.g.g.n.m.j.j.k.V.V.C.b.) k j k k k k h k k k k 9 k k p B ",
"f O O   X * . o t R ! D e B C _ {  .@.-.g.m.b.-.m.m.h.h.h.j.g.-./ 9 7 k k 9 k 9 k k k k 9 k 9 9 9 B ",
"7 O O X   # X X   e e q . O O : o * 0 j C  .-.-.i.-.=.g.J.;.' l 0 8 p k f y a 9 f 9 9 9 9 9 k 9 9 B ",
"h + O #   @ @ @ >   . . 1 2 : # - # 1 @ o V O.u.*.i.h.$._ c 9 4 9 9 5 7 k 9 5 j 9 f 9 9 9 9 9 9 9 c ",
"9     + + O @ @ > # = = : > 1 = - * 5 3 $ n ~ | %...U k 8 7 0 5 h 7 5 9 9 7 9 9 9 9 9 7 9 9 9 7 7 c ",
"3     + + + : O O X o # : 6 3 % 6 , , < i P R K P u * 3 2 8 4 5 3 7 j f 0 7 p 3 9 7 5 8 8 5 7 0 7 v ",
"1   . + + + : + * o . # > + * o , : + < P ! E K I d 5 3 8 3 6 4 0 7 7 0 7 0 7 8 5 9 7 8 5 5 5 5 7 v ",
"3     X   X O X X # # # # # # # o 3 : # T R J G I R E R i 0 0 4 5 7 7 4 7 7 5 5 7 5 7 0 7 0 6 3 4 h ",
"v 0 7 7 7 9 7 y 9 9 f 9 f k j y a 9 z p d R 9.I R W 9.^ T k k l k v v x k v x x v x x x x x x l k C "
};
