/* XPM */
static char *SKDJBF1630168178[] = {
/* columns rows colors chars-per-pixel */
"50 50 150 2 ",
"   c None",
".  c #141517",
"X  c #151618",
"o  c #17181B",
"O  c #191A1E",
"+  c #281B13",
"@  c #251918",
"#  c #321E1E",
"$  c #3B2416",
"%  c #1C1E22",
"&  c #2D1D25",
"*  c #1E2023",
"=  c #212426",
"-  c #282C2D",
";  c #24292A",
":  c #2F3334",
">  c #353B3B",
",  c #363739",
"<  c #422912",
"1  c #49271C",
"2  c #4C281C",
"3  c #442A1C",
"4  c #542B1B",
"5  c #5A2F1C",
"6  c #5F321D",
"7  c #62320F",
"8  c #622D17",
"9  c #643E17",
"0  c #66321A",
"q  c #6F371B",
"w  c #6D3316",
"e  c #7B3714",
"r  c #793916",
"t  c #713415",
"y  c #522E21",
"u  c #4F352A",
"i  c #5F3220",
"p  c #502E39",
"a  c #734511",
"s  c #58473D",
"d  c #614D39",
"f  c #734B39",
"g  c #404143",
"h  c #494F4F",
"j  c #4E4F50",
"k  c #4E5655",
"l  c #535454",
"z  c gray36",
"x  c #7E424D",
"c  c #685144",
"v  c #655345",
"b  c #735443",
"n  c #61625E",
"m  c #6D6158",
"M  c #636C6A",
"N  c #67716C",
"B  c #76716A",
"V  c #797469",
"C  c #6B7474",
"Z  c #6F7975",
"A  c #6F7878",
"S  c #727B76",
"D  c #727C7A",
"F  c #833B14",
"G  c #8A3D14",
"H  c #80521F",
"J  c #924822",
"K  c #975835",
"L  c #AA673E",
"P  c #A55547",
"I  c #937157",
"U  c #A0734A",
"Y  c #917C69",
"T  c #857E73",
"R  c #76817C",
"E  c #79837D",
"W  c #BA8458",
"Q  c #81827F",
"!  c #9F8371",
"~  c #AE8967",
"^  c #A68263",
"/  c #B48868",
"(  c #B88B6B",
")  c #C69F7F",
"_  c #C8A078",
"`  c #6A7881",
"'  c #6C7A89",
"]  c #768181",
"[  c #7C8682",
"{  c #7F8A82",
"}  c #838782",
"|  c #828D86",
" . c #848E8A",
".. c #86918D",
"X. c #8A938E",
"o. c #879290",
"O. c #8B9592",
"+. c #8E9894",
"@. c #83949E",
"#. c #969794",
"$. c #989790",
"%. c #929C96",
"&. c #9A9C96",
"*. c #949E99",
"=. c #96A29A",
"-. c #9AA59D",
";. c #A1A19B",
":. c #9DA7A0",
">. c #A2ADA5",
",. c #AFAEA6",
"<. c #A4ADAB",
"1. c #A6B0A7",
"2. c #A6B0A9",
"3. c #ABB4AC",
"4. c #B0BAAE",
"5. c #AEB9B3",
"6. c #B3BCB2",
"7. c #BAB9B0",
"8. c #BEBEB9",
"9. c #B4BBBC",
"0. c #C6BAA8",
"q. c #B7C1B6",
"w. c #BAC2B6",
"e. c #BCC5BB",
"r. c #BFC8BD",
"t. c #C3C1B7",
"y. c #C0C7BD",
"u. c #C2C9BF",
"i. c #D6CABB",
"p. c #C5CCC2",
"a. c #CCCEC2",
"s. c #CCD1C6",
"d. c #CED3C8",
"f. c #D3D5CB",
"g. c #D8D6CC",
"h. c #D6D9CE",
"j. c #D3D1C1",
"k. c #D7DAD0",
"l. c #DBDDD3",
"z. c #E4D8C6",
"x. c #E0DDD5",
"c. c #DFE0D6",
"v. c #E1E1D6",
"b. c #E9E3D4",
"n. c #E5E4DA",
"m. c #EAE7DD",
"M. c #EDEADE",
"N. c #EEEAE1",
"B. c #F1EEE3",
"V. c #F5F1E5",
/* pixels */
"                                                                                                    ",
"                                                                                                    ",
"                                                                                                    ",
"                                                                                                    ",
"                                                                                                    ",
"                                                          Q l = =                                   ",
"                                                        f.n.a.&.X., ;                               ",
"                                                      f.N.n.v.l.l.>.%.                              ",
"                                                    &.M.x.p.f.k.5.2.e.3.                            ",
"                                                  $.z.b.9.' y.t.:.<.e.2.                            ",
"                                                l a.W U Y ! ) ~ :.@.5.=.                            ",
"                                                } B.) 7 < 9 a H T ` :.{                             ",
"                                              : t.M.x./ w p & + 3 d V }                             ",
"                                            O z M.V.M.b.( P K # @ $ v R                             ",
"                                          = * ;.V.V.B.M.a.Y c c m B ..C                             ",
"                                      * O O j z.V.V.B.B.x.8.} ' ] ] [ k                             ",
"                                % O % % o : q.V.V.B.V.N.B.N.<.C M C A >                             ",
"                            * O o O   % p ,.B.V.V.V.V.V.B.N.l.*.C C C -                             ",
"                          O O o       #.z.M.M.B.B.V.N.N.N.N.N.f.o.A C *                             ",
"                      % O O         8.m.M.M.B.B.B.V.V.V.B.N.N.N.p...A ;                             ",
"                    % O o           x.N.N.M.M.B.B.B.B.B.B.N.N.N.v.3.[ : .                           ",
"                    O             f.M.M.N.M.V.M.B.B.B.B.N.N.N.N.v.f.*.j . o o                       ",
"                  %               n.M.M.V.B.M.B.B.B.B.B.N.N.n.c.c.k.w.E > . . O                     ",
"                                g.m.M.M.M.N.V.B.B.B.N.N.N.N.N.n.c.h.s.>.D   . X                     ",
"                                v.m.m.N.N.N.N.N.B.B.N.N.N.m.n.c.l.f.s.w.+.    . O                   ",
"                                b.m.m.N.N.N.N.N.B.N.N.N.m.n.c.l.h.d.u.w.:.    o . O                 ",
"                                n.m.m.m.m.m.N.N.N.N.n.n.n.c.l.k.d.p.r.6.-.      X o                 ",
"                                n.n.n.n.n.n.n.n.n.n.n.n.c.k.d.s.p.e.q.2.+.        . O               ",
"                                n.n.n.c.c.c.c.c.c.c.c.c.k.d.s.p.e.6.3.%...        o o               ",
"                                c.c.c.l.l.k.c.k.k.k.k.d.s.p.p.9.6.2.*.....          o O             ",
"                                l.c.h.h.k.s.d.d.s.p.p.p.r.e.9.q.>.+.o...              *             ",
"                          J G   n.h.d.p.p.r.r.r.e.r.r.r.9.q.<.-.O.o.o.o.              *             ",
"                          G F K i.c.p.q.q.q.q.4.4.q.4.3.1.-.=.o...o.o.                              ",
"                          r r F L 0.5.-.%.=.=.=.=.=.=.=.+.X.X...o.o.O.                              ",
"                          q w t e I =.X. ... . .| ..|  .........X.X.                                ",
"                            0 0 0 f X...{ E E | E E Q | | |  . . .                                  ",
"                              i             E D R R R R E E {                                       ",
"                                                n N Z Z Z R                                         ",
"                                                u s n                                               ",
"                                              1 4 4 y                                               ",
"                                              1 2 3 2 4 i                                           ",
"                                                4     5                                             ",
"                                                                                                    ",
"                                                                                                    ",
"                                                                                                    ",
"                                                                                                    ",
"                                                                                                    ",
"                                                                                                    ",
"                                                                                                    ",
"                                                                                                    "
};
