/* XPM */
static char *_630099460106[] = {
/* columns rows colors chars-per-pixel */
"50 50 235 2 ",
"   c #170706",
".  c #2A1512",
"X  c #331A08",
"o  c #32241A",
"O  c #3B2300",
"+  c #3E2B24",
"@  c #572C0C",
"#  c #49291E",
"$  c #753B09",
"%  c #6B3C0E",
"&  c #483835",
"*  c #523526",
"=  c #623A20",
"-  c #634717",
";  c #7A5119",
":  c #564735",
">  c #6B4E2E",
",  c #7F623A",
"<  c #543E44",
"1  c #58474A",
"2  c #5C4B54",
"3  c #6B5A48",
"4  c #675557",
"5  c #735F60",
"6  c #766368",
"7  c #717269",
"8  c #8D4F10",
"9  c #BB751D",
"0  c #B26813",
"q  c #835728",
"w  c #986934",
"e  c #956D29",
"r  c #AC6C24",
"t  c #B2782D",
"y  c #D17D1A",
"u  c #886E57",
"i  c #8E745B",
"p  c #876C49",
"a  c #846E61",
"s  c #897A6F",
"d  c #B17747",
"f  c #758268",
"g  c #DB891E",
"h  c #EB990C",
"j  c #EA940C",
"k  c #EB8E1B",
"l  c #ED9615",
"z  c #ED9913",
"x  c #ED951C",
"c  c #EE991C",
"v  c #E49319",
"b  c #F2941C",
"n  c #F2991B",
"m  c #F19816",
"M  c #EB9211",
"N  c #C9832B",
"B  c #DD8D28",
"V  c #D88C26",
"C  c #DE9129",
"Z  c #D58C39",
"A  c #D99639",
"S  c #C58837",
"D  c #E28E29",
"F  c #ED9422",
"G  c #EC9B24",
"H  c #EB9B2C",
"J  c #E59529",
"K  c #F29422",
"L  c #F59A24",
"P  c #F59A2C",
"I  c #F69829",
"U  c #E39C33",
"Y  c #E79735",
"T  c #F49A33",
"R  c #ECA22A",
"E  c #EBA137",
"W  c #F7A039",
"Q  c #9A8542",
"!  c #B89448",
"~  c #A48256",
"^  c #B59455",
"/  c #B78A47",
"(  c #878078",
")  c #95857A",
"_  c #8C9B7E",
"`  c #BD9B6A",
"'  c #B99C74",
"]  c #AD8D6D",
"[  c #C68B44",
"{  c #C7954A",
"}  c #D69A47",
"|  c #CA9756",
" . c #D39C5B",
".. c #D89D58",
"X. c #C68A58",
"o. c #E39C4A",
"O. c #DAAB4E",
"+. c #D7A45D",
"@. c #EBA44C",
"#. c #EAA74B",
"$. c #F7A747",
"%. c #E5A85C",
"&. c #EBAC5D",
"*. c #E4A457",
"=. c #F5AB54",
"-. c #CC9C65",
";. c #C39E73",
":. c #D89D69",
">. c #D7A566",
",. c #C7A779",
"<. c #DDAB73",
"1. c #D9A878",
"2. c #D7B677",
"3. c #E6A869",
"4. c #EDBA7B",
"5. c #EBB577",
"6. c #F9BE7C",
"7. c #EBB36F",
"8. c #F1C17F",
"9. c #897E8C",
"0. c #7C838B",
"q. c #8C898E",
"w. c #968889",
"e. c #989595",
"r. c #929292",
"t. c #A4998F",
"y. c #B1998B",
"u. c #A79B9B",
"i. c #B18C84",
"p. c #9EA89F",
"a. c #B8A685",
"s. c #A9A59B",
"d. c #989FA7",
"f. c #A89FA5",
"g. c #9EA3A6",
"h. c #A7A8A8",
"j. c #B4A9A5",
"k. c #AAAAB6",
"l. c #B7B5B9",
"z. c #B0B2B1",
"x. c #D8AE82",
"c. c #DBB383",
"v. c #D8BA8D",
"b. c #DCBA98",
"n. c #C7AD8F",
"m. c #E9BE8B",
"M. c #E6B886",
"N. c #F1BE83",
"B. c #E7BE92",
"V. c #C7BAB1",
"C. c #C69A8D",
"Z. c #B6C3AC",
"A. c #D9C296",
"S. c #EBC08C",
"D. c #F6C48D",
"F. c #F8C889",
"G. c #EECA9C",
"H. c #EDC195",
"J. c #F4C491",
"K. c #F7CC9A",
"L. c #FACA99",
"P. c #F4C798",
"I. c #F8D59B",
"U. c #F9D18C",
"Y. c #D2C8B3",
"T. c #E8CAA4",
"R. c #F4CEA3",
"E. c #ECD3AB",
"W. c #EAD4AB",
"Q. c #F6D1A3",
"!. c #F2D3AC",
"~. c #FCD5A7",
"^. c #EBDBB4",
"/. c #EDDBBB",
"(. c #E9D8B6",
"). c #F6D6B2",
"_. c #F0DAB5",
"`. c #F9DBB8",
"'. c #F7E2BB",
"]. c #EDE0BE",
"[. c #BABFC5",
"{. c #CCCBCC",
"}. c #C8CEC2",
"|. c #D7CCC7",
" X c #C8C7D2",
".X c #D3CBD4",
"XX c #DAD9D7",
"oX c #D7D8D3",
"OX c #ECDCC3",
"+X c #E3DCCE",
"@X c #E8D9C9",
"#X c #F8DBC4",
"$X c #EBDDD3",
"%X c #E8DFDE",
"&X c #DCE4D9",
"*X c #ECE3CB",
"=X c #E8E1C6",
"-X c #F1E5C5",
";X c #FFEBCE",
":X c #FBE7C4",
">X c #EBE5D2",
",X c #E7E6DA",
"<X c #FAE5D7",
"1X c #FFF3D6",
"2X c #FFF4DC",
"3X c #FFFCDA",
"4X c #E9DFE0",
"5X c #DAE3E6",
"6X c #DDE5F0",
"7X c #E4E5E4",
"8X c #E7E8E1",
"9X c #EBEBE5",
"0X c #EBEDEC",
"qX c #E8E6E8",
"wX c #F2EBE6",
"eX c #EBF1EF",
"rX c #FFFAE4",
"tX c #FEF4EC",
"yX c #FFFCEC",
"uX c #F7F5E7",
"iX c #EAEBF4",
"pX c #F3EFF2",
"aX c #EEF2F1",
"sX c #EFF2FD",
"dX c #EEFEFF",
"fX c #EDFAF1",
"gX c #F3F4F4",
"hX c #FEF5F2",
"jX c #F4F9F7",
"kX c #FEFDF4",
"lX c #F4F5FB",
"zX c #FEF5FD",
"xX c #F5FDFC",
"cX c #FEFEFE",
"vX c #D8D9EE",
/* pixels */
"cXcXcXcXcXcXcXcXcXcXcXcXcXcXcXcXcXcXcXcXcXcXcXcXcXcXcXcXcXcXcXcXcXcXcXcXcXcXcXcXcXcXcXcXcXcXcXcXcXcX",
"cXcXcXcXcXcXcXcXcXcXcXcXcXcXcXcXcXcXcXcXcXcXcXcXcXcXcXcXcXcXcXcXcXcXcXcXcXcXcXcXcXcXcXcXcXcXcXcXcXcX",
"cXcXcXcXcXcXcXcXcXcXcXcXcXcXcXcXcXcXcXcXcXcXcXcXcXcXcXcXcXcXcXcXcXcXcXcXcXcXcXcXcXcXcXcXcXcXcXcXcXcX",
"cXcXcXcXcXcXcXcXcXcXcXcXcXcXcXcXcXcXcXcXcXcXcXcXcXcXcXcXcXcXcXcXcXcXcXcXcXcXcXcXcXcXcXcXcXcXcXcXcXcX",
"cXcXcXcXcXcXcXcXcXcXcXcXcXcXcXcXcXcXcXcXcXcXcXcXcXcXcXcXcXcXcXcXcXcXcXcXcXcXcXcXcXcXcXcXcXcXcXcXcXcX",
"cXcXcXcXcXcXcXcXcXcXcXcXcXcXcXcXcXcXcXcXcXcXcXcXcXcXcXcXcXcXcXcXcXcXcXcXcXcXcXcXcXcXcXcXcXcXcXcXcXcX",
"cXcXcXcXcXcXcXcXcXcXcXcXcXcXcXcXcXcXcXcXcXcXcXcXcXcXcXcXcXcXcXcXcXcXcXcXcXcXcXcXcXcXcXcXcXcXcXcXcXcX",
"cXcXcXcXcXcXcXcXcXcXcXcXcXcXcXcXcXcXcXcXcXcXcXcXcXcXcXcXcXcXcXcXcXcXcXcXcXcXcXcXcXcXcXcXcXcXcXcXcXcX",
"cXcXjXcXjXcXcXcXzXcXcXcXcXcXcXcXcXcXcXcXcXcXcXcXcXcXcXcXcXcXcXcXcXcXcXcXxXzXcXcXcXcXcXcXcXcXcXcXcXcX",
"cXcXcXcXcXcXcXcXcXcXcXcXcXhXjXhXjXcXjXxXjXcXjXjXjXjXcXjXjXcXcXcXcXzXcXcXjXcXcXcXcXcXcXcXcXcXcXcXcXcX",
"cXxXcXcXcXcXcXcXcXjXjXjXgXgXgXgXgXfXaXaXaXgXgXaXaXaXaXgXaXgXjXjXxXcXcXgXcXcXcXcXcXcXcXcXcXcXcXcXcXcX",
"cXcXzXcXcXzXcXlX0XpXpXpXpXgXgXgXlXgXjXjXgXjXjXgXgXaXaXaXaXaXaXaXpXcXXXcXcXcXjXcXcXcXcXcXcXcXcXcXcXcX",
"cXcXcXcXjXpXaXpXgXpXpXgXgXjXlXjXjXgXjXjXgXlXjXjXjXjXjXaXaXaXaXaXpXqX7XqXcXzXcXcXcXcXcXcXcXcXcXcXcXcX",
"cXcXcX0X9X7X9XgXjXgXjXhXhXgXjXgXgXgXaXgXfXfXgXaXaXgXaXaXgXgXaXaXgXXXcX}.,XjXcXcXcXcXcXcXcXcXcXcXcXcX",
"jXcXpX|.qX9XpXjXgXjXgXgXpX0X0XpX0X0X0X0XeX0X0X0X0X0XeXeXaXaXaXfX0XcX%XpXz.7XgXcXcXcXcXcXcXcXcXcXcXcX",
"zXcXoXz.9XcXzXhXwXwX0X9X9XqX9XqX7X8X8X8X8X,X5X8X,X7X7X8X8X8X0XpXeXzX7XjXoXe.cXcXcXcXcXcXcXkXcXcXcXcX",
"cXcXu.+XhX<Xu.j.%X,X>X>X>XwXqX4X,X,X>X>X>X>X>X*X>X>X=X&X,X,X&XoX,XoXwXuXuXw.qXcXcXzXkXyXuXrXkXkXcXcX",
"pXcXj.+X) . . 4 $X>X=X=X*X>X4XwX>X*X*X*X*X-X-X-X(.-X*X*X=X+X+X+Xt.o o t.uXs..XxXxXcXyXuXyXkXuXcXcXcX",
"cXcXf.2     1 Y.$X*X*X-X-X#XOX/.OX/././._._._._.:X].(.(.OX=X@X*XY.3 .   & V.pXzXhXxXxXcXcXcXcXsXcXcX",
"pXcXV.2 < 4 ) =X-X/.]././.E.E.Q.E.!.!.!.!.!.!.!.W.W._._.`.OXOX(.-Xa.: o 2 h.e.e.cXwXcXcXlXsXcXcXcXcX",
"cXpXh.9.6 + V.]._.W.W.W.T.T.I.I.R.R.Q.Q.Q.Q.Q.~.G.R.).!.E.E./.#X/./.1 5 6 1 4 u.j.XXiXiXzXxXxXcXcXcX",
"uXcXq.2 w.5 y.^.W.W.W._.~.Q.U.F.J.L.L.L.L.L.L.L.~.R.P.R.!.).!.E.-X] a i.1 2 5 s : ( [. XvXlXxXjXcXcX",
"kX|.w.4 & u _ ] v.A.T.E.~.L.D.N.D.J.D.D.N.J.J.J.J.m.B.~.).R.v.' i C.i.& < 6 + ( e.7 q.k.k.k.5XkXcXcX",
"uX+X3 3 * = p T.' ` ,.,.x.m.N.N.N.D.D.D.J.D.D.J.m.J.B.x.;.` ;.n.#Xi.X # i # : yXkXzX.Xk.g.p.Z.&XcXcX",
"hX<Xi , > - > ~ ).R.B.M.M.1.x.:.<.<.<.3.<.<.<.<.<.1.1.c.S.G.R.!.C.* = @ , X s uXzXzXzXxXoX7 _ Z.kXcX",
"hXrX~ ~ w ; % - X.x.B.M.M.L.L.M.N.4.4.4.6.N.N.4.F.D.D.N.S.S.S.B.' @ q w ^ - b.kXzXcXlXzXjX,Xf s.hXxX",
"hXrXn.^ X.t e $ $ d 4.N.5.3.:.1.>. .....3.%.+. .>.3.7.6.8.8.4.S.w 8 ! O.! Q 3XyXzXzXzXxXxXxX}.h.eXzX",
"kXtXE.^ >.{ o.t 8 8 r *.6.3.3.3.%.*.%.&.&.%.%.*.} 3.7.7.+.S t 8 r S O.O.e 2.3XyXzXcXxXcXfXjXzX{.eXjX",
"cXyX3X` ! } #.@.=.Z 9 0 0 N Z A @.#.#.=.=.#.@.@.Z Z N y 9 9 N A E U A ! ! '.2XcXcXxXsXcXxXzXXX XgXcX",
"zXcXrXG./ } C Y D T $.$.Y B V C g V C U D D D D y y V D J U H E R H A t S.2XyXcXcXxXxXcXxXlX.Xu.zXcX",
"xXcXkX1X2.} C c b l D K H F c z G H T T P P I I I I I P P I L G j H *.X.#XhXzXcXxXxXxXeX9X%X|.u.cXcX",
"xXdXkXrX'.| #.g b b b F b c h h m c n n L K I K K K k b b b b c D Y [ M.tXzXzXcXfXfX5X&XqXcX7 %XcXcX",
"dXdXxXkXrXP. .o.B F x c z j j h j h m h m m b K I K k F K K K Y } >.,.#X@X%X0X5X5X5XvXaX6Xh.s.kXcXcX",
"dXdXxXcXhX1XB.:.o.Y v z c h l z M M m m m b b l b K K I G F F Y >.a.a.2XrX,XqXiXsX6XdXoXq.l.cXtXcXcX",
"xXcXcXzXkXtX;XB.-.} A A G x l b k k K k b b m b c x F G R H U } 2.u X : ( s.k.[.d.g.0.r.qXcX9XcXcXcX",
"kXkXkXcXzXkXyX;Xv.>.O.A U U F I D T K K b b n n c G H E A A #.7.:X3X|.Y.s.r.q.e.k.[.iXxXcXcXkXcXcXcX",
"yXyXkXcXkXzXcXkX2XE.2.{ } } Y Y T T I I L L L n G R #.} {  .M.`.1XkXyXyXhXcXcXcXcXcXxXcXgXcXcX0XcXcX",
"yXyXkXcXcXcXcXxXkX2X_.v. .[ Z Z Y Y T T P c R J A A { | 1.T.<XyXkXcXcXjXkXcXkXcXcXzXjXcXcXxXcXcXcXcX",
"rXyXkXxXcXxXxXxXxXkXyX;XR.1.:. .{ } A A U A A Z } | -.v.#XtXzXxXcXgXcXcXcXcXcXkXpXcXcXcXcXcXjXgXcXcX",
"kXkXcXcXxXxXdXxXcXcXkXtXrX#XT.x.-.-.X.| { {  . .-.c.).1XhXcXcXcXcXxXcXcXjXzXcXcXcXkXjXcXxXxXcXcXcXcX",
"cXcXcXxXcXxXcXcXcXcXcXzXkXkXyXyX-X(.T.b.b.T.).`.1X2XrXyXkXkXxXxXxXxXxXxXcXcXcXcXkXcXkXcXcXcXcXcXcXcX",
"xXxXcXcXcXcXcXcXzXcXcXcXcXcXzXcXkXkXtXtXhXhXkXzXhXhXkXcXxXxXxXdXcXxXcXcXcXcXcXcXcXkXcXcXcXcXcXcXcXcX",
"xXcXxXcXcXxXcXcXcXzXcXcXcXcXcXxXxXkXxXcXcXzXcXzXzXcXcXcXxXxXxXxXxXxXxXcXcXcXcXxXcXkXcXcXcXcXcXcXcXcX",
"xXxXcXcXcXkXkXkXcXcXcXcXcXcXxXcXxXkXxXxXcXcXxXzXzXcXcXcXxXcXxXxXxXcXcXcXcXcXcXcXcXcXcXcXcXcXcXcXcXcX",
"cXcXcXcXkXkXkXkXcXcXzXcXcXcXxXcXkXkXkXxXxXcXcXcXcXcXcXcXcXcXcXcXcXcXcXcXcXcXcXcXcXcXcXcXcXcXzXcXcXcX",
"cXcXcXcXkXkXcXcXcXcXcXcXcXcXcXxXkXyXkXkXcXcXcXcXcXcXzXcXcXcXzXcXcXcXcXcXcXcXcXcXcXcXcXcXcXcXcXcXcXcX",
"zXcXcXkXkXkXcXxXcXcXcXcXcXcXkXkXzXcXcXzXcXcXcXkXcXcXcXcXcXcXzXcXcXcXcXcXcXcXcXxXcXcXcXcXcXzXzXcXcXcX",
"cXkXcXkXkXkXxXcXcXcXcXcXcXkXkXkXcXcXzXcXcXkXkXcXkXkXkXkXkXkXkXkXkXkXcXkXcXcXcXcXcXcXcXcXcXcXcXcXcXcX",
"cXcXcXcXcXcXcXcXcXcXcXcXcXcXcXcXcXcXcXcXcXcXcXcXcXcXcXcXkXcXcXcXcXcXcXcXcXcXcXcXcXcXcXcXcXcXcXcXcXcX",
"cXcXcXcXcXcXcXcXcXcXcXcXcXcXcXcXcXcXcXcXcXcXcXcXcXcXcXcXcXcXcXcXcXcXcXcXcXcXcXcXcXcXcXcXcXcXcXcXcXcX"
};
