/* XPM */
static char *_013f314b1914175edb4f51adedd28b2aZB1K1wgLiqpSxAW[] = {
/* columns rows colors chars-per-pixel */
"20 20 98 2 ",
"   c #FFFDD2",
".  c gray99",
"X  c #FFFFDD",
"o  c #FDFDFE",
"O  c #010F37",
"+  c #000027",
"@  c #00002A",
"#  c white",
"$  c #FEFFFF",
"%  c #FEFBD2",
"&  c #FFFFD4",
"*  c #FCF8CF",
"=  c #FFFFD7",
"-  c #FFFFE2",
";  c #00032D",
":  c #02123A",
">  c #00001F",
",  c #172544",
"<  c #EAE8E0",
"1  c gray95",
"2  c #FDFACF",
"3  c #F9F9F9",
"4  c #000B35",
"5  c #84887F",
"6  c #010003",
"7  c #FFFFFE",
"8  c #FFFFFE",
"9  c #F6F3CA",
"0  c #EBEBE7",
"q  c #495366",
"w  c #A1A392",
"e  c #C5C7CE",
"r  c #E3E1BB",
"t  c #E5E5E7",
"y  c #F9F8F6",
"u  c #B2B3B8",
"i  c #FFFFD9",
"p  c #000011",
"a  c #F2F1EB",
"s  c #DAB515",
"d  c #EEECC6",
"f  c #3C475A",
"g  c #F1EFC8",
"h  c #000B32",
"j  c #DEDFDB",
"k  c #293650",
"l  c #D5CFA0",
"z  c #A6AAB6",
"x  c #FEFACF",
"c  c #687183",
"v  c #E9D46D",
"b  c #9095A0",
"n  c #A1A5AE",
"m  c #E9E6C0",
"M  c #0B1B3C",
"N  c #333F56",
"B  c #BABAA2",
"V  c #A09C7E",
"C  c #DCDABF",
"Z  c #D8B007",
"A  c #DAB823",
"S  c #CAC9AB",
"D  c #D6C87A",
"F  c #AEAC91",
"G  c #393D48",
"H  c #D1CFBD",
"J  c #25201D",
"K  c #D1CEAA",
"L  c #151112",
"P  c #E1C653",
"I  c #E5D787",
"U  c #757C8C",
"Y  c #576176",
"T  c #828896",
"R  c #DDDDDF",
"E  c #61697C",
"W  c #BABDC4",
"Q  c #4F586C",
"!  c #B6B9BF",
"~  c #7B8291",
"^  c #D9D8CA",
"/  c #D4C269",
"(  c #CFBB69",
")  c #868C9A",
"_  c #99989B",
"`  c #6D5805",
"'  c #DEDDC6",
"]  c #C5C09F",
"[  c #634D00",
"{  c #BBB89A",
"}  c #919489",
"|  c #312D2A",
" . c #8B8F84",
".. c #6B623C",
"X. c #625E50",
"o. c #85827B",
"O. c #D1D0D5",
"+. c #7C6715",
/* pixels */
"# # # o # # n , G 5 B ' < 3 # o # # # # ",
"# # # $ # c >  .& X i r H t y # # # # # ",
"# # . # b p }   C S K L e y _ # . o o # ",
"# o # 1 : , m J O.. H L +.J G # # # # o ",
"# . # u > N { 6 u # o.A [ 6 F j t t 1 # ",
"# . # ) + : F 6 6 p ..Z ` V X 5 @ M , q ",
"# . # ~ + @ 5 ] | X.K D D l i r h @ > f ",
"o 3 # z > 4 M * - % 9 - - X 2 i q k u # ",
"# # e Q + O @ 5 X *   x x 2 % & C # # $ ",
"8 E @ @ 4 4 ; , 9 & %       % & d 1 $ o ",
"N p + h O ; O + w X *       % & d 0 # o ",
"T U b R n + : ; f = %         & 9 < # o ",
"# # # # W + O 4 O r = %       & 9 < # o ",
". . 3 # c + O O @ B X *       & g 0 # o ",
"# # o # q @ O O @ w X *     % & m 1 # o ",
"# # . # Y + : O @ w X *   %   % j # o # ",
"# # . # e + ; : ; S = *   & X I s < # o ",
"# # # . # ! , > k - - - 2 g l s P a # o ",
"# # # # . # 3 z V v v / ^ 0 y a $ # 7 # ",
"# # # # # . # # . A Z ( o # # # 8 7 # # "
};
