/* XPM */
static char *_630674123199[] = {
/* columns rows colors chars-per-pixel */
"50 50 38 1 ",
"  c #97A8C6",
". c #9DACC7",
"X c #9DADC9",
"o c #A2AFC9",
"O c #A4B2CB",
"+ c #ABB6CD",
"@ c #AEB9CE",
"# c #B2BBCF",
"$ c #B8BECF",
"% c #AFB9D0",
"& c #B4BDD1",
"* c #B8BFD1",
"= c #BDC3CF",
"- c #B7C0D3",
"; c #BCC3D3",
": c #C1C6D5",
"> c #C4CAD6",
", c #C9CDD7",
"< c #C6CBD8",
"1 c #CACED9",
"2 c #CDD1DB",
"3 c #D2D5DD",
"4 c #D6D8DF",
"5 c #D9DADF",
"6 c #CFD4E0",
"7 c #D5D7E0",
"8 c #D6D9E0",
"9 c #DBDCE2",
"0 c #DFE0E5",
"q c #E2E2E6",
"w c #E5E6E9",
"e c #E8E7E9",
"r c #E7E8EA",
"t c #EBEBEC",
"y c #EFEFF0",
"u c #F0EFF0",
"i c #F3F2F3",
"p c #F8F7F7",
/* pixels */
"<18;-2<1987&126001178w90yw8qrw0799717362<7t939777e",
"3;9q6ww9<17;-w7;<<;7122ww98y0281<q777592921<27979e",
"80q91<0y82ry8286;396-;898www01;<79713:<7:733<%7773",
"8wrq909yt16901;68988;791203;7<6922<*::$217<::<<71:",
"984ry987rr2<;-%;0739;;8<-86&&1<6q992<72*q7<:<260<:",
"98427726<ry97222;8q9q73<;;&1772799qtt97<:1797<77eq",
"898w;<17w80ir0r02988iy8876<;<182679q9379<3993::23e",
"wii077919089w000y9q9990q3176%*;13<::73*69732317<:*",
";199q<2t89978tr8<0pt48yy8q26:+&66<69976<6<3*:1:63:",
";&&19038802>3088;<10r00ypt2<07;*:7qq9e76;:2*%73uq7",
"11;6771272<682;0r4<2wy1<879;<r8;&62::<2612qe77q177",
"8786388;782223228331;2<OX;ry47w0::::::1;:<307<7:<7",
"0288189030t720t0213-%+;-O-0w02001:::<<11<17671:*<:",
"0wt923892>2312882<+-;;221>2rrw94676:<9ee9119q6<:2:",
"972rtw97<21222<80261108wyt880r9471267<19q2299926qe",
"89780372;80438822008222271;;12;17*<7<<:2%<;*27q73e",
"4953402100208;=<1148080;,;;284;;q71399:*&&*>:39e99",
"00tqq0;14,150334221800r08y2-;404:93137q27269:11qu3",
"trrq44;+;-;53;322>10t0204;=;4,4r3::1*:77071:317759",
"9q904<2;;-;-<22,<03;;130;;44404<9q<%2192;397,<,72,",
"&%289>8t230-:,>3405-O-;;1232;33;:301<<<0939q:%<743",
"O%-;4rryr004,5==2;2<O-;1005=;230223911;>eq592%;:2e",
";%O*<04<4220535,1;<21=;;;y043,<<<>2:<22<,717e5$*:3",
"27&%>,4=,440554,3;-<022524rr025<2<*1373<;177qiq299",
"3w9>2q83r50qqq,50,>rq5:22;8043;07;o$:&+>32wqupp033",
"31w919985t5,:2e539055wt54;-,1122;<37% o*:;:355qq,5",
"827493>4qq3q5,5,,9030twq3>>2=-32>7qq91173*#772,9u5",
"199t1:3952qtue2,309q00525r3,>;--*::<<203>5<1353:=;",
"1,59,$<3,4q59qie39y04,9iq00>=4-=*%$%%:>29371;23,+#",
"*>32wq35:,3qeeqyw5e5;<4q4-3222,;::;>7<;>3<22<37739",
"2*$50ue350q52qrrw333=<>=>@>0923053:*<<:<;*<233,:35",
"9825q59450,,,,595q,,q4:;9,+=802wq:*;:72::q9,;>:=,,",
"993<=55:$3,o373>42>24>,,>4,,<299t2,2>49317,&*,9ew,",
"t929200$$:>;:,32=@-1244q44ir,=223w3>;+:31;2>&*7792",
"9119e5eu,#:1+;13=-=-3rt5495003==;>,=2;&2>&;37:8,<0",
":3535<3wq23*;;733,>===30944,22;--24,>2;&>178q9333e",
":9t292><45:<1;;3503,=::,q4=2=;3,@-><<,$;7:*<192><9",
"9959:,454>=,11+>32:=33,==,22,24,=-;q<;2;;:**<1;24>",
"312,3:5e3302::><53,553350524w4=-=3;>2;22*<3>1;>31>",
"3=233229550ew87<20t53232=593>3--289#,,;;<<27>,33<+",
"954545$3q4eqe0,22,qt9q3:;:;>,32<99q313$+2>:1:331:$",
"053,99438ee5q2,2:25555553##42,41;,2weuw39991427*@,",
"wq2:9023q4q3:0ee05qqeq5q9,<<2:>2*;>19euw782<3212:=",
"qw5324>,032t35e0ue,33,9qttq>2>=41111110828,32211,>",
"2355,3w5,<<,5:,59e5==,55355=@-=-<:;1213q0,;23*;1>,",
":2w55qwe3$;35:=539e3>:4353302=,;;12*;*<8522,$+#,,=",
"225e5,3q,2<1qq:,2>we,34<59w5222=:2,#*&#1>11;$:,2q5",
"5q3r33<=23::3q9,232q53;+19;=;,;>&#11O*o**:23333233",
"35,$;2##2<#>4q944403r5===@+-;4=-&@#>#O&.+#:1<3,;<5",
">,2$@;=#@>--,wt09225,:25=O@@=13>,*+:%::%;*$;=:##=3"
};
