/* XPM */
static char *_630099444722[] = {
/* columns rows colors chars-per-pixel */
"50 50 118 2 ",
"   c #10182F",
".  c #070E3A",
"X  c #0B0E3B",
"o  c #031534",
"O  c #0D1435",
"+  c #051A36",
"@  c #0E1C36",
"#  c #0E153C",
"$  c #061C3A",
"%  c #0D1D3B",
"&  c #131533",
"*  c #191535",
"=  c #111B36",
"-  c #12173D",
";  c #1B173A",
":  c #121D3A",
">  c #1B1D3B",
",  c #25173A",
"<  c #23183A",
"1  c #281A3D",
"2  c #0F2137",
"3  c #0E213D",
"4  c #11213D",
"5  c #1B223F",
"6  c #0E1E41",
"7  c #141740",
"8  c #121D43",
"9  c #1B1C45",
"0  c #1A134B",
"q  c #111E4A",
"w  c #1C1C4D",
"e  c #1D1F52",
"r  c #201746",
"t  c #221C40",
"y  c #2B1D41",
"u  c #241554",
"i  c #271D5A",
"p  c #0D2343",
"a  c #0F2548",
"s  c #112243",
"d  c #1C2442",
"f  c #122847",
"g  c #13254A",
"h  c #19224C",
"j  c #13294A",
"k  c #1B2C4D",
"l  c #15334F",
"z  c #162550",
"x  c #1C2352",
"c  c #172B50",
"v  c #1B2C52",
"b  c #1B3151",
"n  c #232441",
"m  c #282542",
"M  c #272648",
"N  c #2E2749",
"B  c #232B4B",
"V  c #352146",
"C  c #332549",
"Z  c #3C2A4E",
"A  c #242455",
"S  c #282457",
"D  c #242C56",
"F  c #2D2C56",
"G  c #232558",
"H  c #232B5A",
"J  c #2A2B5B",
"K  c #312557",
"L  c #332E56",
"P  c #223254",
"I  c #223559",
"U  c #243A5A",
"Y  c #373250",
"T  c #35345C",
"R  c #2F2662",
"E  c #2B2E61",
"W  c #342363",
"Q  c #342D62",
"!  c #392A61",
"~  c #3B2F6B",
"^  c #2C3C62",
"/  c #2E3D68",
"(  c #323465",
")  c #333D60",
"_  c #3B376B",
"`  c #303D69",
"'  c #3C3C6E",
"]  c #3A3B71",
"[  c #2D4262",
"{  c #334664",
"}  c #384265",
"|  c #35436E",
" . c #314C6A",
".. c #3A4E6F",
"X. c #37526D",
"o. c #3B4273",
"O. c #3E5974",
"+. c #45405E",
"@. c #4D4465",
"#. c #534F71",
"$. c #4D507B",
"%. c #4A597A",
"&. c #5F5A78",
"*. c #6A567B",
"=. c #48607C",
"-. c #524A86",
";. c #495481",
":. c #665F95",
">. c #65669E",
",. c #7F6E92",
"<. c #657C9E",
"1. c #6E6BA2",
"2. c #756AA6",
"3. c #7679A6",
"4. c #816B91",
"5. c #8C7CBB",
"6. c #927FB7",
"7. c #9A8AC8",
/* pixels */
"f a j a j a j a a f f f f l v g f f f a a a l a a a l 3 l a a a a a f f f f l a a f a f f f f l p a ",
"a 3 p p p p p a p p a p p f c p a p p f a a p a p p a p a p a a a p p a p p p p p p p p a a 3 a a p ",
"p p p a p a p a p p p p p f j p p p p p p a p a p p a p a a a a a p p p p p p p a 3 p p a 3 a 3 3 a ",
"p f p 3 a p p p p p p p p a c p p p a a a p a p p p p p a a a a a p a p a p p p a a a a f 3 a a a 3 ",
"p p a p p p p p p p p p p g c 6 p p p p a a p p a p p p a p a a p p a p a p p p a a a a 3 a 3 f a 3 ",
"a p U l p a a a a p p a a g c a a p p p p a f a p p p a p p a a a p p a p p p p a 3 f 3 a 3 a 3 a a ",
"p p l l p p p p p p p p 6 g c a p p p f p p a a p p p p p p l a p p p p p p p a 3 3 a a a a 3 a 3 a ",
"p p p 3 p a a p p p p a a j c g p p p p p a p p p p p p a a c a p p p a p p p p f a a 3 3 a f a 3 a ",
"p p a p a p p p p p p 6 a g c 6 6 p p p p p p p p p p a p a g a 3 p p p 3 p p p 3 p p p p a 3 p 3 a ",
"p p p p a p p p p p p p s f c s p p p 6 p p p p p l f $ p p I g p p p p p p p 3 p p p 3 p p 3 p a 3 ",
"p p p p p 6 p p p p p p s f c s p p p p p p p 3 + [ b p a q q g p p p p p p p p p p p 3 p p p p 3 a ",
"p p p p s p f f p 3 p p 6 j v s p $ p p p p p p p p a a a 6 ^ z p p 3 p 3 p p p 3 p p p p p p p a 3 ",
"p p p p s p g 4 p 3 s p % k v s p p p 6 p p p p p p 6 6 q q g q s p p p 3 p 8 p b b 3 p a p s 3 3 a ",
"p p p p p p g p p p p s s j v 8 p p p 6 p p % p p p g s 6 q ` v p p p 3 s p s % P P 3 p % p a 3 3 3 ",
"p p p s s p v g p p p p s g k s 8 p s 6 j s 3 p p s 6 p g 6 x q % p 3 p 8 s s 8 % s % p p % p 6 a f ",
"p p 3 p p % j 3 p 3 6 s s 8 s p p 6 f p b f p a 3 j f 6 g 6 o.c p p p 8 s s s s 8 p s 6 s s p p 3 p ",
"p s s 8 f 6 P 6 p 6 p s s s p p 3 3 f s q s 8 p 3 f p p s p H z s s 6 s s 3 s p p s 4 s s p 6 s 4 p ",
"p p s s p s P k p p s p : s p 3 3 3 3 s 6 q s a s 3 3 s 3 % ] G 6 4 s 8 s 3 3 p s 4 s 4 p s s s p s ",
"s 3 6 s 6 % : 8 8 p p : s 8 p 3 3 p 3 s H q 6 % 3 p 3 4 % s E x 6 p 8 4 3 3 3 p 3 8 % 3 3 p 6 3 p % ",
"p 6 8 s p s } k s 6 8 s 8 4 3 3 3 6 s g ^ g p p p 3 3 3 p % ] G 6 3 s s 4 3 p 3 s 4 4 p p p s s p p ",
"3 s 3 4 3 % B 9 : p : s 8 4 s p p % s p 6 8 s p s 3 3 2 3 % ' S 6 p 8 s 4 3 3 p 3 s 4 3 f p 8 4 : p ",
"% a % s 8 s B t : p p : : s 3 % s s 6 6 % s % 8 3 3 3 3 3 s _ S : p s s 4 3 p 3 8 : 3 3 s s p : s 4 ",
"3 s : s % : #.M : 4 : 4 4 4 4 3 h f 6 s / z 6 s f % 3 3 s : -.Q 8 % s 4 4 3 p 3 s s 3 3 f s s p : p ",
"p % % s % : t ; : 3 3 : : : 3 % : 8 % f | g 6 6 : s 3 2 s # ~ i 8 3 : % 3 2 3 3 3 : % 3 p s 3 3 3 : ",
"s 3 4 % 4 : #.C = = 4 2 4 4 % s : s p % @ s 3 4 : 4 3 3 3 # :.Q % 4 s 6 3 3 3 3 % 4 3 @ b j % p 3 : ",
"3 4 3 3 : : @.y : 4 4 4 % @ p 4 % : % 4 s : % % : 4 3 s 2 6 Q i # 4 4 : 2 4 3 4 s % 4 3 s 6 p % 3 3 ",
"s % 3 4 % ; C 1 : @ 3 3 % p s $ 4 4 # k ;.h s 4 s % % % 6 6 1._ # 3 s : : 3 3 3 % 4 % + P b @ s 4 4 ",
"4 % 4 3 3 = ,.Z = 4 4 4 4 % 3 p 4 4 % q o.g # : : 4 s s % % J w 6 3 : 3 3 2 @ 3 : 4 : % f a 6 % % 3 ",
"4 s 3 3 4 > V 1 = % 3 $ 3 a $ 3 4 4 4 8 . 8 8 4 4 3 % s 3 % 8 9 % 4 4 8 2 3 3 3 s 8 % $ I U % 4 : 3 ",
"4 s @ 4 @ = *.V : 2 3 2 % f b p = % 6 h ( 8 : : 2 4 % % 3 3 = : 3 4 % 4 4 4 3 p % % s 3 f a % 8 6 : ",
"4 3 4 3 4 > 4.Z = 3 3 p + ..<.o 3 4 7 x >.A s 2 2 2 4 3 4 2 : : : 3 % : 4 4 3 4 s 8 % @ ^ [ @ s 4 % ",
"4 % 4 = 4 = , , = 3 3 3 6 g b 3 3 8 8 x ] x # 4 = : : 3 3 4 4 : 3 4 : 4 4 4 % s % % p @ c j $ p : 4 ",
"4 = 4 3 2 4 > > : 4 4 3 4 % @ 3 4 % s 9 . 7 8 % 4 : : 4 @ 4 : 4 4 4 4 % 4 g 4 : % s s +  . .o s 4 2 ",
"4 = = 2 : @ @ @ 4 @ 4 = = @ 4 = @ s # h $.h : s % 4 = = 4 @ = = @ : 4 : % % = : s : % + l j 6 8 % 4 ",
"4 @ 4 = = 4 = 3 = @ : 3 @ : 4 @ : : # D 3.J # : 4 = : 4 @ 2 % % 4 4 % : 4 d : : % % 8 o X.O.o : % = ",
"4 @ = 3 @ 4 @ @ % 2 : = @ 2 4 = : = : 9 ( w # 4 = 4 * : @ : 4 : : : : : : d : : : : 4 @ f l # : 4 = ",
": : 4 s 4 4 : : 4 4 4 : 4 : @ % % % : 8 0 0 9 % : = & +.*.  & : = : : : : 4 : : = @ : % 2 + 3 4 = 3 ",
"4 4 d 4 4 : % 4 4 4 : % : % % : % : - F 2.R # % ; >   Y @.* > : 9 : = = 5 d : = : : : 4 2 $ : % : : ",
"= @ 4 = @ @ @ @ : = 4 @ @ 3 4 : : 8 O F 5.W # : @ ; @     * : % @ % % : = > = : = @ = % @ 3 : : : @ ",
"4 @ @ @ @ @ : : % @ @ 2 @ d B 4 : : & 9 W u - : : @ 2 @ 2 : @ : % % @ @ : 5 : = : : @ : @ @ : = @ : ",
": @ @ @ @ : = 3 @ @ % @ @ 4 d 3 % : % 9 W u - : 4 @ @ 2 = = : : % @ 2 = 4 5 = 2 @ @ = : 2 @ 4 = 2 @ ",
"@ @ 4 = @ 2 @ = 4 = : = @ = = @ 3 # O T 7.~ O : @ 2 + 2 % = - : @ @ @ @ > 5 = = = @ 2 = = @ @ @ = = ",
": = 4 > : = = = @ @ = : : = = 3 : : & L 6.! & : @ @ 3 @ @ : = = 4 2 2 @ > 5 2 = 2 = : = 2 = 2 @ = 2 ",
": : 4 : = : = 2 = = : : : = = = : : = ; K r : = 2 @ @ 4 % @ 4 @ : @ @ @ 5 n = @ @ @ = 2 : : 2 @ = = ",
"2 : 2 : = 2 = = = = = = = = = = : = : % X > : = = : $ + + 2 $ : = = 3 = > m = 2 = = : : > : = @ 2 : ",
": = = : = = = = = = = = 2 : 2 = ; = : 4 : : : = = 4 o { =.+ % : = = = = > m > = = = : : : > = @ = = ",
"> = = = = = = = 2 5 = = : = = = = = % 2 @ = = = : : & T %.+ : = = : @ = > m = = 2 : = * = = 2 @ = = ",
"= = = = = > = = : 2 = = = : = : : = @ @ 4 @ @ > = ; : : O % = = * : = = < m > = = = = = > : = : = = ",
"= = = = = = = = = = =   = = = = = = = = @ = = = = = = = = = & = = = = = > n >   = = = = = = = = = & ",
"= = = = = = = = = = = = = = = = = = = = = =   = = = = = = = = = = = = = * > = = = = = = = = = = = = "
};
