/* XPM */
static char *_2a3a1e3a19e4edcb1c18b0ec65e44f9w4acIOxMTgsSxXNy[] = {
/* columns rows colors chars-per-pixel */
"50 50 145 2 ",
"   c None",
".  c #010000",
"X  c #0C0101",
"o  c #060708",
"O  c #070808",
"+  c #0B0C0C",
"@  c #130000",
"#  c #1A0000",
"$  c #0D0F10",
"%  c #0E1011",
"&  c #111314",
"*  c #141719",
"=  c #161A1B",
"-  c #1A1C1E",
";  c #240000",
":  c #300000",
">  c #390000",
",  c #1B1E21",
"<  c #1E2225",
"1  c #222323",
"2  c #22272A",
"3  c #252B2E",
"4  c #2A2C2C",
"5  c #272D30",
"6  c #282F32",
"7  c #2C3235",
"8  c #2E3639",
"9  c #363535",
"0  c #313639",
"q  c #33393B",
"w  c #3B3B3B",
"e  c #450000",
"r  c #560000",
"t  c #6C0000",
"y  c #7D0F10",
"u  c #501F21",
"i  c #353D41",
"p  c #374044",
"a  c #394146",
"s  c #3C454A",
"d  c #3F494E",
"f  c #404A4F",
"g  c #434D52",
"h  c #465156",
"j  c #475258",
"k  c #49555A",
"l  c #4B595E",
"z  c #565655",
"x  c #4F5B61",
"c  c #515D63",
"v  c #536066",
"b  c #56646B",
"n  c #58676D",
"m  c #5A686F",
"M  c #5D6C73",
"N  c #656565",
"B  c #6A6A6A",
"V  c #606F77",
"C  c #607077",
"Z  c #64747C",
"A  c #67787F",
"S  c #747474",
"D  c #797979",
"F  c #960000",
"G  c #9E0000",
"H  c #9A0809",
"J  c #A20000",
"K  c #AE0000",
"L  c #B30000",
"P  c #BA0000",
"I  c #C40000",
"U  c #CB0000",
"Y  c #D10000",
"T  c #DE0000",
"R  c #E40000",
"E  c #EC0000",
"W  c #F50000",
"Q  c #FC0000",
"!  c #6C7D85",
"~  c #6E7F88",
"^  c #6F8189",
"/  c #72848D",
"(  c #758790",
")  c #768992",
"_  c #798C96",
"`  c #7B8F98",
"'  c #7E929B",
"]  c #838383",
"[  c #8A8A8A",
"{  c #80959E",
"}  c #8397A2",
"|  c #869BA5",
" . c #899EA9",
".. c #8CA2AC",
"X. c #8FA5B1",
"o. c #90A7B2",
"O. c #93AAB5",
"+. c #96AEB9",
"@. c #98AFBB",
"#. c #99B1BD",
"$. c #9DB5C2",
"%. c #9FB8C5",
"&. c #A1BAC6",
"*. c #A4BDCA",
"=. c #A5BFCB",
"-. c #A5BFCC",
";. c #A3BDCA",
":. c #A6C0CD",
">. c #A7C1CE",
",. c #A7C2CF",
"<. c #A7C1CE",
"1. c #A8C2CF",
"2. c #A8C2CF",
"3. c #A9C3D1",
"4. c #A8C3D0",
"5. c #A9C4D1",
"6. c #ABC5D3",
"7. c #ACC6D4",
"8. c #ACC7D4",
"9. c #AAC4D1",
"0. c #ADC8D5",
"q. c #ADC8D6",
"w. c #AEC9D6",
"e. c #AEC9D7",
"r. c #AFCAD7",
"t. c #AEC9D6",
"y. c #AFCAD8",
"u. c #B0CBD9",
"i. c #B0CCD9",
"p. c #B1CDDA",
"a. c #B2CDDB",
"s. c #B2CEDB",
"d. c #B2CEDC",
"f. c #B3CFDD",
"g. c #B4CFDD",
"h. c #B2CEDB",
"j. c #B4D0DE",
"k. c #B4D0DF",
"l. c #B4D1DF",
"z. c #B5D1DF",
"x. c #B4D0DE",
"c. c #B7D3E1",
"v. c #B7D3E2",
"b. c #B6D3E1",
"n. c #B9D5E4",
/* pixels */
"                                          . . . . . . . . . . . . . . . .                           ",
"                                        7 d s s s d h j j j j j j j h d a *                         ",
"                                      + b $.$.$.#.%.a.z.z.z.z.z.v.j.j.=.o.3 +                       ",
"                                  . i ' #.y.y.y.u.u.f.z.z.f.z.f.j.j.j.y.8. .! + .                   ",
"                                < g ! :.q.z.j.j.f.z.f.z.f.z.f.z.j.j.j.j.f.9.+.x s                   ",
"                              . 5 +.*.z.j.j.j.j.z.f.z.f.z.f.z.f.j.j.j.j.j.v.y.%./ o .               ",
"                              . 3 +.-.z.j.j.j.j.f.z.f.z.f.z.f.z.j.j.j.j.j.j.y.%.! . .               ",
"                            * g j j / z.j.j.j.j.z.f.z.f.z.f.z.f.j.j.j.j.j.j.f.,.o.v s .             ",
"                          . * ' A . g y.f.j.j.j.f.z.f.z.f.z.f.z.j.j.j.j.j.j.b.f.q.$.M .             ",
"                          . * ' A . s $.,.j.j.j.z.f.z.f.z.f.z.f.j.j.j.j.j.j.f.k.q.$.M .             ",
"                          . * ' A . s #.4.v.z.j.f.z.f.z.f.z.f.z.j.j.j.j.j.j.j.f.q.$.M .             ",
"                          . * } ! . 8 ' | o.:.v.z.f.z.f.z.f.z.f.j.j.j.j.j.j.j.b.q.$.M .             ",
"                          . = ../ o . + + + _ v.f.z.f.z.f.z.f.z.j.j.j.j.z.f.z.g.8.$.M .             ",
"                          . = .. .n b b 6 . ! :.a.f.z.f.z.f.z.f.j.j.j.9.-.-.,.g.q.$.M .             ",
"                          . = ..@.X.....g . Z $.q.j.f.z.f.z.f.z.j.y.7.| / / ' 4.4.$.M .             ",
"                          . = ..#.#.O...g . Z #.q.j.z.f.z.f.z.f.f.=.O.8 X o 1 ..#.#.M .             ",
"                          . * { O.#.+.+.j . < i | :.a.j.j.j.j.9.%.M 8 y G K H 9 l #.M .             ",
"                          . * _ ..#.#.$.M 3 + o ( %.a.z.j.a.q.=.$.s . J E Q R r u ! l .             ",
"                          . * _  .#.#.#.X.| 8 o / @.9.q.q.:.+.O.O.s . J R W Q Q L o .               ",
"                              < g O.#.#.o.| 8 . < 7 8 8 8 7 5 5 5 % X J E Q Q Q P X .               ",
"                              . 3 O.#.#.X.| 8 . . . . . . . . . . . . t F J L W P X .               ",
"                  O O + O O + o 8 O.#.#.X. .8 . . . X X X X @ X X X X X . . ; T K X .               ",
"                . h ! ! ! ! ! ! ) #.#.#.O...q . . @ K U U I U U U U I > . . X : ; . .               ",
"                . c ..........o.O.#.#.$./ x < . e t R W W W W W W W E e . . . . . . .               ",
"                + l { ' ' ' { ........X.g . . X J Y U U U Y U U Y U U > . . . . . . X               ",
"            . a ) s * * = * = = , , - - + . . . # ; ; ; ; ; ; ; ; ; ; X . . . . .           . X     ",
"            . < l < . . . . . . . . . . . . 1 w q 9 9 4 . . . . . . . . . . . . .           + + o   ",
"            * * & o . $ * * * % & % + . O $ z D D D D N * % % & % % + + + . . . o + $ $ $ + - 1 o . ",
"        . 8 } |  .i . M  .| | _ ) _ l . w B S D D D D D D D D D D S B B N & . . 1 S S B B B 9 - o . ",
"        . 8 O./ j b Z O.,.$.#.O.O...b . w D ] ] ] ] ] ] [ [ ] ] ] z 9 w w g s o 1 [ [ ] ] D w 1 o . ",
"        . 2 / k * / n.v.f.$.+.} ' ) h . 9 N S S S S S S S S N N N 9 * * < ) ) + - S S S B N 9 - o . ",
"        . o + h ..=.j.j.f.%.| , + + O . X + + + + + + + + + + + + n X. ...../ + X + + + + O o . . . ",
"          . . < d _ :.f.z.&.X.n s . . . . . . . . . . . . . . . . A q.&.$.@.' + .                   ",
"            . . . h ' ..X.' _ / c o . . . . . . . . . . . . . . . b O.{ _ _ ! + .                   ",
"            . . . O + + + + + O o . . . . . . . . . . . . . . . . O + + + + +                       ",
"            . q ( / / / / / Z O . . . . . . . . . . . . . . . . . g ( M x % .                       ",
"            7 ! n.v.v.v.v.v.&.i - . . . . . . . . . . . . . . * 7 ' n.#.' = .                       ",
"        . p 9.y.j.z.z.g.b.f.y.#.! o . . . . . . . . . . . . . c y.a.a.+.' = .                       ",
"        . a a.z.j.1.&.u.f.-.%.%./ o . . . . . . . . . . . 5 _ +.v.9.&.o.' = .                       ",
"        . p a.f.z.4.&.4.9.$.o./ b o . . . . . . . . . . . s v.f.8.$.O.^ m = .                       ",
"        o s f.f.j.f.j.&.#.+.' % .           . . . . . . o d a.:.#.o.| 5 .                           ",
"    . 2 } +.f.z.v.:.%.$.o.s 3               . . . . . < { ..+.O.X...| 5 .                           ",
"    . = !  .z.y.9.&.#.#.X.- .               . . . . . = / ! b n b m v = .                           ",
"    O + o s 1.%.o.o.o.o.| , .               . . o O + O . o + + + + + o .                           ",
". % C / _ M 5 2 < < < < <                   . o v ^ _ Z o 8 ..o.o.O...5 .                           ",
". % ' O.+.A . . . < i % .                   . o / +.+.( o a z.z.v.y.,.m q *                         ",
". & _ ..' m * % % b ..8 +                   . + ^ ..' A * g f.8.=.$.@...' - .                       ",
"    - * * d #.X.| X.#.' ! - .                   = = * 0 O.*.n./ = C o...' = .                       ",
"      . . < M m c c c l g $ . .                   . . * m V M i . 7 k j g + . .                     ",
"        . . . . . . . . . . . . .                   . . . . . . . . . . . . . . .                   "
};
