/* XPM */
static char *_630673373978[] = {
/* columns rows colors chars-per-pixel */
"50 50 2 1 ",
"  c #C30303",
". c None",
/* pixels */
"..................................................",
"..................................................",
"..................................................",
"..................................................",
"..................................................",
"..................................................",
"..................................................",
"..................................................",
"..................................................",
"..................................................",
"..................................................",
"..................................................",
"..................................................",
"..................................................",
"..................................................",
"..................................................",
"..................................................",
"..................................................",
".........................      ...................",
"........................        ..................",
"..................              ..................",
".................               ..................",
".................               ..................",
".................               ..................",
".................               ..................",
"................. .            ...................",
"..................             ...................",
"..................             ...................",
"...................           ....................",
".....................        .....................",
"......................       .....................",
"........................    ......................",
"..................................................",
"..................................................",
"..................................................",
"..................................................",
"..................................................",
"..................................................",
"..................................................",
"..................................................",
"..................................................",
"..................................................",
"..................................................",
"..................................................",
"..................................................",
"..................................................",
"..................................................",
"..................................................",
"..................................................",
".................................................."
};
