/* XPM */
static char *_630672137424[] = {
/* columns rows colors chars-per-pixel */
"50 50 127 2 ",
"   c #0D474F",
".  c #0D484F",
"X  c #0D4750",
"o  c #0E4951",
"O  c #114D55",
"+  c #14545C",
"@  c #1D555D",
"#  c #18585F",
"$  c #165760",
"%  c #195A62",
"&  c #1A5F69",
"*  c #215B63",
"=  c #1E6067",
"-  c #1C626B",
";  c #1F6973",
":  c #23676D",
">  c #286269",
",  c #246C74",
"<  c #226E79",
"1  c #25737E",
"2  c #2C747A",
"3  c #267681",
"4  c #297C87",
"5  c #327D83",
"6  c #497B81",
"7  c #2C828E",
"8  c #358187",
"9  c #36858D",
"0  c #38868B",
"q  c #2F8794",
"w  c #3B8C92",
"e  c #328D9A",
"r  c #3F9096",
"t  c #3C9098",
"y  c #3593A0",
"u  c #3898A6",
"i  c #3B9EAC",
"p  c #3CA1AF",
"a  c #3FA4B2",
"s  c #4F878E",
"d  c #409297",
"f  c #41969C",
"g  c #659498",
"h  c #449BA3",
"j  c #489EA3",
"k  c #549CA0",
"l  c #47A0A8",
"z  c #4BA5AC",
"x  c #40A6B4",
"c  c #41A8B7",
"v  c #4DAAB2",
"b  c #42ABBA",
"n  c #54AEB2",
"m  c #55B0B4",
"M  c #53B3BB",
"N  c #59B6B9",
"B  c #60ADB7",
"V  c #61BBBE",
"C  c #47B3C2",
"Z  c #49B7C6",
"A  c #4AB9C9",
"S  c #57B9C1",
"D  c #5BBDC4",
"F  c #54BDCC",
"G  c #58BFCD",
"H  c #5CC1CB",
"J  c #62C2C5",
"K  c #63C5C9",
"L  c #66C9CC",
"P  c #63C4D1",
"I  c #6AC7D3",
"U  c #66CBD3",
"Y  c #6BCCD3",
"T  c #73CBD6",
"R  c #7BCFD9",
"E  c #6CD1D4",
"W  c #66D0D8",
"Q  c #6AD6DE",
"!  c #70D7DA",
"~  c #7ED0DA",
"^  c #73DCDE",
"/  c #6BD8E0",
"(  c #75DDE1",
")  c #7ADBE2",
"_  c #76E0E2",
"`  c #7BE1E3",
"'  c #8EB6B8",
"]  c #9FC7C8",
"[  c #95CACD",
"{  c #84D3DC",
"}  c #A0C5C7",
"|  c #A7DADC",
" . c #83DEE4",
".. c #92D9E1",
"X. c #9ADDE3",
"o. c #A0DFE5",
"O. c #83E3E5",
"+. c #8CE3E6",
"@. c #93E3E7",
"#. c #92E7E8",
"$. c #9DE6EA",
"%. c #9EEAEB",
"&. c #A3E0E6",
"*. c #A8E2E7",
"=. c #A1E7EB",
"-. c #ABE5EA",
";. c #A4EAEC",
":. c #ABECED",
">. c #B0E6EA",
",. c #B4EDEE",
"<. c #BCEBEE",
"1. c #B6EFF1",
"2. c #BAEFF0",
"3. c #B4F0F0",
"4. c #BCF1F1",
"5. c #C1EDEF",
"6. c #C9EFEF",
"7. c #C5EFF1",
"8. c #C4F2F2",
"9. c #CCF4F4",
"0. c #D3F6F6",
"q. c #D7F8F7",
"w. c #D8F8F7",
"e. c #D7F9F9",
"r. c #DCF9F8",
"t. c #E1FDFC",
"y. c None",
/* pixels */
"y.y.y.y.y.y.y.y.y.y.y.y.y.y.y.y.y.y.y.y.y.y.y.o o . . o o y.y.y.y.y.y.y.y.y.y.y.y.y.y.y.y.y.y.y.y.y.",
"y.y.y.y.y.y.y.y.y.y.y.y.y.y.y.y.y.y.y.y.y.o o o + & # O . o y.y.y.y.y.y.y.y.y.y.y.y.y.y.y.y.y.y.y.y.",
"y.y.y.y.y.y.y.y.y.y.y.y.y.y.y.y.y.y.y.o . . % d V E L N 5 O . o y.y.y.y.y.y.y.y.y.y.y.y.y.y.y.y.y.y.",
"y.y.y.y.y.y.y.y.y.y.y.y.y.y.y.y.y.o o   # r L _ _ _ _ _ ^ n : o o y.y.y.y.y.y.y.y.y.y.y.y.y.y.y.y.y.",
"y.y.y.y.y.y.y.y.y.y.y.y.y.y.y.. o   + 0 J _ _ _ _ _ _ _ _ _ E w + o O y.y.y.y.y.y.y.y.y.y.y.y.y.y.y.",
"y.y.y.y.y.y.y.y.y.y.y.y.y.o . O % 8 D ( ` _ _ _ _ _ _ _ _ _ _ ( N , .   o y.y.y.y.y.y.y.y.y.y.y.y.y.",
"y.y.y.y.y.y.y.y.y.y.y.o o o % d L ^ ` _ _ _ _ _ _ _ _ _ _ _ _ _ _ E d @ . o y.y.y.y.y.y.y.y.y.y.y.y.",
"y.y.y.y.y.y.y.y.y.o o   % d L _ _ _ _ _ _ _ _ _ _ _ _ _ _ _ _ _ _ _ _ D 2 O . O y.y.y.y.y.y.y.y.y.y.",
"y.y.y.y.y.y.y.o o . % w L _ _ _ _ _ _ _ _ _ _ _ _ _ _ _ _ _ _ _ _ _ _ _ ! l % . o y.y.y.y.y.y.y.y.y.",
"y.y.y.y.y.o o . % w L _ _ _ _ _ _ _ _ ^ _ _ _ _ _ _ _ _ _ _ _ _ _ _ _ _ _ _ J 5 O   O y.y.y.y.y.y.y.",
"y.y.y.o o . % w L _ _ _ _ _ _ _ _ _ _ _ _ _ _ _ _ _ _ _ _ _ _ ^ _ _ _ _ _ _ _ ^ z >     y.y.y.y.y.y.",
"y.y.o o + w K _ _ _ _ _ _ _ _ _ _ _ _ _ _ _ _ _ _ _ _ _ _ _ _ _ ( _ _ _ _ _ _ _ _ L 0 O   O y.y.y.y.",
"y.o X > V ( _ _ _ _ _ _ _ _ _ _ _ _ _ _ _ _ _ _ _ _ _ _ _ _ _ _ _ _ _ _ _ _ _ _ _ _ ^ m : o o y.y.y.",
"y.o @ } :.` _ _ _ _ _ _ _ _ _ _ _ _ _ _ _ _ _ _ _ _ _ _ _ _ _ _ _ _ _ _ _ _ _ _ _ _ _ _ E w O o y.y.",
"o o g r.e.:.` _ _ _ _ _ _ _ _ ( _ _ _ _ _ _ _ _ _ _ _ _ _ _ _ _ _ _ _ _ _ _ _ _ _ _ _ _ _ ( k O o y.",
"o O m >.9.r.8.+._ _ _ _ _ _ _ _ _ _ _ _ _ ( _ _ _ _ _ _ _ _ _ _ _ _ _ _ _ _ _ _ _ _ _ _ _ :.6.6   o ",
"o + b A P ..<.9.:.` _ ( _ _ _ _ _ _ _ _ _ _ _ _ _ _ _ _ _ _ _ _ _ _ _ _ _ _ _ _ _ _ _ +.2.e.t.' o o ",
"o $ b A A A H ~ >.8.;.O._ _ _ _ _ _ _ _ _ _ _ _ _ _ _ _ _ _ _ _ _ _ _ _ _ _ _ _ _ ` ;.0.r.r.e.[ + o ",
"o + b A A A Z Z A T o.,.;.O._ ( _ _ _ _ _ _ _ _ _ _ _ _ _ _ _ _ _ _ _ _ _ _ _ ` %.8.r.r.0.1.+.K + . ",
"o + a A A A A A A A A I $.8.1.#.` _ _ _ _ _ _ _ _ _ _ _ _ _ _ _ _ _ _ _ _ ` ;.8.r.r.0.:.) Q / D + o ",
"o + b A A A A A A A A A A I *.0.8.;.O._ _ _ _ _ _ _ _ _ _ _ _ _ ( _ _ +.:.9.r.r.8.;.( Q Q Q / G +   ",
"o + b A A A A A A A A A A Z A T <.r.0.,.%.+.O.` _ _ _ _ _ _ ` O.@.:.8.q.r.w.1.@.( Q Q Q Q Q / D + o ",
"o + b A A A A A A A A A A A A Z G X.w.r.w.q.0.9.4.3.:.>.3.4.8.0.w.t.r.9.:. .Q Q Q Q Q Q Q Q / S O   ",
"o $ b A A A A A A A A A A A A A A A { 0.r.r.w.r.r.r.r.r.r.r.r.r.0.1.$.) Q Q Q Q Q Q Q Q Q Q / N O O ",
"o + b A A A A A A A A A A A A A A A A { 0.r.r.r.w.r.w.r.r.q.8.;. .Q Q Q Q Q Q Q Q Q Q Q Q Q / M O O ",
"o + b A A A A A Z A A A A A A A A A A A ..e.r.r.r.r.r.q.,...( Q Q Q Q Q Q Q Q Q Q Q Q Q Q Q / M O   ",
"o + b A A A A A A A A A A A A A A A A A G <.r.r.w.r.9.+.Q Q Q Q Q Q Q Q Q Q Q Q Q Q Q Q Q Q / n O   ",
"o + b A A A A A A A A A A A A A A A A A A R e.e.r.9. .Q Q Q Q Q Q Q Q Q Q Q Q Q Q Q Q Q Q Q / v O   ",
"o + b A A A A A A A A A A A A A Z A A A A F 7.r.e.$.Q Q Q Q Q Q Q Q Q Q Q Q Q Q Q Q Q Q Q Q / z   O ",
"o + b A A A A A A A A A A A A A A A A A A A X.r.9.) Q Q Q Q Q Q Q Q Q Q Q Q Q Q Q Q Q Q Q Q / z o o ",
"o + b A A A A A A A A A A Z A A A A A A A Z { r.8.Q Q Q Q Q Q Q Q Q Q Q Q Q Q Q Q Q Q Q Q Q / j o o ",
"o + b A A A A A A A A A A A A A A A A A A Z I w.,.Q Q Q Q Q Q Q Q Q Q Q Q Q Q Q Q Q Q Q Q / / h   O ",
"o + c A A A A A A A A A A A A A A A A A A Z P 9.:.Q Q Q Q Q Q Q Q Q Q Q Q Q Q Q Q Q Q Q Q Q Q h o o ",
"o + c A A A A A A A A A A A A A A A A A A Z F 7.-./ Q Q Q Q Q Q Q Q Q Q Q Q Q Q Q Q Q Q Q Q / t o o ",
"o O i A A A A A A A A A A A A A A A A A A Z F 7.=.Q Q Q Q Q Q Q Q Q Q Q Q Q Q Q Q Q Q Q Q Q / t   o ",
"o o q A A A A A A A A A A A A A A A A A A A A 2.$.Q Q Q Q Q Q Q Q Q Q Q Q Q Q Q Q Q Q Q Q / / 9 o o ",
"y.o - b A A A A A A A A A A A A A Z A A A A A <.$./ Q Q Q Q Q Q Q Q Q Q Q Q Q Q Q Q Q Q Q / W ,   y.",
"y.o o < a A A A A A A A A A A A A A A A A A F >.$.Q Q Q Q Q Q Q Q Q Q Q Q Q Q Q Q Q Q Q Q / l O o y.",
"y.y.o o + 3 a A A A A A A A A A A A A A A A F <.$.Q Q Q Q Q Q Q Q Q Q Q Q Q Q Q Q Q Q / W v $ X y.y.",
"y.y.y.o     + 4 c A A A A A A A A A A A A A F <.$.Q Q Q Q Q Q Q Q Q Q Q Q Q Q Q Q / Q S 9 +   O y.y.",
"y.y.y.y.y.o o o $ 7 b A A A A A A A A A A A G 7.$.Q Q Q Q Q Q Q Q Q Q Q Q Q Q / Q D 9 + X o y.y.y.y.",
"y.y.y.y.y.y.y.o o X & q b A A A A A A A A Z G 8.$.Q Q Q Q Q Q Q Q Q Q Q Q / Q D 9 +   o o y.y.y.y.y.",
"y.y.y.y.y.y.y.y.y.o o o - e Z A A A A A A A H 9.$.Q Q Q Q Q Q Q Q Q Q Q Q D 9 % X X o y.y.y.y.y.y.y.",
"y.y.y.y.y.y.y.y.y.y.y.o o o - y Z A A A A A I e.$.Q Q Q Q Q Q Q Q Q Q G 9 %   o O y.y.y.y.y.y.y.y.y.",
"y.y.y.y.y.y.y.y.y.y.y.y.y.o o O ; u Z A A A R r.;.Q Q Q Q Q Q Q Q D w % o o o y.y.y.y.y.y.y.y.y.y.y.",
"y.y.y.y.y.y.y.y.y.y.y.y.y.y.y.o X O < i Z A { r.:.Q Q Q Q Q Q H w % X o o y.y.y.y.y.y.y.y.y.y.y.y.y.",
"y.y.y.y.y.y.y.y.y.y.y.y.y.y.y.y.y.o   + 1 a X.t.1.Q Q / Q H w % o o o y.y.y.y.y.y.y.y.y.y.y.y.y.y.y.",
"y.y.y.y.y.y.y.y.y.y.y.y.y.y.y.y.y.y.y.X o O s } | U H v 9 % o o o y.y.y.y.y.y.y.y.y.y.y.y.y.y.y.y.y.",
"y.y.y.y.y.y.y.y.y.y.y.y.y.y.y.y.y.y.y.y.o o X O * = % O   X o y.y.y.y.y.y.y.y.y.y.y.y.y.y.y.y.y.y.y.",
"y.y.y.y.y.y.y.y.y.y.y.y.y.y.y.y.y.y.y.y.y.y.o o o o o o o y.y.y.y.y.y.y.y.y.y.y.y.y.y.y.y.y.y.y.y.y."
};
