/* XPM */
static char *_630673857975[] = {
/* columns rows colors chars-per-pixel */
"50 45 66 1 ",
"  c #000102",
". c #00040B",
"X c #01090E",
"o c #000614",
"O c #010C14",
"+ c #000A1B",
"@ c #01111C",
"# c #000C20",
"$ c #000E2A",
"% c #011325",
"& c #001927",
"* c #01132C",
"= c #011C2C",
"- c #001134",
"; c #021C33",
": c #00153B",
"> c #012033",
", c #001643",
"< c #001A43",
"1 c #001A4B",
"2 c #001D50",
"3 c #012A43",
"4 c #02254E",
"5 c #022C4C",
"6 c #01304C",
"7 c #002055",
"8 c #032B53",
"9 c #00235B",
"0 c #032A5B",
"q c #023356",
"w c #03345C",
"e c #01395C",
"r c #002761",
"t c #002966",
"y c #002B6B",
"u c #023661",
"i c #023C63",
"p c #023E69",
"a c #002E72",
"s c #003077",
"d c #00327D",
"f c #02426B",
"g c #024673",
"h c #014875",
"j c #014C7C",
"k c #003584",
"l c #00378C",
"z c #01388E",
"x c #003A93",
"c c #003B98",
"v c #014F80",
"b c #015386",
"n c #01558A",
"m c #01588E",
"M c #015C94",
"N c #015F9A",
"B c #01629F",
"V c #0166A4",
"C c #0167A8",
"Z c #006AAB",
"A c #006EB1",
"S c #0070B5",
"D c #0073BB",
"F c #0077C1",
"G c #0079C5",
"H c None",
/* pixels */
"HHHHHHHHHHHHHHHHHHHHHHHHHHHHHHHHHHHHHHHHHHHHHHHHHH",
"HHHHHHHHHHHHHHHHHHHHHHHHHHHHHHHHHHHHHHHHHHHHHHHHHH",
"HHHHHHHHHHHHHHHHHHHHHHHHHHHHHHHHHHHHHHHHHHHHHHHHHH",
"HHHHHHHHHHHHHHHHHHHHHHHHHHHHHHHHHHHHHHHHHHHHHHHHHH",
"HHHHHHHHHHHHHHHHHHHHHHHHHHHHHHHHHHHHHHHHHHHHHHHHHH",
"HHHHHHHHHHHHHHHHHHHHHHHHHHHHHHHHHHHHHHHHHHHHHHHHHH",
"HHHHHHHHHHHHHHHHHHHHHHHHHHHHHHHHHHHHHHHHHHHHHHHHHH",
"HHHHHHHHHHHHHHHHHHHHHHHHHHHHHHHHHHHHHHHHHHHHHHHHHH",
"HHHHHHHHHHHHHHHHHHHHHHHHHHHHHHHHHHHHHHHHHHHHHHHHHH",
"HHHHHHHHHHHHHHHH  .XO%=====%@X.  HHHHHHHHHHHHHHHHH",
"HHHHHHHHHHHHH O=5fnNCASSDDSAZBngq>O. HHHHHHHHHHHHH",
"HHHHHHHHHH O3gBSFGGGFFFDDDDFFGGGFDVv6@ HHHHHHHHHHH",
"HHHHHHHH &iBDGFDZBbhfiwwwwuifgvMVAFGGCh;XHHHHHHHHH",
"HHHHHHH@fZGFZnf000ysklzzzzzlksat00pjBDGSj= HHHHHHH",
"HHHHH 3BGSnu8tdlccccccccccccccccxzdy0wjCGZeXHHHHHH",
"HHHH.eDSj80dxxxxzxxxzzzczzxzzzzzxxxxxky8fZDhOHHHHH",
"HHH.fDn8rkzzzzlllzzzzzzzzzzzzzzzlzlzzzxlt4hDjOHHHH",
"HHH5Zf7slkkkkkkkkkkkkkkkkkkkkkkklkkkkkkklk0qCf.HHH",
"HH+Mf8kkkkkkkkkkkkkkkkkkkkkkkkkkkkkkkkkkkkky5N>HHH",
"HH5p8ddkddddkddkddkdddddkddddddkdddkdkdddddktqf HH",
"H q5dddddddsdsddddddddddsdddddddddddddsdsdddd05OHH",
"H &tsaassssssssssssasasssssaassasaasasssssdaaa;.HH",
"H $aaaaaaaaaaaaaaaaaaaaaaaaaaaaaaaaaaaaaaaaaaa< HH",
"H *yayyyayyyyayyyyayayyyayayyyayayyyyayayyyaya1 HH",
"H %ttyyyyyyytyyyyyyyyytyyyyyyyytyyyyyyyyyytyty< HH",
"HHo0tttttrtttttrttrtttttttttttttttrttrtrtttttt% HH",
"HH :rrrrrrrrrrrrrrrrrrrrrrrtrtrrrrrrrrrrrrrrr2.HHH",
"HHH.19r99r99r99rr999r99r9999999999r9r9r9r9990+HHHH",
"HHHHo<9999999r992999999999999997992999992992+ HHHH",
"HHHH .:22229222292929222272777729292727792<+ HHHHH",
"HHHHHH #,22222222222222222222222222222221$. HHHHHH",
"HHHHHHH .#:112211111111211121111112111:*. HHHHHHHH",
"HHHHHHHHH  o*:,111,111111,1111,111,:$+.  HHHHHHHHH",
"HHHHHHHHHHH   o+$-:::,,,,,,,,::-$#o.  HHHHHHHHHHHH",
"HHHHHHHHHHHHHH     .oooo+oooo.      HHHHHHHHHHHHHH",
"HHHHHHHHHHHHHHHHHH              HHHHHHHHHHHHHHHHHH",
"HHHHHHHHHHHHHHHHHHHHHHHHHHHHHHHHHHHHHHHHHHHHHHHHHH",
"HHHHHHHHHHHHHHHHHHHHHHHHHHHHHHHHHHHHHHHHHHHHHHHHHH",
"HHHHHHHHHHHHHHHHHHHHHHHHHHHHHHHHHHHHHHHHHHHHHHHHHH",
"HHHHHHHHHHHHHHHHHHHHHHHHHHHHHHHHHHHHHHHHHHHHHHHHHH",
"HHHHHHHHHHHHHHHHHHHHHHHHHHHHHHHHHHHHHHHHHHHHHHHHHH",
"HHHHHHHHHHHHHHHHHHHHHHHHHHHHHHHHHHHHHHHHHHHHHHHHHH",
"HHHHHHHHHHHHHHHHHHHHHHHHHHHHHHHHHHHHHHHHHHHHHHHHHH",
"HHHHHHHHHHHHHHHHHHHHHHHHHHHHHHHHHHHHHHHHHHHHHHHHHH",
"HHHHHHHHHHHHHHHHHHHHHHHHHHHHHHHHHHHHHHHHHHHHHHHHHH"
};
