/* XPM */
static char *_74bbdd4d1ef4c2380f9f813df11ef26LY1KktO8nfc4A8Ok[] = {
/* columns rows colors chars-per-pixel */
"50 50 147 2 ",
"   c None",
".  c #010103",
"X  c #060608",
"o  c #06090E",
"O  c #0A0A0D",
"+  c #050A13",
"@  c #0C0E12",
"#  c #050D19",
"$  c #0A0F1A",
"%  c #0D1015",
"&  c #0D151D",
"*  c #111215",
"=  c #13161B",
"-  c #16181E",
";  c #1A1A1C",
":  c #3B2E01",
">  c #0B1622",
",  c #0F1A25",
"<  c #0F1C28",
"1  c #111B25",
"2  c #1D1E21",
"3  c #111D29",
"4  c #15212D",
"5  c #1A232D",
"6  c #1C2630",
"7  c #1E2934",
"8  c #232325",
"9  c #26272A",
"0  c #26282C",
"q  c #2A2B2C",
"w  c #2F3134",
"e  c #273139",
"r  c #29323A",
"t  c #343A3F",
"y  c #3C3C3D",
"u  c #333438",
"i  c #765C01",
"p  c #2B3640",
"a  c #2E3943",
"s  c #333C44",
"d  c #3F4145",
"f  c #36404A",
"g  c #39424A",
"h  c #434344",
"j  c #444D54",
"k  c #4B4E51",
"l  c #4C545B",
"z  c #555659",
"x  c #57585E",
"c  c #515962",
"v  c #585E65",
"b  c #5B626A",
"n  c #5F6771",
"m  c #606162",
"M  c #656768",
"N  c #68686A",
"B  c #6A6B70",
"V  c #656C73",
"C  c #6E7171",
"Z  c #6D737A",
"A  c #717374",
"S  c #71777D",
"D  c #747A7E",
"F  c #7A7D7E",
"G  c #CB000E",
"H  c #CD0513",
"J  c #CE0A17",
"K  c #CE0D19",
"L  c #CF111D",
"P  c #D01722",
"I  c #D11A24",
"U  c #D3232C",
"Y  c #8B6D05",
"T  c #927206",
"R  c #947508",
"E  c #A58002",
"W  c #DFAC00",
"Q  c #DDAF15",
"!  c #E0AE04",
"~  c #E3B104",
"^  c #E2B418",
"/  c #DEB833",
"(  c #D4B239",
")  c #E3B821",
"_  c #E4BA2C",
"`  c #E6BF37",
"'  c #E7C13B",
"]  c #B5AA77",
"[  c #CAAE46",
"{  c #D2B242",
"}  c #EBCC5E",
"|  c #EACA56",
" . c #DFC460",
".. c #EDD16C",
"X. c #EED270",
"o. c #727A81",
"O. c #7C7D81",
"+. c #7D8283",
"@. c #7C8389",
"#. c #818384",
"$. c #848B92",
"%. c #949494",
"&. c #919599",
"*. c #94999D",
"=. c #9B9D9E",
"-. c #9CA09F",
";. c #959AA0",
":. c #989DA3",
">. c #9EA1A2",
",. c #A1A4A4",
"<. c #A4A8A7",
"1. c #A1A4A8",
"2. c #A6A9AA",
"3. c #ABADAE",
"4. c #ABACA2",
"5. c #ACAFB3",
"6. c #B3B4B4",
"7. c #BAB9B7",
"8. c #B6BABC",
"9. c #BBBBBB",
"0. c #DACC94",
"q. c #F1DC8F",
"w. c #F2DE94",
"e. c #F4E3A4",
"r. c #F5E5AD",
"t. c #BEC2C5",
"y. c #C3C6C6",
"u. c #C6C8C9",
"i. c #CACBCB",
"p. c #D8D6CA",
"a. c #D2D4D4",
"s. c #D7D8D9",
"d. c #DADBDB",
"f. c #E3E3E4",
"g. c #E6E7E8",
"h. c #EBECEC",
"j. c #FDF9ED",
"k. c #FDFAED",
"l. c #F2F2F2",
"z. c #F3F3F4",
"x. c #FEFCF7",
"c. c #F9F9F9",
"v. c #FEFEFB",
"b. c white",
"n. c #FEFEFE",
"m. c #FEFEFD",
"M. c #FFFFFF",
/* pixels */
"                                          &.                                                        ",
"                        = = 3 4 4 4 4 4 5 s F #.                                                    ",
"                    @ O > 1 3 < 1 1 , 1 ; 2 9 9 5                                                   ",
"              ; @ = > 1 1 3 < 1 * * @ A a.a.a.a.z @ u                                               ",
"            = = > > 3 3 3 3 & w 6.7.7.f.n.n.n.n.a.*.F >.                                            ",
"          8 = , 3 3 3 3 3 % s 6.m.n.n.n.n.n.n.n.n.l.i.=.<.                                      P U ",
"          @ , < 3 3 3 3 = k 6.n.n.n.n.n.n.n.n.n.n.n.l.i.,.<.                            H G P L G K ",
"        w & , 3 3 3 3 < o %.n.n.n.n.n.n.n.n.n.n.n.n.n.c.i.2.2.                          G G G G G K ",
"      0 & 3 3 3 3 3 3 > 9 ,.n.l.7.6.6.7.i.n.n.n.n.n.n.c.7.#.N +.                        L H G G H P ",
"    q % 3 < 3 3 3 3 1 % A a.h.,.@ X X . h a.c.n.n.n.l.6.2 X X *                           I H J U   ",
"    q % 3 3 3 3 3 3 1 O A d.<.* . . @ ; ; h h.n.n.n.y.= . . O ; O                           P       ",
"  * = 3 3 3 3 3 3 1 1 % A d.=.. . . %.a.=.m h.n.n.n.7.X . . A %.h                                   ",
"  O % 3 3 3 3 3 3 3 1 O A d.=.. . . 5.=.q y h.n.n.v.7.O . . 2 q ;                                   ",
"  O % 3 3 3 3 3 3 3 1 % A d.=.. . . y q . 9 g.n.w.| { R T T : . .                                   ",
"  = & 3 3 3 3 3 3 3 1 @ A s.p.N . . . . 8 %.l.n.} W W ~ ~ ! E i Y Q ^                               ",
"O > 3 3 3 3 3 3 3 3 > % A s.m.d.C N N N =.n.n.n.} W ) ..X.X.X.} [ _ _                               ",
"O > 3 3 3 3 3 3 3 3 1 @ A s.n.n.n.n.n.n.n.n.n.n.q._ _ e.r.r.r.0.]                                   ",
"O > 3 3 3 3 3 3 3 3 , % A a.n.n.n.n.n.n.n.n.n.n.v.e.` ' ' ' ` ` (                                   ",
"O & 3 3 3 3 3 3 3 3 3 4 D s.n.n.n.n.n.n.n.n.n.n.n.x.k.k.k.k.x.p.4.                                  ",
"O & 3 3 3 3 3 3 3 3 3 4 D a.n.n.n.n.n.n.n.n.n.n.n.n.n.n.n.n.n.a.3.                                  ",
"O > 3 3 3 3 3 3 3 3 3 4 D a.n.n.n.n.n.n.n.n.n.n.n.n.n.n.n.n.n.d.<.                                  ",
"O & 3 3 3 3 3 3 3 3 3 4 D s.n.n.n.n.n.n.n.n.n.n.n.n.n.n.n.n.n.d.,.                                  ",
"O > 3 3 3 3 3 3 3 3 < 4 D a.n.n.n.n.n.n.n.n.n.n.n.n.n.n.n.n.n.d.,.                                  ",
"O = 3 3 3 3 3 3 3 3 , 3 j 8.n.n.n.n.n.n.n.n.n.n.n.n.n.n.n.n.n.s.,.                                  ",
"O & 3 3 3 3 3 3 3 3 3 < > ;.n.n.n.n.n.n.n.n.n.n.n.n.n.n.n.n.n.d.,.                                  ",
"O & 3 3 3 3 3 3 3 3 3 3 < o.d.n.n.n.n.n.n.n.n.n.n.n.n.n.n.n.n.d.=.                                  ",
"O & 3 3 3 3 3 3 3 3 3 3 3 > Z n.n.n.n.n.n.n.n.n.n.n.n.n.n.n.n.d.F =                                 ",
"O > 3 3 3 3 3 5 6 3 3 3 3 + c l.n.n.n.n.n.n.n.n.n.n.n.n.n.n.n.d.F @ 1                               ",
"O > 3 3 3 3 3 6 6 3 3 3 < > 3 M l.n.n.n.n.n.n.n.n.n.n.n.n.n.n.d.F @ > t                             ",
"O & 3 3 3 3 < l j 5 3 3 3 3 # t h.n.n.n.n.n.n.n.n.n.n.n.n.n.n.d.D @ > 4                             ",
"O & 3 3 3 3 3 b M 7 3 3 3 3 > 3 N g.n.n.n.n.n.n.n.n.n.n.n.n.n.d.F @ > >                             ",
"O & 3 < 3 < 3 f s 3 3 3 3 3 3 > & Z s.n.n.n.n.n.n.n.n.n.n.n.n.d.F @ > > 4                           ",
"O & 4 4 3 3 3 < e g 4 3 3 4 < < > # 5.n.n.n.n.n.n.n.n.n.n.n.n.d.F @ > > 1 r                         ",
"O > < < 3 3 3 < f b s 5 3 1 3 < , + O.d.n.n.n.n.n.n.n.n.n.n.n.d.O.@ > > 1 r                         ",
"O & 1 4 < < 4 < 3 s S r 4 < < 4 < > o B f.n.n.n.n.n.n.n.n.n.n.d.F @ > > 3 r                         ",
"O & < < 4 1 < 3 < p Z s 7 4 < < 3 < + # n c.n.n.n.n.n.n.n.n.n.d.F 1 , > 3 r                         ",
"O & 3 3 4 < 3 3 < 4 p V Z g 7 4 3 < > # c m.n.n.n.n.n.n.n.n.n.d.%.O.e > 4 e                         ",
"% & 3 3 < < 3 3 3 < 4 p a x l 5 , & + + v c.n.n.n.n.n.n.n.n.n.s.,.  @.p 3 r                         ",
"O & 4 3 4 1 4 3 3 3 < < , @.u.5.2.1.>.1.t.n.n.n.n.n.n.n.n.n.n.d.,.                                  ",
"O & < 3 < < < < 3 3 < < < ;.n.n.n.n.n.n.n.n.n.n.n.n.n.n.n.n.n.d.,.                                  ",
"O & 3 3 3 3 3 3 3 3 3 < < *.n.n.n.n.n.n.n.n.n.n.n.n.n.n.n.n.n.d.,.                                  ",
"O > 3 3 3 3 3 3 3 3 3 3 < *.n.n.n.n.n.n.n.n.n.n.n.n.n.n.n.n.n.s.,.                                  ",
"O & 3 3 3 3 3 3 3 3 3 3 < ;.n.n.n.n.n.n.n.n.n.n.n.n.n.n.n.n.n.d.,.                                  ",
"O > 3 3 3 3 3 3 3 3 3 < , *.n.n.n.n.n.n.n.n.n.n.n.n.n.n.n.n.n.s.,.                                  ",
"* - < 3 3 3 3 3 3 3 3 3 4 :.n.n.n.n.n.n.n.n.n.n.n.n.n.n.n.n.n.s.,.                                  ",
"  * & 3 3 3 3 3 3 3 3 4 ;.g.n.n.n.n.n.n.n.n.n.n.n.n.n.n.n.n.a.6.                                    ",
"    % & < 3 3 < 3 3 3 4 t.n.n.n.n.n.n.n.n.n.n.n.n.n.n.n.n.n.u.>.                                    ",
"      8 & % , < < < 7 $.f.n.n.n.n.n.n.n.n.n.n.n.n.n.l.i.u.u.9.                                      ",
"        9 9 1 s l l b y.a.a.a.a.a.a.a.a.a.a.a.a.a.a.u.2.<.<.                                        ",
"            ; N ,.-.-.-.-.=.-.=.=.=.=.-.=.-.=.=.-.-.>.                                              "
};
