/* XPM */
static char *_af501fe41494d0fdae76b75ea170b9bglDkykCy6Ph3CYJj[] = {
/* columns rows colors chars-per-pixel */
"50 50 137 2 ",
"   c None",
".  c #010101",
"X  c #05070F",
"o  c #06080F",
"O  c #0D0D0E",
"+  c #161203",
"@  c #060B14",
"#  c #0E0F14",
"$  c #050E1A",
"%  c #100F13",
"&  c #0C121B",
"*  c #121215",
"=  c #131419",
"-  c #1B1B1C",
";  c #051122",
":  c #0D1520",
">  c #0D1927",
",  c #0D1D2D",
"<  c #121A23",
"1  c #1A1D22",
"2  c #131E2B",
"3  c #1A1E28",
"4  c #1C2027",
"5  c #15222E",
"6  c #1F2329",
"7  c #162432",
"8  c #192735",
"9  c #1C2936",
"0  c #1F2C39",
"q  c #222223",
"w  c #262628",
"e  c #29292B",
"r  c #222932",
"t  c #2E2F33",
"y  c #222E3A",
"u  c #26313D",
"i  c #29333E",
"p  c #323233",
"a  c #3D3D3E",
"s  c #504313",
"d  c #67561C",
"f  c #6B5A1D",
"g  c #77631E",
"h  c #6F5E25",
"j  c #233040",
"k  c #2B3642",
"l  c #2D3A46",
"z  c #313C47",
"x  c #3D3F46",
"c  c #35414D",
"v  c #3B444C",
"b  c #3B4653",
"n  c #3E4954",
"m  c #424243",
"M  c #444449",
"N  c #46484A",
"B  c #4B4C4C",
"V  c #454D55",
"C  c #4D4E50",
"Z  c #434E58",
"A  c #4E5053",
"S  c #46515A",
"D  c #4A545D",
"F  c #545457",
"G  c #525C66",
"H  c #5C5E63",
"J  c #535D68",
"K  c #576068",
"L  c #59616A",
"P  c #636364",
"I  c #646669",
"U  c #6C6D6E",
"Y  c #646B73",
"T  c #686D72",
"R  c #6E757B",
"E  c #717374",
"W  c #757779",
"Q  c #7C7C7D",
"!  c #C53123",
"~  c #C7372A",
"^  c #C7382A",
"/  c #C83A2C",
"(  c #C93E31",
")  c #CA4235",
"_  c #DEB93A",
"`  c #E1BC3C",
"'  c #AC9B5D",
"]  c #D5B954",
"[  c #E1BF49",
"{  c #E2C04B",
"}  c #E3C250",
"|  c #DAC061",
" . c #E7CC6D",
".. c #EAD37D",
"X. c #737980",
"o. c #797D80",
"O. c #7B8087",
"+. c #7F858B",
"@. c #848585",
"#. c #81878C",
"$. c #84898E",
"%. c #929294",
"&. c #979799",
"*. c #97989A",
"=. c #9B9C9E",
"-. c #9EA1A4",
";. c #A2A4A5",
":. c #A3A6AB",
">. c #A6AAAE",
",. c #ACAEAE",
"<. c #B0B0A9",
"1. c #ABAFB0",
"2. c #AEB1B2",
"3. c #B3B4B4",
"4. c #B4B8BD",
"5. c #BCBEBE",
"6. c #F0DE9F",
"7. c #F1E2AA",
"8. c #BEC1C1",
"9. c #C1C3C3",
"0. c #C5C9CD",
"q. c gray81",
"w. c #D1D1CC",
"e. c #CFD0D0",
"r. c #D2D4D3",
"t. c #D7D8D8",
"y. c #DBDCDC",
"u. c #DCDEE1",
"i. c #DEE0E1",
"p. c #E4E5E5",
"a. c #E7E7E8",
"s. c #EBECEC",
"d. c #FAF6E4",
"f. c #FCF8EB",
"g. c #F5F5F5",
"h. c #FDFCF6",
"j. c #FFFFFF",
/* pixels */
"                                                                                                    ",
"                                                  ;.;.T i y 0 0 0 0 y 0 =                           ",
"                                                u t t 4 * = 7 8 7 8 8 8 7 < * -                     ",
"                                              * w *.>.,.,.&.4 @ # : 7 8 8 5 < < = *                 ",
"                                            @.U =.g.j.j.j.g.=.%.%.I & 7 8 8 8 8 < < 3               ",
"                                          ,.5.y.j.j.j.j.j.j.j.j.j.r.I 3 5 8 8 8 8 8 < <             ",
"                                        ,.5.p.j.j.j.j.j.j.j.j.j.j.j.p.P r 5 8 8 8 8 8 < *           ",
"                                      3.8.s.j.j.j.j.j.j.j.j.j.j.j.j.j.g.m & 8 8 8 8 8 2 =           ",
"                                    %.=.q.g.j.j.j.j.j.j.g.y.y.y.y.a.j.g.F < 7 8 8 8 8 8 5 =         ",
"                                  w * - q ,.g.j.j.j.j.g.,.q - - - P s.h.3.N & 8 8 8 8 8 7 5 =       ",
"                                - O . . . q %.j.j.j.j.=.w o . . . O F p.9.F @ 8 8 8 8 8 8 7 %       ",
") /     ( (                     B Q @.. . . Q j.j.j.j.=.P 3.<.p . . e u.9.C @ 8 8 8 8 8 8 8 5 <     ",
"^ ! ~ ( ! !                     p N B . . . Q j.j.j.j.%.a Q s.N . . e p.9.A # 8 8 8 8 8 8 8 8 & =   ",
"^ ! ! ! ! !                     o . + f f f ' 6.7.f.j.Q . O E w . . q p.9.B $ 8 8 8 8 8 8 8 8 & =   ",
") ^ ! ! ! (                     h s g _ ` ` ` _ } d.j.,.a . . . X : E s.9.A # 7 8 8 8 8 8 8 9 < 1   ",
"    ^ ! (                   { [ ] |  . . . . . ...f.j.j.9.m m m l ' g.j.9.B & 8 8 8 8 8 9 8 8 8 < * ",
"      )                         <.w.h.h.h.h.h.h.h.j.j.j.j.g.g.g.g.g.j.g.9.C $ 8 8 8 8 8 8 8 8 8 < % ",
"                                2.e.j.j.j.j.j.j.j.j.j.j.j.j.j.j.j.j.j.j.9.A & 8 8 8 8 8 8 8 8 8 < # ",
"                                ,.r.j.j.j.j.j.j.j.j.j.j.j.j.j.j.j.j.j.g.9.H 5 7 8 8 8 8 8 8 8 8 < O ",
"                                ,.r.j.j.j.j.j.j.j.j.j.j.j.j.j.j.j.j.j.j.9.L 7 7 8 8 8 8 8 9 8 8 < # ",
"                                ,.r.j.j.j.j.j.j.j.j.j.j.j.j.j.j.j.j.j.j.8.L 7 7 8 8 8 8 8 8 8 8 < % ",
"                                ,.r.j.j.j.j.j.j.j.j.j.j.j.j.j.j.j.j.j.g.9.L 7 7 8 8 8 8 8 8 8 8 < # ",
"                                ,.r.j.j.j.j.j.j.j.j.j.j.j.j.j.j.j.j.j.g.9.K 7 7 8 8 8 8 8 8 8 8 < % ",
"                                2.e.j.j.j.j.j.j.j.j.j.j.j.j.j.j.j.j.j.j.9.K 7 7 8 8 8 8 8 8 8 8 < # ",
"                                ;.r.j.j.j.j.j.j.j.j.j.j.j.j.j.j.j.j.j.g.2.D 7 7 8 8 8 8 8 8 8 8 < # ",
"                              % W r.j.j.j.j.j.j.j.j.j.j.j.j.j.j.j.j.j.g.J 7 8 8 8 8 8 8 8 8 8 8 = # ",
"                            0 o E r.j.j.j.j.j.j.j.j.j.j.j.j.j.j.j.j.j.a.v : 8 8 7 8 y u 8 8 8 8 < # ",
"                          A 8 o E r.j.j.j.j.j.j.j.j.j.j.j.j.j.j.j.j.p.G 2 2 8 8 8 8 u u 8 8 8 8 < # ",
"                          y 7 o E r.j.j.j.j.j.j.j.j.j.j.j.j.j.j.j.j.t.3 > 7 8 8 8 y H G 8 8 8 8 < % ",
"                          , 5 o E t.j.j.j.j.j.j.j.j.j.j.j.j.j.j.j.r.I 2 5 8 8 7 8 i R R 8 8 8 8 < % ",
"                        u , 7 o E r.j.j.j.j.j.j.j.j.j.j.j.j.j.j.0.Y $ 7 8 8 8 8 8 u D S 8 8 8 8 > % ",
"                      v 0 , 5 @ E r.j.j.j.j.j.j.j.j.j.j.j.j.j.j.O.$ 2 8 8 8 8 8 y V z 7 8 8 8 8 < # ",
"                      v 9 , 5 o E t.j.j.j.j.j.j.j.j.j.j.j.j.j.t.H $ 8 8 8 8 8 u V R Z 7 8 8 8 8 < # ",
"                      v 9 , 5 o E r.j.j.j.j.j.j.j.j.j.j.j.g.y.M $ , 8 8 8 8 9 v $.b 8 8 8 8 8 8 < % ",
"                      v 9 , 7 * W r.j.j.j.j.j.j.j.j.j.j.j.p.n @ & 8 8 8 8 0 j V #.c 7 8 8 8 8 8 < # ",
"                      v 9 , j o.-.r.j.j.j.j.j.j.j.j.j.j.j.u.j ; , 8 8 8 j H +.X.c 0 8 8 8 8 8 8 < # ",
"                      v 9 k +.  2.r.j.j.j.j.j.j.j.j.j.j.j.i.k @ $ : 8 i Y L n b 9 8 8 8 9 8 8 8 < % ",
"                                ,.r.j.j.j.j.j.j.j.j.j.j.j.g.1.=.=.-.:.>.T l 7 7 8 8 8 8 8 8 8 9 < O ",
"                                ,.r.j.j.j.j.j.j.j.j.j.j.j.j.j.j.j.j.j.g.J 7 7 8 8 8 8 8 9 7 8 8 < # ",
"                                ,.r.j.j.j.j.j.j.j.j.j.j.j.j.j.j.j.j.j.g.G 7 8 8 8 8 8 8 8 9 8 8 < # ",
"                                ,.r.j.j.j.j.j.j.j.j.j.j.j.j.j.j.j.j.j.g.J 7 8 8 8 8 8 8 8 8 8 8 < # ",
"                                ,.r.j.j.j.j.j.j.j.j.j.j.j.j.j.j.j.j.j.g.J 8 8 8 8 8 8 8 8 8 8 9 < # ",
"                                ,.r.j.j.j.j.j.j.j.j.j.j.j.j.j.j.j.j.j.g.G , 8 8 8 8 8 8 8 8 8 8 < # ",
"                                ,.r.j.j.j.j.j.j.j.j.j.j.j.j.j.j.j.j.j.g.J 7 8 8 8 8 8 8 8 8 8 8 < * ",
"                                2.r.j.j.j.j.j.j.j.j.j.j.j.j.j.j.j.j.j.g.K 7 8 8 8 8 8 8 8 8 8 8 < * ",
"                                  9.r.j.j.j.j.j.j.j.j.j.j.j.j.j.j.j.j.j.8.L 7 8 8 8 8 8 8 8 8 2 1   ",
"                                    8.j.j.j.j.j.j.j.j.j.j.j.j.j.j.j.j.j.j.+.5 8 8 8 8 8 8 8 > 3     ",
"                                    9.y.y.y.s.j.j.j.j.j.j.j.j.j.j.j.j.j.j.4.G 8 7 7 8 5 > < 1       ",
"                                      3.,.,.e.p.p.a.p.a.p.a.a.p.p.p.a.p.p.a.2.S Z Z u < * =         ",
"                                              2.2.3.2.2.2.2.2.2.2.2.2.2.2.2.2.>.,.>.A -             "
};
