/* XPM */
static char *_f864daf824447259be85e93e5dd3c6aoqgWk35Hu3g0Lyx7[] = {
/* columns rows colors chars-per-pixel */
"50 50 151 2 ",
"   c None",
".  c #010101",
"X  c #05070F",
"o  c #06080F",
"O  c #0D0D0E",
"+  c #161203",
"@  c #060B14",
"#  c #0E0F14",
"$  c #050E1A",
"%  c #100F13",
"&  c #0C121B",
"*  c #121215",
"=  c #131419",
"-  c #1B1B1C",
";  c #051122",
":  c #0D1520",
">  c #0D1927",
",  c #0D1D2D",
"<  c #121A23",
"1  c #1A1D22",
"2  c #131E2B",
"3  c #1A1E28",
"4  c #1C2027",
"5  c #15222E",
"6  c #1F2329",
"7  c #162432",
"8  c #192735",
"9  c #1C2936",
"0  c #1F2C39",
"q  c #222223",
"w  c #262628",
"e  c #29292B",
"r  c #222932",
"t  c #2E2F33",
"y  c #222E3A",
"u  c #26313D",
"i  c #29333E",
"p  c #323233",
"a  c #3D3D3E",
"s  c #504313",
"d  c #67561C",
"f  c #6B5A1D",
"g  c #77631E",
"h  c #6F5E25",
"j  c #233040",
"k  c #2B3642",
"l  c #2D3A46",
"z  c #313C47",
"x  c #3D3F46",
"c  c #35414D",
"v  c #3B444C",
"b  c #3B4653",
"n  c #3E4954",
"m  c #424243",
"M  c #444449",
"N  c #46484A",
"B  c #4B4C4C",
"V  c #454D55",
"C  c #4D4E50",
"Z  c #434E58",
"A  c #4E5053",
"S  c #46515A",
"D  c #4A545D",
"F  c #545457",
"G  c #525C66",
"H  c #5C5E63",
"J  c #535D68",
"K  c #576068",
"L  c #59616A",
"P  c #636364",
"I  c #646669",
"U  c #6C6D6E",
"Y  c #646B73",
"T  c #686D72",
"R  c #6E757B",
"E  c #717374",
"W  c #757779",
"Q  c #7C7C7D",
"!  c #C53123",
"~  c #C7372A",
"^  c #C7382A",
"/  c #C83A2C",
"(  c #C93E31",
")  c #CA4235",
"_  c #DEB93A",
"`  c #E1BC3C",
"'  c #AC9B5D",
"]  c #D5B954",
"[  c #E1BF49",
"{  c #E2C04B",
"}  c #E3C250",
"|  c #DAC061",
" . c #E7CC6D",
".. c #EAD37D",
"X. c #737980",
"o. c #797D80",
"O. c #7B8087",
"+. c #7F858B",
"@. c #848585",
"#. c #81878C",
"$. c #84898E",
"%. c #929294",
"&. c #979799",
"*. c #97989A",
"=. c #9B9C9E",
"-. c #9EA1A4",
";. c #A2A4A5",
":. c #A3A6AB",
">. c #A6AAAE",
",. c #ACAEAE",
"<. c #B0B0A9",
"1. c #ABAFB0",
"2. c #AEB1B2",
"3. c #B3B4B4",
"4. c #B4B8BD",
"5. c #BCBEBE",
"6. c #F0DE9F",
"7. c #F1E2AA",
"8. c #BEC1C1",
"9. c #C1C3C3",
"0. c #C5C9CD",
"q. c gray81",
"w. c #D1D1CC",
"e. c #CFD0D0",
"r. c #D2D4D3",
"t. c #D7D8D8",
"y. c #DBDCDC",
"u. c #DCDEE1",
"i. c #DEE0E1",
"p. c #E4E5E5",
"a. c #E7E7E8",
"s. c #EBEBEB",
"d. c #EDEDED",
"f. c #EBECED",
"g. c #FAF6E4",
"h. c #FCF8EB",
"j. c gray95",
"k. c gray96",
"l. c #F4F4F5",
"z. c #F6F6F6",
"x. c #F5F5F6",
"c. c #FDFCF6",
"v. c #FDFCF7",
"b. c #FDFAF2",
"n. c #FBFBFB",
"m. c gray98",
"M. c #F9F9F9",
"N. c white",
"B. c #FEFEFE",
"V. c #FDFDFD",
"C. c #FFFFFF",
/* pixels */
"                                                                                                    ",
"                          = 9 y 0 0 y 0 9 i T ;.;.                                                  ",
"                    - # < 5 8 8 8 7 8 7 & = q t p u                                                 ",
"                * = 2 < 5 8 8 8 & $ # 4 &.,.,.,.&.6 =                                               ",
"              1 < < 7 8 8 8 8 & I %.%.=.l.B.B.B.k.=.U @.                                            ",
"            < 2 8 8 8 8 8 5 3 I r.B.B.B.B.B.B.B.B.B.i.5.,.                                          ",
"          % < 8 8 8 8 8 5 r P a.B.B.B.B.B.B.B.B.B.B.B.p.5.,.                                        ",
"          = 2 8 8 8 8 8 & m j.B.B.B.B.B.B.B.B.B.B.B.B.B.s.8.2.                                      ",
"        * 5 8 8 8 8 8 7 2 F k.B.a.y.y.y.y.k.B.B.B.B.B.B.k.q.*.&.                                    ",
"      = 5 8 8 8 8 8 8 # N 3.m.d.P - - q q ,.k.B.B.B.B.k.,.q * * q                                   ",
"      # 8 8 8 8 8 8 8 # C 9.a.F O . . . . e =.B.B.B.B.&.q . . . O -                                 ",
"    < 2 8 8 8 8 8 8 8 $ B 9.p.e . . p ,.3.I =.B.B.B.B.Q . . o @.Q C                     / (     / ) ",
"  = & 8 8 8 8 8 8 8 8 # C 8.p.w . . M d.' k $.B.B.B.B.Q . . . B N p                     ! ! ) ~ ! / ",
"  = & 8 8 8 8 8 8 8 7 $ A 8.p.q . . q E O . X.B.b.7.6.' f f d + . o                     ! ! ! ! ! / ",
"  1 < 8 8 9 8 8 8 8 8 # A 9.f.E - . . . . a ,.B.g.} _ ` ` ` _ g s h                     ( ! ! ! ~ ) ",
"* < 8 8 8 8 8 8 8 8 8 # C 8.n.n.Q m a m M 9.B.B.h... . . . . . .| ] { {                   ( ! ~     ",
"# < 8 8 8 8 9 8 8 8 8 $ C 8.B.B.M.k.k.k.k.B.B.B.B.v.v.v.v.v.v.v.w.,.                        )       ",
"# > 8 8 8 8 8 8 8 8 8 # A 9.m.B.B.B.B.B.B.B.B.B.B.B.B.B.B.B.B.B.r.1.                                ",
"* < 8 8 9 8 8 8 8 8 8 5 J 9.m.B.B.B.B.B.B.B.B.B.B.B.B.B.B.B.B.B.r.,.                                ",
"# < 8 8 8 8 8 8 8 8 8 8 L 8.B.B.B.B.B.B.B.B.B.B.B.B.B.B.B.B.B.B.r.,.                                ",
"# < 8 8 8 8 8 8 8 8 8 5 L 9.m.B.B.B.B.B.B.B.B.B.B.B.B.B.B.B.B.B.r.,.                                ",
"# < 8 8 8 8 8 8 8 8 8 7 L 8.m.B.B.B.B.B.B.B.B.B.B.B.B.B.B.B.B.B.r.1.                                ",
"# < 8 8 8 8 8 8 8 8 7 5 K 9.B.B.B.B.B.B.B.B.B.B.B.B.B.B.B.B.B.B.r.,.                                ",
"% < 8 8 8 8 8 8 8 8 7 5 K 9.m.B.B.B.B.B.B.B.B.B.B.B.B.B.B.B.B.B.r.2.                                ",
"# < 8 8 8 8 8 8 8 8 7 5 D 1.n.B.B.B.B.B.B.B.B.B.B.B.B.B.B.B.B.B.r.;.                                ",
"# < 8 8 8 8 8 8 8 8 8 8 7 J z.B.B.B.B.B.B.B.B.B.B.B.B.B.B.B.B.B.r.W *                               ",
"% < 8 8 8 8 u u 8 8 8 8 : x s.n.B.B.B.B.B.B.B.B.B.B.B.B.B.B.B.B.r.E o 9                             ",
"# = 8 8 8 8 u u 8 8 8 8 2 2 G i.B.B.B.B.B.B.B.B.B.B.B.B.B.B.B.B.t.E X 8 A                           ",
"# < 8 8 7 8 G J y 8 8 8 8 > 3 t.B.B.B.B.B.B.B.B.B.B.B.B.B.B.B.B.r.E X 7 y                           ",
"# < 8 8 8 8 R W i 8 8 8 8 7 3 I r.B.B.B.B.B.B.B.B.B.B.B.B.B.B.B.t.E X 5 ,                           ",
"# < 8 8 8 8 S D u 8 8 8 8 8 7 $ Y 0.B.B.B.B.B.B.B.B.B.B.B.B.B.B.t.E X 5 , u                         ",
"# < 8 8 8 8 7 z Z 9 8 8 8 8 8 , $ O.B.B.B.B.B.B.B.B.B.B.B.B.B.B.r.E X 7 , 9 v                       ",
"* < 8 8 8 8 8 Z R V u 8 8 8 8 8 $ H r.B.B.B.B.B.B.B.B.B.B.B.B.B.r.E @ 5 , 9 v                       ",
"# < 8 8 8 8 8 8 v $.v 9 8 8 8 7 , $ M u.n.B.B.B.B.B.B.B.B.B.B.B.t.E X 5 , 9 v                       ",
"# < 8 8 8 8 8 8 c $.Z k 9 8 8 8 8 : @ b p.B.B.B.B.B.B.B.B.B.B.B.r.W = 5 , 9 v                       ",
"# < 8 8 8 8 8 8 9 c R #.L u 8 8 8 2 ; j u.B.B.B.B.B.B.B.B.B.B.B.r.-.o.u , 9 v                       ",
"O < 8 8 8 8 8 8 8 8 b b L Y i 8 > $ $ k i.B.B.B.B.B.B.B.B.B.B.B.r.2.  +.k 8 v                       ",
"* < 8 8 8 8 8 8 8 8 7 7 z Y >.:.-.=.=.1.l.B.B.B.B.B.B.B.B.B.B.B.r.,.                                ",
"# < 8 8 8 8 8 8 8 8 8 8 7 G m.B.B.B.B.B.B.B.B.B.B.B.B.B.B.B.B.B.r.,.                                ",
"# < 8 8 8 8 8 8 8 8 8 8 7 G k.B.B.B.B.B.B.B.B.B.B.B.B.B.B.B.B.B.r.,.                                ",
"# < 8 8 8 8 8 8 8 8 8 8 7 G x.B.B.B.B.B.B.B.B.B.B.B.B.B.B.B.B.B.r.,.                                ",
"# > 8 9 8 8 8 8 8 8 8 8 7 G k.B.B.B.B.B.B.B.B.B.B.B.B.B.B.B.B.B.r.,.                                ",
"* < 8 8 8 9 8 8 8 8 8 8 7 G z.B.B.B.B.B.B.B.B.B.B.B.B.B.B.B.B.B.r.,.                                ",
"# < 8 8 8 8 8 8 8 8 8 8 7 J k.B.B.B.B.B.B.B.B.B.B.B.B.B.B.B.B.B.r.,.                                ",
"* < 8 8 8 8 8 8 8 8 8 8 7 J z.B.B.B.B.B.B.B.B.B.B.B.B.B.B.B.B.B.r.2.                                ",
"  1 < 8 8 8 8 8 8 8 8 7 L 8.n.B.B.B.B.B.B.B.B.B.B.B.B.B.B.B.B.t.9.                                  ",
"    1 < 8 8 8 8 8 8 8 7 #.B.B.B.B.B.B.B.B.B.B.B.B.B.B.B.B.B.B.9.                                    ",
"      < < > 2 8 7 7 8 J 4.B.B.B.B.B.B.B.B.B.B.B.B.B.B.d.y.y.y.9.                                    ",
"        = * 2 i V V Z 2.a.p.a.a.p.p.a.a.p.a.p.p.a.a.p.e.1.2.2.                                      ",
"            - C ,.,.,.,.2.2.2.2.2.2.2.2.2.2.2.2.2.2.2.                                              "
};
