/* XPM */
static char *ec04666165e14091945679d7de55df40bbTFfyKTo2cML6Kf[] = {
/* columns rows colors chars-per-pixel */
"50 50 147 2 ",
"   c None",
".  c #141315",
"X  c #191414",
"o  c #171718",
"O  c #181718",
"+  c #1B1A1B",
"@  c #2C1B16",
"#  c #231918",
"$  c #331E12",
"%  c #341E18",
"&  c #3D2016",
"*  c #332019",
"=  c #3A241D",
"-  c #201F20",
";  c #232223",
":  c #2A2929",
">  c #2D3030",
",  c #3B3C3A",
"<  c #333535",
"1  c #432116",
"2  c #44261C",
"3  c #4F2C1F",
"4  c #512414",
"5  c #5A2612",
"6  c #542C15",
"7  c #572F1D",
"8  c #5B2E1D",
"9  c #5B3013",
"0  c #67290E",
"q  c #622711",
"w  c #662A13",
"e  c #6B2A10",
"r  c #722F13",
"t  c #6A3A1F",
"y  c #7B3618",
"u  c #412E27",
"i  c #4C2B20",
"p  c #472E2E",
"a  c #4A322A",
"s  c #4F392F",
"d  c #473832",
"f  c #6D3E39",
"g  c #5E4236",
"h  c #55463D",
"j  c #61483C",
"k  c #484644",
"l  c #434847",
"z  c #474D4B",
"x  c #5C554E",
"c  c #555451",
"v  c #545B59",
"b  c #7E5E4B",
"n  c #645E57",
"m  c #5A615F",
"M  c #64635C",
"N  c #5C6562",
"B  c #5F6865",
"V  c #626A66",
"C  c #646E6A",
"Z  c #776B60",
"A  c #67716D",
"S  c #69726E",
"D  c #6A7571",
"F  c #6E7975",
"G  c #717C77",
"H  c #737F7A",
"J  c #8D4B38",
"K  c #8B543C",
"L  c #965736",
"P  c #8A5E43",
"I  c #935A40",
"U  c #937157",
"Y  c #9B785E",
"T  c #AA795C",
"R  c #817669",
"E  c #907660",
"W  c #807F79",
"Q  c #75817C",
"!  c #79837E",
"~  c #AC8974",
"^  c #B49071",
"/  c #7A8681",
"(  c #7E8A84",
")  c #838783",
"_  c #818D86",
"`  c #898882",
"'  c #838F88",
"]  c #86918A",
"[  c #8A958E",
"{  c #93948C",
"}  c #8F9A92",
"|  c #939D95",
" . c #9A9992",
".. c #BD9D88",
"X. c #97A298",
"o. c #9BA49B",
"O. c #9FA99F",
"+. c #A6A59E",
"@. c #B8AC9B",
"#. c #A3ADA2",
"$. c #ACA9A0",
"%. c #A6B0A4",
"&. c #A8B3A7",
"*. c #ACB6AA",
"=. c #AFB9AC",
"-. c #B4B5AC",
";. c #B1BAAE",
":. c #BBB9AF",
">. c #B5BFB1",
",. c #B9BCB5",
"<. c #CCBFB1",
"1. c #B7C0B2",
"2. c #BAC3B5",
"3. c #BFC7B9",
"4. c #C0C7BA",
"5. c #CBC7BC",
"6. c #C3CABD",
"7. c #C9CBBE",
"8. c #D0C4BD",
"9. c #CBCEC2",
"0. c #D2CFC4",
"q. c #CED1C5",
"w. c #D1D3C6",
"e. c #DCD0C0",
"r. c #D4D5C9",
"t. c #D8D7CF",
"y. c #D7D8CC",
"u. c #DADACE",
"i. c #DEDED1",
"p. c #E2DCCD",
"a. c #E1DFD2",
"s. c #E4E2D5",
"d. c #E7E5D9",
"f. c #E9E6D9",
"g. c #EDE9DC",
"h. c #EDE9DD",
"j. c #ECE8DC",
"k. c #EEEADE",
"l. c #EFEBDF",
"z. c #EFEADE",
"x. c #EEE9DD",
"c. c #EBE8DB",
"v. c #F0EBDF",
"b. c #F0ECDF",
"n. c #F0EBE0",
"m. c #F1ECE1",
"M. c #F2EDE1",
/* pixels */
"                                                                                                    ",
"                                                                                                    ",
"                                                                                                    ",
"                                                                                                    ",
"                                                                                                    ",
"                                                          ` c + -                                   ",
"                                                      +.r.s.w. .{ , :                               ",
"                                                      0.f.i.u.y.r.o.}                               ",
"                                                     .d.t.,.6.w.%.X.=.%.                            ",
"                                                  { e.i.-.A -.-.( [ =.O.                            ",
"                                                c 6.Y P U E ^ E o.~ +.|                             ",
"                                                ~ i...7 * 6 w t Z V ' '                             ",
"                                              : :.c.p.~ 7 p # O % s n !                             ",
"                                            X c d.j.f.s.~ J j @ # @ h S                             ",
"                                          ; X  .M.j.j.d.q.Z j g x M G V                             ",
"                                      + O . k u.b.b.j.j.s.-.G C C C D z                             ",
"                                + o X ; . : -.M.v.n.n.n.v.s.o.V v m B <                             ",
"                            + o . +   ; , @.j.z.v.n.n.v.j.f.t.[ m m N :                             ",
"                          O o o        .w.f.f.c.z.v.v.v.v.f.f.9.( B m ;                             ",
"                      ; o +         t.d.f.f.c.c.z.z.n.n.v.z.f.s.2.Q B :                             ",
"                    - o :           s.s.f.f.c.v.j.n.v.n.v.j.f.s.u.#.D > .                           ",
"                    +             d.f.f.f.f.j.c.j.j.v.n.f.f.s.s.u.9.] l + + +                       ",
"                  ;               s.f.f.f.c.v.v.n.j.v.j.j.f.s.s.u.q.=.F , + . +                     ",
"                                  s.d.f.c.c.c.j.j.M.v.j.f.s.s.a.y.q.4.X.D   . .                     ",
"                                s.s.s.f.f.f.j.j.j.j.j.j.f.d.i.u.w.9.3.*.(     . o                   ",
"                                a.s.s.s.f.f.f.f.c.j.f.f.s.i.u.r.q.6.2.*.}     + . +                 ",
"                                a.s.d.s.d.s.d.d.f.d.s.i.i.y.r.9.6.2.;.%.}       . .                 ",
"                                a.a.i.i.a.a.s.s.s.i.i.i.r.q.9.3.1.;.*.X./         . O               ",
"                                i.a.i.y.u.y.u.u.u.y.y.q.q.9.3.1.=.%.o.( Q         + .               ",
"                                y.y.y.y.w.q.w.q.q.q.9.9.3.2.1.=.#.X._ Q Q           o +             ",
"                            L   y.r.q.7.3.9.9.3.3.3.3.2.1.=.*.#.| ( Q H               +             ",
"                          y K 7.u.w.6.3.1.1.1.;.=.;.=.=.*.%.X.[ / Q Q /               O             ",
"                          r r K <.y.2.&.%.%.%.#.#.#.#.O.X.} ( Q Q Q Q                               ",
"                          w q e L @.#.[ _ ( _ _ ( [ ] ( / Q Q Q Q Q (                               ",
"                          8 5 5 0 b _ Q H G G F G G G Q Q H Q H Q /                                 ",
"                            7 4 4 j / H F D D D A D D D F F F F H                                   ",
"                              7               S N B V C S S D                                       ",
"                                                v v m N B S                                         ",
"                                                < s c                                               ",
"                                              = 1 1 a                                               ",
"                                              = & % & 2 i                                           ",
"                                                2     i                                             ",
"                                                                                                    ",
"                                                                                                    ",
"                                                                                                    ",
"                                                                                                    ",
"                                                                                                    ",
"                                                                                                    ",
"                                                                                                    ",
"                                                                                                    "
};
