/* XPM */
static char *f4d0b72f1ed74bfcd32a8cdb34942832cyUlnhSk0HBKtqzZ[] = {
/* columns rows colors chars-per-pixel */
"50 50 163 2 ",
"   c None",
".  c #1D1C1E",
"X  c #241F1E",
"o  c #2A221E",
"O  c #37291E",
"+  c #39271E",
"@  c #1E1E21",
"#  c #201F21",
"$  c #232224",
"%  c #2A2322",
"&  c #272628",
"*  c #282729",
"=  c #272829",
"-  c #2B2A2B",
";  c #3E2C25",
":  c #3F332E",
">  c #2F2F30",
",  c #312F30",
"<  c #303031",
"1  c #383737",
"2  c #373738",
"3  c #393738",
"4  c #3A393A",
"5  c #4B311E",
"6  c #5D341E",
"7  c #5E381C",
"8  c #62361E",
"9  c #66381E",
"0  c #6C3B1D",
"q  c #733D1D",
"w  c #422D23",
"e  c #482E23",
"r  c #463026",
"t  c #4C3124",
"y  c #443129",
"u  c #4C352A",
"i  c #533323",
"p  c #583320",
"a  c #5D3926",
"s  c #51382B",
"d  c #5B3D2D",
"f  c #463838",
"g  c #493932",
"h  c #523C30",
"j  c #633E2A",
"k  c #613E26",
"l  c #4E413B",
"z  c #58443A",
"x  c #67432A",
"c  c #7B4524",
"v  c #7F4825",
"b  c #754629",
"n  c #654B3B",
"m  c #434444",
"M  c #4A4847",
"N  c #474949",
"B  c #4F4F4E",
"V  c #544740",
"C  c #4E5150",
"Z  c #545654",
"A  c #575A59",
"S  c #5C5B58",
"D  c #6C514F",
"F  c #7C5F4B",
"G  c #675B52",
"H  c #5C605E",
"J  c #636463",
"K  c #696C6B",
"L  c #676B6A",
"P  c #716F6D",
"I  c #776C62",
"U  c #6C716F",
"Y  c #74726F",
"T  c #6E7371",
"R  c #717674",
"E  c #737976",
"W  c #7B7A75",
"Q  c #767D7A",
"!  c #787F7C",
"~  c #844A1D",
"^  c #88542F",
"/  c #88592D",
"(  c #925A23",
")  c #8C5B35",
"_  c #8B5733",
"`  c #965E43",
"'  c #896140",
"]  c #946A4C",
"[  c #976844",
"{  c #9C775A",
"}  c #A87F5E",
"|  c #9C6F6B",
" . c #9D7960",
".. c #807E7B",
"X. c #7B827E",
"o. c #9D856D",
"O. c #82817A",
"+. c #9A8D7C",
"@. c #AA8667",
"#. c #B79674",
"$. c #7E8582",
"%. c #808783",
"&. c #838A86",
"*. c #868D8A",
"=. c #898F8B",
"-. c #8C8C87",
";. c #89918D",
":. c #93928C",
">. c #8D9591",
",. c #949692",
"<. c #949B96",
"1. c #979E98",
"2. c #999F99",
"3. c #9A9A96",
"4. c #B29A8B",
"5. c #A29D92",
"6. c #9CA39D",
"7. c #A0A59E",
"8. c #B9AE9B",
"9. c #9FA6A0",
"0. c #A3A7A2",
"q. c #A3AAA3",
"w. c #A9AFA7",
"e. c #B1AFA6",
"r. c #B1AFA9",
"t. c #ACB2AB",
"y. c #B1B6AE",
"u. c #B1B8AF",
"i. c #B0B6B0",
"p. c #B5BCB2",
"a. c #B9BFB5",
"s. c #C3BDB0",
"d. c #BBC1B7",
"f. c #BEC4B9",
"g. c #C1C6BC",
"h. c #C3C9BE",
"j. c #D8C8B6",
"k. c #D5CBBE",
"l. c #D2C7BA",
"z. c #C9C7C0",
"x. c #C7CCC1",
"c. c #CACEC4",
"v. c #D4CFC5",
"b. c #CDD1C7",
"n. c #CFD2C8",
"m. c #D9D0C7",
"M. c #D2D5CB",
"N. c #D8D7CF",
"B. c #D6D8CE",
"V. c #D8D8CF",
"C. c #D7D7D1",
"Z. c #DCDCD3",
"A. c #E4DCCD",
"S. c #E1DFD8",
"D. c #E4DCD1",
"F. c #E1E1D7",
"G. c #E4E4DA",
"H. c #E8E7DD",
"J. c #EAE9DE",
"K. c #E6E7E2",
"L. c #EEEBE1",
"P. c #F1EEE4",
"I. c #F3F0E7",
/* pixels */
"                                & X & B J                                                           ",
"                            $ 1 Z M -.v.C.s.                                                        ",
"                          1 m 0.C.M.Z.G.H.L.N.,.                                                    ",
"                        ,.y.t.b.Z.Z.Z.F.J.J.P.z.J                                                   ",
"                        g.f.w.w.c.Z.Z.b.c.Z.J.J.W                                                   ",
"                      7.f.f.t.<.q.B.C.t.0.M.G.P.S.:.                                                ",
"                      2.p.f.w.7.1.w.m.6.Z 2.C.D.j.m.K                                               ",
"                      1.t.p.,.0.i.o.#.8.-.@.@.' [ D.0.4                                             ",
"                        6.6.E T 5.) ( ) / x O 7 @.J.Z.Z                                             ",
"                        6.:.O.I n + + X . . 5 [ k.J.P.-.%                                           ",
"                      =.&.G s w o X % f D k ] l.J.J.L.v.3 *                                         ",
"                      T X.h O % X % V | ) ] v.J.L.P.P.L.P .                                         ",
"                      H ;.X.G z h u a x F s.G.J.P.P.P.I.y.% #                                       ",
"                      m %.;.&.$.%.W I ..w.M.G.J.P.P.P.P.G.Z . *                                     ",
"                      > R $.! ! ! ! ! <.x.G.P.P.P.P.P.P.P.r.* . # $ $ *                             ",
"                      $ S X.T K L U &.g.J.P.P.P.I.P.P.P.P.L...X # * - # # $ -                       ",
"                      = C X.T L K $.p.F.L.P.P.P.I.P.P.P.P.P.G.Y # #     & @ . $ -                   ",
"                      @ m X.R U ! w.F.L.L.P.P.P.I.P.P.P.P.P.P.F.:.m ,       $ @ X $                 ",
"                      @ m Q R X.6.V.L.L.L.L.P.P.P.I.P.P.P.P.L.L.L.B.3.        - @ . # -             ",
"                      @ N X.X.6.n.J.K.L.P.P.I.P.I.P.P.P.L.L.L.J.J.L.L.C.          - @ . -           ",
"                    - @ A X.;.f.G.J.J.L.L.P.P.P.P.P.P.P.P.J.J.L.L.J.L.J.              - @ #         ",
"                  = @ @ J $.i.Z.G.H.J.L.L.L.P.P.P.P.P.L.L.P.P.J.L.J.J.J.F.                $ %       ",
"                $ $ - > E 6.c.F.F.G.J.J.L.P.P.P.P.P.P.P.J.L.P.J.L.J.J.J.L.                  $ $     ",
"              @ @ - = A >.d.B.Z.F.H.J.J.L.L.L.P.P.P.P.P.P.P.P.P.L.L.J.J.L.G.                  - -   ",
"            $ . $   A $.t.b.B.Z.F.G.G.L.L.L.P.L.P.P.P.P.L.J.P.J.J.L.L.L.J.J.                    -   ",
"          $ . @     X.2.g.b.B.Z.Z.G.G.L.L.L.L.L.P.P.P.L.P.P.P.P.L.L.J.J.H.H.J.                      ",
"        & . . &     ;.t.x.b.n.B.Z.F.G.G.G.L.L.L.P.P.P.P.L.P.P.J.L.L.J.J.H.J.G.                      ",
"        . @ @       6.p.h.c.b.M.Z.Z.F.G.G.G.L.L.J.L.J.P.J.L.L.L.J.J.J.J.J.H.G.                      ",
"      $ . @         6.p.f.x.b.b.B.B.Z.F.F.G.L.K.L.J.J.J.J.P.J.J.J.J.J.G.G.J.G.                      ",
"    & . . &         6.t.d.f.h.b.n.M.B.Z.Z.G.G.G.G.J.J.J.J.J.J.J.J.J.J.J.J.H.G.                      ",
"    @ . $           ;.q.p.d.f.h.x.b.M.B.C.Z.G.G.G.G.J.J.J.J.G.G.G.G.G.G.G.G.G.F.                    ",
"  * . $             ;.<.q.p.d.f.h.x.b.n.M.Z.Z.Z.F.S.F.S.G.G.G.S.F.G.F.G.G.G.G.Z.                    ",
"  @ @ >             ;.;.<.q.p.a.d.f.c.b.n.M.B.B.Z.Z.Z.F.F.F.Z.F.Z.F.F.F.F.G.F.F.                    ",
"< @ $                 *.;.<.q.t.d.d.f.x.c.c.n.M.M.B.B.B.B.B.B.B.B.Z.Z.F.F.F.Z.                      ",
"- #                   ;.;.>.<.9.t.p.d.f.f.x.c.c.b.b.n.n.n.n.n.n.n.M.B.B.V.Z.Z.      )               ",
"$ -                   ,.*.;.;.>.6.w.u.p.d.f.f.x.f.x.x.f.x.x.b.x.c.b.n.M.B.Z.F.K.Z.) v               ",
"#                       >.;.;.;.;.<.9.w.u.a.a.d.f.f.d.d.d.f.f.f.f.h.h.c.B.F.G.m.4.v c ^             ",
",                       <.;.;.;.;.;.>.6.9.w.t.u.u.d.u.d.u.d.d.d.d.d.d.f.B.F.V.{ c q q v             ",
"                          >.;.;.;.;.;.;.>.<.6.6.9.9.9.9.9.q.9.9.6.6.w.d.b.h.@.c 0 0 q q             ",
"                            >.;.;.;.;.;.*.;.;.;.;.>.>.;.*.*.*.;.;.;.<.6.t.{ ~ 0 9 8 k               ",
"                              ;.=.*.;.*.=.;.;.*.*.*.&.&.&.*.*.*.*.*.;.<.:.b 8 8 8 8 j               ",
"                                *.*.*.*.*.&.&.&.$.$.$.$.$.&.$.$.&.&.*.>.O.a 6 a p k                 ",
"                                  &.$.$.$.$.$.X.$.! E ! X.X.$.X.$.          d p d                   ",
"                                      $.X.! ! E E T T U $.                                          ",
"                                          ! E E T U L L                                             ",
"                                              E L S z l                                             ",
"                                                  u t t g                                           ",
"                                                h t e i r                                           ",
"                                          d s t w ; ; e w                                           ",
"                                            a s y : u u                                             "
};
