/* XPM */
static char *_c9b5f600ef245efcbfd88ea75181105d3S6CustjAo4MzeB[] = {
/* columns rows colors chars-per-pixel */
"50 50 147 2 ",
"   c None",
".  c #010103",
"X  c #060608",
"o  c #06090E",
"O  c #0A0A0D",
"+  c #050A13",
"@  c #0C0E12",
"#  c #050D19",
"$  c #0A0F1A",
"%  c #0D1015",
"&  c #0D151D",
"*  c #111215",
"=  c #13161B",
"-  c #16181E",
";  c #1A1A1C",
":  c #3B2E01",
">  c #0B1622",
",  c #0F1A25",
"<  c #0F1C28",
"1  c #111B25",
"2  c #1D1E21",
"3  c #111D29",
"4  c #15212D",
"5  c #1A232D",
"6  c #1C2630",
"7  c #1E2934",
"8  c #232325",
"9  c #26272A",
"0  c #26282C",
"q  c #2A2B2C",
"w  c #2F3134",
"e  c #273139",
"r  c #29323A",
"t  c #343A3F",
"y  c #3C3C3D",
"u  c #333438",
"i  c #765C01",
"p  c #2B3640",
"a  c #2E3943",
"s  c #333C44",
"d  c #3F4145",
"f  c #36404A",
"g  c #39424A",
"h  c #434344",
"j  c #444D54",
"k  c #4B4E51",
"l  c #4C545B",
"z  c #555659",
"x  c #57585E",
"c  c #515962",
"v  c #585E65",
"b  c #5B626A",
"n  c #5F6771",
"m  c #606162",
"M  c #656768",
"N  c #68686A",
"B  c #6A6B70",
"V  c #656C73",
"C  c #6E7171",
"Z  c #6D737A",
"A  c #717374",
"S  c #71777D",
"D  c #747A7E",
"F  c #7A7D7E",
"G  c #CB000E",
"H  c #CD0513",
"J  c #CE0A17",
"K  c #CE0D19",
"L  c #CF111D",
"P  c #D01722",
"I  c #D11A24",
"U  c #D3232C",
"Y  c #8B6D05",
"T  c #927206",
"R  c #947508",
"E  c #A58002",
"W  c #DFAC00",
"Q  c #DDAF15",
"!  c #E0AE04",
"~  c #E3B104",
"^  c #E2B418",
"/  c #DEB833",
"(  c #D4B239",
")  c #E3B821",
"_  c #E4BA2C",
"`  c #E6BF37",
"'  c #E7C13B",
"]  c #B5AA77",
"[  c #CAAE46",
"{  c #D2B242",
"}  c #EBCC5E",
"|  c #EACA56",
" . c #DFC460",
".. c #EDD16C",
"X. c #EED270",
"o. c #727A81",
"O. c #7C7D81",
"+. c #7D8283",
"@. c #7C8389",
"#. c #818384",
"$. c #848B92",
"%. c #949494",
"&. c #919599",
"*. c #94999D",
"=. c #9B9D9E",
"-. c #9CA09F",
";. c #959AA0",
":. c #989DA3",
">. c #9EA1A2",
",. c #A1A4A4",
"<. c #A4A8A7",
"1. c #A1A4A8",
"2. c #A6A9AA",
"3. c #ABADAE",
"4. c #ABACA2",
"5. c #ACAFB3",
"6. c #B3B4B4",
"7. c #BAB9B7",
"8. c #B6BABC",
"9. c #BBBBBB",
"0. c #DACC94",
"q. c #F1DC8F",
"w. c #F2DE94",
"e. c #F4E3A4",
"r. c #F5E5AD",
"t. c #BEC2C5",
"y. c #C3C6C6",
"u. c #C6C8C9",
"i. c #CACBCB",
"p. c #D8D6CA",
"a. c #D2D4D4",
"s. c #D7D8D9",
"d. c #DADBDB",
"f. c #E3E3E4",
"g. c #E6E7E8",
"h. c #EBECEC",
"j. c #FDF9ED",
"k. c #FDFAED",
"l. c #F2F2F2",
"z. c #F3F3F4",
"x. c #FEFCF7",
"c. c #F9F9F9",
"v. c #FEFEFB",
"b. c white",
"n. c #FEFEFE",
"m. c #FEFEFD",
"M. c #FFFFFF",
/* pixels */
"                                                        &.                                          ",
"                                                    #.F t 5 4 4 4 3 4 3 , *                         ",
"                                                  5 9 9 2 ; 1 1 , 1 < < , , O O                     ",
"                                              u % z a.a.a.a.A * % * 1 < 3 3 , , * * ;               ",
"                                            >.F *.a.b.b.b.b.d.9.7.5.w & 3 3 3 3 , > & *             ",
"U I                                       2.=.i.l.b.b.b.b.b.b.b.b.b.6.h % 3 3 3 3 3 , = 8           ",
"K G L P H G                             ,.>.u.z.b.b.b.b.b.b.b.b.b.b.b.5.k & 1 3 3 3 3 , *           ",
"J G G G G G                           2.2.i.c.b.b.b.b.b.b.b.b.b.b.b.b.b.%.o 3 3 3 3 3 , * w         ",
"I H G G H K                         F C #.9.c.b.b.b.b.b.b.i.6.7.6.7.l.b.,.9 & 3 3 3 3 3 1 & 0       ",
"  U J H I                           * X X 2 6.z.b.b.b.c.a.h . X X * >.h.a.C @ 1 3 3 3 3 3 1 & q     ",
"      I                           @ = @ . . ; 9.b.b.b.g.h ; ; * . . * ,.d.A * 1 3 3 3 3 3 3 % q     ",
"                                  h %.C . . X 7.b.b.b.h.m *.a.%.X . X =.d.A O 1 3 3 3 3 3 , , = *   ",
"                                  ; q 8 . . X 7.v.v.b.g.y q =.3.. . . =.d.A @ , 3 3 3 3 3 3 3 & O   ",
"                                  . . : T T R { | w.v.g.9 . q y . . . =.d.A % , 3 3 3 3 3 3 3 % O   ",
"                              ^ Q Y i R ~ ~ ~ ! ! } b.l.%.q . . . . M a.s.A @ 1 3 3 3 3 3 3 3 1 =   ",
"                              _ _ { } X.X.X...) W } v.b.b.%.N N N A d.b.a.A @ 1 3 3 3 3 3 3 3 3 & O ",
"                                  ] 0.r.r.r.e._ _ q.v.b.b.b.b.b.b.b.b.b.a.A @ , 3 3 3 3 3 3 3 3 & O ",
"                                  ( ` ' ' ' ' ` e.v.b.b.b.b.b.b.b.b.b.b.s.A & , 3 3 3 3 3 3 3 3 & O ",
"                                  4.p.j.j.j.j.j.x.b.b.b.b.b.b.b.b.b.b.b.a.D 4 , 3 3 3 3 3 3 3 3 & O ",
"                                  2.s.b.b.b.b.b.b.b.b.b.b.b.b.b.b.b.b.b.s.D 4 , 3 3 3 3 3 3 3 3 , O ",
"                                  2.s.b.b.b.b.b.b.b.b.b.b.b.b.b.b.b.b.b.a.D 4 3 3 3 3 3 3 3 3 3 & O ",
"                                  ,.s.b.b.b.b.b.b.b.b.b.b.b.b.b.b.b.b.b.s.D 4 < 3 3 3 3 3 3 3 3 & O ",
"                                  ,.s.b.b.b.b.b.b.b.b.b.b.b.b.b.b.b.b.b.s.D 4 < 3 3 3 3 3 3 3 3 & O ",
"                                  ,.s.b.b.b.b.b.b.b.b.b.b.b.b.b.b.b.b.b.8.j 3 3 3 3 3 3 3 3 3 3 & O ",
"                                  ,.s.b.b.b.b.b.b.b.b.b.b.b.b.b.b.b.b.b.;.> < < 3 3 3 3 3 3 3 3 , O ",
"                                  =.s.b.b.b.b.b.b.b.b.b.b.b.b.b.b.b.b.d.o.< 3 3 3 < 3 3 3 3 3 3 & O ",
"                                - F d.b.b.b.b.b.b.b.b.b.b.b.b.b.b.b.b.Z , < 3 3 3 3 3 3 3 3 3 3 & O ",
"                              1 @ F d.b.b.b.b.b.b.b.b.b.b.b.b.b.b.b.h.x + < 3 3 < 6 6 3 3 3 3 3 & O ",
"                            s > @ F s.b.b.b.b.b.b.b.b.b.b.b.b.b.b.l.b 3 & 3 3 3 3 7 7 3 < 3 3 3 & O ",
"                            5 > @ D d.b.b.b.b.b.b.b.b.b.b.b.b.b.m.h.t # < 3 3 3 4 j j 3 3 3 3 3 & O ",
"                            > > @ F d.b.b.b.b.b.b.b.b.b.b.b.b.b.f.N 5 > 3 3 3 3 7 b b 3 < 3 3 3 & O ",
"                          3 > > @ F d.b.b.b.b.b.b.b.b.b.b.b.b.s.Z & & 3 3 3 < 3 5 g g 3 3 3 3 3 & @ ",
"                        e 3 > , @ F d.b.b.b.b.b.b.b.b.b.b.b.b.5.$ > < 3 3 3 3 5 g r < 3 3 3 3 3 & O ",
"                        e 3 & , @ F d.b.b.b.b.b.b.b.b.b.b.n.d.O.+ 3 3 3 3 3 5 s b g < 3 3 3 3 3 & O ",
"                        e 3 > > O F d.b.b.b.b.b.b.b.b.b.n.f.N + > < 3 < 3 3 e S s < < 3 3 3 3 3 & @ ",
"                        e 3 > , - +.d.b.b.b.b.b.b.b.b.b.c.n $ + < 3 3 3 3 7 s Z a < 3 3 3 3 3 3 & O ",
"                        e 3 > r +.*.d.b.b.b.b.b.b.b.b.b.c.c # > 3 < 3 5 j Z V p 4 3 3 3 3 3 3 3 & @ ",
"                        w 3 p @.  >.s.b.b.b.b.b.b.b.b.b.c.v + + $ , 6 l c a p 3 < 3 3 3 3 3 3 3 & O ",
"                                  ,.s.b.b.b.b.b.b.b.b.b.b.y.,.:.1.2.5.u.@., < 3 3 3 3 3 3 3 3 3 & @ ",
"                                  ,.s.b.b.b.b.b.b.b.b.b.b.b.b.b.b.b.b.b.*.< < 3 3 3 3 3 3 3 3 3 & O ",
"                                  ,.d.b.b.b.b.b.b.b.b.b.b.b.b.b.b.b.b.b.*.< 3 3 3 3 3 3 3 3 3 3 & O ",
"                                  >.d.b.b.b.b.b.b.b.b.b.b.b.b.b.b.b.b.b.;.< < 3 3 3 3 3 3 3 3 3 & O ",
"                                  <.s.b.b.b.b.b.b.b.b.b.b.b.b.b.b.b.b.b.*.< 3 3 3 3 3 3 3 3 3 3 & O ",
"                                  >.s.b.b.b.b.b.b.b.b.b.b.b.b.b.b.b.b.m.;., < 3 3 3 3 3 3 3 3 3 & O ",
"                                  <.s.m.b.b.b.b.b.b.b.b.b.b.b.b.b.b.b.b.:.4 3 3 3 3 3 3 3 3 3 3 , * ",
"                                    6.a.b.b.b.b.b.b.b.b.b.b.b.b.b.b.b.b.g.;.4 < 3 3 3 3 3 3 3 > *   ",
"                                    >.y.b.b.b.b.b.b.b.b.b.b.m.m.b.b.b.b.b.t.4 < 3 3 3 3 3 3 & @     ",
"                                      9.u.y.u.l.b.b.b.b.b.b.b.m.b.b.b.b.b.f.$.7 < < 3 , @ & 8       ",
"                                        2.2.2.i.a.a.a.a.a.a.a.a.a.a.a.a.a.a.t.b l l a 1 9 q         ",
"                                              >.-.-.=.=.-.=.>.=.=.=.=.>.=.=.>.>.>.>.M ;             "
};
