/* XPM */
static char *_630099452740[] = {
/* columns rows colors chars-per-pixel */
"50 50 247 2 ",
"   c #010C14",
".  c #011527",
"X  c #002536",
"o  c #052B3B",
"O  c #152E38",
"+  c #2B3539",
"@  c #35383B",
"#  c #272E36",
"$  c #05364D",
"%  c #1B3A47",
"&  c #013452",
"*  c #003D5A",
"=  c #043B54",
"-  c #0A354F",
";  c #2F3D45",
":  c #273C4A",
">  c #313B43",
",  c #353E46",
"<  c #07455C",
"1  c #17465A",
"2  c #39434A",
"3  c #2A4B5D",
"4  c #294958",
"5  c #3A4A55",
"6  c #39535C",
"7  c #294A52",
"8  c #014464",
"9  c #0B4B64",
"0  c #034B6B",
"q  c #044968",
"w  c #164C67",
"e  c #07526A",
"r  c #1A556B",
"t  c #095675",
"y  c #145D7C",
"u  c #185976",
"i  c #225A6D",
"p  c #27556A",
"a  c #3A5A66",
"s  c #265B75",
"d  c #355B73",
"f  c #2C4C61",
"g  c #1F657B",
"h  c #2E6175",
"j  c #2C627A",
"k  c #246277",
"l  c #39667A",
"z  c #366974",
"x  c #43474A",
"c  c #464C54",
"v  c #4C5355",
"b  c #47545A",
"n  c #525457",
"m  c #504F55",
"M  c #465A65",
"N  c #585D62",
"B  c #495F74",
"V  c #49636C",
"C  c #5A6369",
"Z  c #476878",
"A  c #586B75",
"S  c #59747B",
"D  c #656D73",
"F  c #68757B",
"G  c #6C7578",
"H  c #70837F",
"J  c #0C5C80",
"K  c #196788",
"L  c #1A7395",
"P  c #12678B",
"I  c #276986",
"U  c #376A84",
"Y  c #357188",
"T  c #297696",
"R  c #3B7B93",
"E  c #357A98",
"W  c #2A6E93",
"Q  c #247EA3",
"!  c #397EA5",
"~  c #466D81",
"^  c #48778A",
"/  c #577787",
"(  c #477C97",
")  c #567E95",
"_  c #526D80",
"`  c #6C7C83",
"'  c #667C86",
"]  c #737E85",
"[  c #627F91",
"{  c #38809D",
"}  c #25809F",
"|  c #2A84A6",
" . c #3786A7",
".. c #3C8CB2",
"X. c #3A93B7",
"o. c #3C90AD",
"O. c #48859C",
"+. c #558599",
"@. c #6C8288",
"#. c #798489",
"$. c #698898",
"%. c #758B96",
"&. c #7D929C",
"*. c #6D939D",
"=. c #488AA6",
"-. c #5A8BA3",
";. c #548BA9",
":. c #4B96AD",
">. c #5692A8",
",. c #4998B7",
"<. c #5699B6",
"1. c #4E8EB2",
"2. c #6A94A9",
"3. c #7596A5",
"4. c #679DB6",
"5. c #799EB2",
"6. c #6F8DA2",
"7. c #58A1BB",
"8. c #4BA2BE",
"9. c #64A4BA",
"0. c #77A5BB",
"q. c #7DA1AC",
"w. c #39A0C3",
"e. c #569EC2",
"r. c #4AA5C8",
"t. c #55A4C4",
"y. c #5DABCC",
"u. c #57A6C7",
"i. c #55ADD4",
"p. c #5EACD0",
"a. c #5AB5DA",
"s. c #51B1D2",
"d. c #66ABC8",
"f. c #6BB3CB",
"g. c #74B5CB",
"h. c #64B4D3",
"j. c #6CBCDC",
"k. c #69B8D7",
"l. c #74B9D4",
"z. c #74BDDB",
"x. c #77BAD4",
"c. c #76ABC5",
"v. c #5EBBE1",
"b. c #64BDE2",
"n. c #6CBEE4",
"m. c #72BFE2",
"M. c #6CC3DD",
"N. c #7CC3DC",
"B. c #75C2DC",
"V. c #5FC0E3",
"C. c #65C2E3",
"Z. c #6BC3E4",
"A. c #65C5EB",
"S. c #6BC5EB",
"D. c #6CCAEC",
"F. c #69C9E7",
"G. c #73C4E3",
"H. c #7BC4E3",
"J. c #7BC9E5",
"K. c #72C4EA",
"L. c #73CAEC",
"P. c #7ACCEB",
"I. c #78C7E9",
"U. c #78D1ED",
"Y. c #6AC6F1",
"T. c #6DCBF2",
"R. c #65C8F1",
"E. c #75CCF2",
"W. c #7BCDF2",
"Q. c #71C5F1",
"!. c #7CD1F4",
"~. c #76D1F4",
"^. c #6CD2F8",
"/. c #83878B",
"(. c #868D92",
"). c #85959B",
"_. c #949398",
"`. c #869BA6",
"'. c #9AA5A9",
"]. c #8CABB9",
"[. c #96AAB6",
"{. c #8FB2BE",
"}. c #A7AEB2",
"|. c #AAB6BA",
" X c #ADAFB1",
".X c #99A49E",
"XX c #85AEC4",
"oX c #9AB5C4",
"OX c #81BBD3",
"+X c #94BDD3",
"@X c #8EB4C9",
"#X c #B2BBC2",
"$X c #A2B9C1",
"%X c #80BFE0",
"&X c #C5BFC1",
"*X c #83C4DB",
"=X c #8BC9DB",
"-X c #98C7D9",
";X c #96C2CF",
":X c #ADC6D0",
">X c #84CAE4",
",X c #84CDEB",
"<X c #8DCDEC",
"1X c #86C7E5",
"2X c #97CCE6",
"3X c #8AD3EB",
"4X c #9AD3E9",
"5X c #83CEF2",
"6X c #83D2F2",
"7X c #89D7F8",
"8X c #97DAF6",
"9X c #A7D6ED",
"0X c #B3D7E8",
"qX c #A7DCF4",
"wX c #B3DDF4",
"eX c #A9CDE1",
"rX c #9DEBFF",
"tX c #96E5FF",
"yX c #8DE0FF",
"uX c #A8E6FB",
"iX c #B6E6F9",
"pX c #A8F2FF",
"aX c #BBF8FF",
"sX c #C5C8CA",
"dX c #C7CBD2",
"fX c #CDD4D7",
"gX c #D5D8DA",
"hX c #D0D2D3",
"jX c #C3DCE9",
"kX c #D7DBE2",
"lX c #E0DFE5",
"zX c #D4E4E9",
"xX c #C4EAF9",
"cX c #CCF2FF",
"vX c #C9F8FE",
"bX c #DCFEFF",
"nX c #D6F8FD",
"mX c #D9ECF6",
"MX c #E7E7E9",
"NX c #EAEDF1",
"BX c #EBFFFF",
"VX c #E8F7FB",
"CX c #FBFBF7",
"ZX c #F9F6FB",
"AX c #F4FDFE",
"SX c #FDFEFE",
"DX c #F6F6F6",
/* pixels */
"SXSXSXSXSXSXSXSXSXSXCXCXSXSXCXSXSXSXSXZXSXSXSXSXSXSXSXSXSXSXSXSXSXSXSXSXSXSXSXSXZXSXSXSXAXSXSXSXCXSX",
"SXSXSXSXSXSXSXSXSXSXCXSXSXZXSX Xx n m m v c m m v v n n v v m m n n v c NXSXSXSXSXSXSXZXAXSXSXSXSXSX",
"SXSXSXSXSXSXSXSXSXCXSXCXZXSXMXG G #.] ] H F ` F ' @.F @.' @.@.G G @.@.@.#.SXSXSXSXSXAXAXAXSXSXSXSXSX",
"SXSXSXSXSXSXSXSXSXSXSXSXSXSX(.3.bXbXbXcXvXvXnXbXcXcXcXcXvXcXcXcXcXcXvXVXG  XCXCXSXAXCXSXSXSXSXSXSXSX",
"SXSXSXSXSXSXSXSXSXZXSXSXSXsXa xXOXx.k.z.M.k.%XuXz.z.H.z.l.l.l.J.x.x.*X+X0X5 SXSXSXZXCXSXSXSXSXSXSXSX",
"SXSXSXSXSXSXSXSXZXSXSXSXCXkX3 -X8X*XI.G.G.I.m.1XK.S.L.K.I.H.B.uX,X>XqXqX0.a SXSXSXCXCXCXSXSXSXSXSXSX",
"SXSXSXSXCXSXSXSXSXSXSXCXCXhX6 -.o 0.xXBXnXwXiX9Xz.z.z.x.xXBXcXiXxXXX$ % *.b BXSXZXSXCXSXSXSXSXSXSXSX",
"SXSXSXSXSXSXSXSXSXSXSXSXSXSX`.3 o %.M 2 5 5 : ) uXtXrX4X5 2 5 7 : 4 i w 3 :XAXAXSXSXSXSXSXSXSXSXSXSX",
"SXSXSXSXSXSXCXSXCXCXSXSXZXSX:X7 a `.> ] c x #.@.-.d.d.) A /.x c F / <.f.% AXSXCXSXSXSXCXSXCXSXSXSXSX",
"SXSXSXSXSXSXSXSXSXCXSXSXSXVX&.3.a [.B SX/.(.BX:X= K y w mXZXD '.AXiXh.u.Z }.SXCXSXSXSXCXSXSXCXSXSXSX",
"SXSXSXSXCXCXSXCXSXSXSXCXSXkX3 iXz O.B SX'.#XBX-XI | T { xXBX(.dXVX9X>Xt 2.M AXSXCXSXSXSXAXSXSXZXSXSX",
"SXCXSXSXCXCXSXSXSXSXCXCXSX:Xf *X:.= ( BXnXbXaXR f.aXpX<.;.bXnXVXiX+.g.9 +.M NXDXSXSXSXSXSXSXSXSXSXSX",
"SXSXSXSXCXCXSXZXAXSXCXSXC . = f.M. .y.,...T | 8.uXaXaX7X..Q Q  .u ( 0.^ 4.o . _.SXDXZXSXSXSXSXSXSXSX",
"SXSXSXZXSXAXSXSXSXkX+ # '.oX$  .Z.V.Y.b.Z.Z.j.P.8X9X4X8XP.S.b.k.:.u l O.+.1 0X` # DXSXCXSXSXSXSXSXSX",
"SXSXCXZXSXZXSX_.c D .Xq.9X2X9 y a.^.A.K.O.w f 3 4 3 3 3 f p w 9.1XW y 9.u k iX+X3.C #.SXSXAXSXSXSXSX",
"SXCXSXSXSXSXdXD C %.xXaX>Xh.y * w.R.T.7.r / ' Z Z ~ Z Z Z _ _ i z.y...t.$ :.l.8XcX@.D /.fXSXCXSXSXSX",
"SXZXSXSXSXDXF $XnXpXl.l.6XN.T * L s.R.,.>.vXvXpXuXuXuXuXuXaXvXR y.E.i.L 8 z.7Xz.l.vX0X% #.ZXSXSXCXCX",
"DXSXSXSXSX).3.wXf.z.b.K.pXP.h.J 0 L X.!.3Xk.N.B.m.m.M.Z.G.z.l.8X6Xk. .8 L !.tXG.j.g.2XbX' '.SXCXCXSX",
"SXSXAXSX:XA wXg.>X:.K 5XZ.K.E.t.8 & y o.F.D.S.Z.D.R.R.A.Y.E.G.J.3X4X0 t k.E.S.I.u <.1X@XiXN hXSXSXSX",
"CXSXSXSXdX2 4XN.4Xf.y 5XK.Y.Q.S.! y & t X.| v.^.b.r.s.r.a.S.D.J.8X*X* 7.S.S.S.P.1.u 1.Y 2X-X` DXSXSX",
"SXCXSXAXF ;X+.>.U i 1.E.h.a.s.Z.b.r.P 0 & & ..n.T * 9 < 0 p.!.E.6X<.t P.b.a.v.K.g.r 0.r 1XiX6 ZXSXCX",
"SXSXAX.X*.iXp +.% s z.S.K e q E W.Y.i.| * 8 J t.< < * < * =.!.a.I.o.I >Xy 8 W 1XH.Y ^ O.J.4X%.}.SXSX",
"AXSXSX5 4X=Xz 6.f d.,X=.a M V d <.W.K.k.X.X.9 ;.e :.,.,.R E ~.w.T.o.I -.a B d -.P.r.t M.j.1X0Xc SXSX",
"SXSXSXa 9.3Xs 5.s g.f.r jXSXSX&.=.5XG.L.^.Y.s O.g U.A.7X<.j E.| b.=.Y _ #XSX:X1 f.A.s.F.K.,X-XA DXSX",
"SXSXSXM d.!.z j w 1X^ 5.ZXSX'.F uXf.3XrXG.m.p ) k >Xn.7X>.j 7.& { =.h xXn kXSX%.k B.B.L.K.B.8X].` SX",
"ZXSXG ].3XD.B.t <.m.qX[ dXSX}.S pXM.pXI.Z.m.d +Xs 3XK.,X;.U R & u =.h cXc NXSXBXz <.7XtXZ.G.8XXX' SX",
"SX}.@.9Xm.6XtX7.n.i.m.4XA hX] :X*XM.6XE.S.m.r ( k >X8X7X=.U Y < r z j 9XoXF ZXoXg F.!.!.Z.m.J.4X$.}.",
"hX@.=X<X1XrX6XL.i.t.,.4XXXM 6 cXM.~.S.D.S.K.9 r k ,X7X7X;.U Y < < u I 1XeX&.#.B { D.Q.n.K.yXB.8X' /.",
".XS rXh.5X8XC.L.d.e J <.wX% -.qXM.F.D.Y.Y.S.y < T !.b.P.;.U U j r 8 T ,X+X0X. I a.F.D.Y.K.tX7X=XV `.",
"'.a <XE.S.Z.D.Z.>.p 9 Y 2.d iXx.J.Z.S.Y.T.Q.o.8 r.D.S.6X;.U l -.o.8 i.K.<X+X& =.7.Z.K.K.K.G.tX3XZ (.",
"}.a <XpXL.Z.D.B.3 VX[.% / f uXN.z.K.Y.Y.S.K.h.o.L.S.D.U.=.Z l >.K.X.L.G.<X2X$ $.1 4.,XK.S.S.A.3XZ &.",
"'.z <XS.L.L.L.x.f VXZXF   7 uX>XI <.W.S.S.L.y a.D.S.A.!.O.+.-.;.E.A.S.m.<X2X1 - X 9.8XrXZ.S.R.6XZ ).",
"'.Z 6XC.m.! ! <X-./ SXzX|.M uX*X{ 9 M.3X<XW J A.D.T.A.W.;.s h >.~.R.D.G.1X9Xw U & d.>X6XW.F.A.6XZ ).",
"'.f J.F.5XJ W <X*X~ '.SXSXM iXx.f.9 <.i ;.t  .~.D.A.Y.E.<.9 w :.E.T.b.G.2X9X& =.E p.7X8.| Z.D.J.a #.",
"hXV 9.G.1.K I >XB.O.V CXZXM wXN.*Xr q.o s t a.L.A.D.A.E.e.8 8 u.~.S.6X<X2X2XX i 8.a.h.g | A.L.d.a dX",
"SX).Y z.w U I d.=.i ).CX&X5 iXx.N.i ].d E P n.L.!.S.L.I.b.P P Z.D.Z.yX8X2X-XO 3 I E r $ u.D.5X( @.AX",
"SX`.i *XZ 2.2.p o V CXMXm > uXH.K.t p ( u.i.J.!.rXZ.k.B.E.i.r.E.A.T.S.K.4XOX$.(.. + O O k f.N.j %.AX",
"SXBX^ ^ a BX$.2 2 DX X  |.cXN.G.E.! u 1.D.A.D.L.M.P.u u.W.b.F.L.L.S.F.P.j.4X[.   XSXNXAX@.l 0.l AXSX",
"SXAX_ / b CXVXc sXhXC xX2X>XL.F.n.n...b.D.D.Y.S.D.L.i +.W I.S.F.rXB.Z.D.D.G.2XjXC MXSXSXNXZ / B AXSX",
"ZXSXS S N CXSXdXgX] {.uXJ.C.L.D.E.E.a.T.S.F.T.T.F.P.r @Xu %XZ.Z.8XtXZ.F.T.n.<XwXoXF SXSXSXN `.A AXCX",
"DXSXD ).C SXSXSXMXc cXl.I.D.n.6XyXS.E.F.E.E.S.S.S.W.! ( ! K.L.S.U.7XL.L.U.U.B.N.qX$.'.SXSXC &.V SXSX",
"CXSXA ).n SXSXSX|.@.-Xf.u.j.I.tX7XZ.D.L.y.y.I.n.j.m.4.w e.G.r.j.F.S.p.p.u.,.J.u.g.0Xc ZXSXC F F AXZX",
"ZXAXS 5 v SXSXNXc zXZ Y s 7.8XyXZ.Z.h.J.K t l.f.O.R ( -.( =.0 ,.E.!.E R e = N.I O.9XA NXSXN ' @.SXSX",
"SXSXS 7 v SXSXZXb wX+.^ j 7.J.P.L.k.e f.O.$ * 2.X o X o X X < =.Z.L.k.0 { g U l O.qX[.D SXC $.A SXSX",
"SXSXNX5 hXSXSXF {.9X~ -.U 7.U.L.I 1.t :.- ].d ) A VXzXzXzXmX_ 9 t.R.j.k.Z.T U +.Y uXXXD SXF $.B SXSX",
"SXSXSXdXSXSXSXM ;X2X-.w u g.B.B.4.r =.=.X +X~ M C AXCXAXZXZX$.$ ,.C.8X7XG.7.d p 9.OXeX` |.@._ V SXCX",
"SXSXSXSXSXSXsX(.iXiXiXY 4.uX8XuXwXc.6X<.d _ `.c |.SXSXDXSXkXp Y y.8XiXiXqXpX9.+.wXaXxX0X%._ c.~ :XSX",
"SXSXSXCXCXNX@ D `.*.].Z ) 5.2.6.6.5.-.l p . #._.SXSXSXSXNXN X j U 2.6.3.*.*.+.+.*.[.%.oXa : -.% , MX",
"SXSXSXCXSX X@ @ @ > > > , > > > > > , , 2 2 x SXSXSXZXSXdX@ 2 2 7 ; > > > > > ; > @ > 2 2 , 2 2 @ '.",
"SXSXSXSXSXSXSXSXSXSXSXSXSXSXSXSXSXSXSXSXSXSXSXSXSXSXZXSXSXSXSXSXSXSXSXSXSXSXSXSXSXSXSXSXSXSXSXSXSXSX"
};
