/* XPM */
static char *_630673639638[] = {
/* columns rows colors chars-per-pixel */
"50 50 177 2 ",
"   c #0D1C1E",
".  c #1D1D1D",
"X  c #240500",
"o  c #260D02",
"O  c #2A0D01",
"+  c #300F02",
"@  c #2B1103",
"#  c #341403",
"$  c #3A1602",
"%  c #3D1903",
"&  c #321709",
"*  c #34190A",
"=  c #3A1D0C",
"-  c #291C12",
";  c #3C200C",
":  c #292014",
">  c #3A2310",
",  c #182C2E",
"<  c #1E3235",
"1  c #2B2A2A",
"2  c #3D342C",
"3  c #263537",
"4  c #431C03",
"5  c #491F04",
"6  c #541C05",
"7  c #4C2205",
"8  c #45230C",
"9  c #4A240A",
"0  c #532607",
"q  c #562807",
"w  c #542608",
"e  c #56280A",
"r  c #5C2B0A",
"t  c #402211",
"y  c #4A2915",
"u  c #4E2C18",
"i  c #562D13",
"p  c #5A2E11",
"a  c #5D3114",
"s  c #563119",
"d  c #5A341C",
"f  c #543013",
"g  c #622E0C",
"h  c #6F3906",
"j  c #65310D",
"k  c #6A340E",
"l  c #653204",
"z  c #733A0B",
"x  c #7A3F0A",
"c  c #653311",
"v  c #6C3611",
"b  c #6E3913",
"n  c #643719",
"m  c #6D3D1C",
"M  c #703711",
"N  c #733B14",
"B  c #793E15",
"V  c #753E18",
"C  c #40352B",
"Z  c #5C3A23",
"A  c #5A3B28",
"S  c #623B23",
"D  c #6B3F21",
"F  c #763E2C",
"G  c #3D403B",
"H  c #6D411E",
"J  c #7B4117",
"K  c #75411C",
"L  c #7C4219",
"P  c #6D4427",
"I  c #6D452A",
"U  c #754524",
"Y  c #7D4721",
"T  c #774827",
"R  c #7D4A23",
"E  c #794C2C",
"W  c #764A2B",
"Q  c #7E5130",
"!  c #7C563A",
"~  c #435658",
"^  c #605B57",
"/  c #4C5F62",
"(  c #446266",
")  c #787572",
"_  c #82451A",
"`  c #854A1E",
"'  c #894C1E",
"]  c #854C23",
"[  c #894E21",
"{  c #924F22",
"}  c #8D5125",
"|  c #8F5A2C",
" . c #80552C",
".. c #925525",
"X. c #965A22",
"o. c #9C5F22",
"O. c #9C5D2B",
"+. c #995626",
"@. c #8C5A34",
"#. c #815735",
"$. c #A25A25",
"%. c #A35F2D",
"&. c #9E6025",
"*. c #9C632F",
"=. c #8F6031",
"-. c #8D623D",
";. c #976035",
":. c #98653C",
">. c #996439",
",. c #A06326",
"<. c #AB6D2E",
"1. c #A96428",
"2. c #B36A2F",
"3. c #BC6D2A",
"4. c #AE712D",
"5. c #BA772F",
"6. c #A36737",
"7. c #AB6730",
"8. c #A66A34",
"9. c #A96B31",
"0. c #A36C3F",
"q. c #A57037",
"w. c #AF7037",
"e. c #B47234",
"r. c #BE7C34",
"t. c #B1733B",
"y. c #B5783A",
"u. c #BA7738",
"i. c #AD5946",
"p. c #906241",
"a. c #96714F",
"s. c #886751",
"d. c #876956",
"f. c #8E6B52",
"g. c #A46F43",
"h. c #A47244",
"j. c #AB7344",
"k. c #B17A40",
"l. c #B57D4B",
"z. c #B87F4D",
"x. c #B46256",
"c. c #A87B5A",
"v. c #B07C50",
"b. c #70837E",
"n. c #BD803C",
"m. c #CB8534",
"M. c #C4843D",
"N. c #C8853D",
"B. c #D6903E",
"V. c #958057",
"C. c #BA824F",
"Z. c #B6845A",
"A. c #938366",
"S. c #CC8B43",
"D. c #CC8346",
"F. c #DE9847",
"G. c #DB984E",
"H. c #C08753",
"J. c #C38853",
"K. c #C68F5A",
"L. c #C88D56",
"P. c #CE9259",
"I. c #D59756",
"U. c #E59F4E",
"Y. c #EEA859",
"T. c #E8A458",
"R. c #DB9E62",
"E. c #DEA064",
"W. c #E5A769",
"Q. c #87989A",
"!. c #91A09F",
"~. c #B3AAA1",
"^. c #A7BCBF",
"/. c #AFB2B2",
"(. c #B2B9B5",
"). c #C6CBCC",
"_. c None",
/* pixels */
"_._._._._._._._._._._._._._._._._._._._._._._._._._._._._._._._._._._._._._._._._._._._._._._._._._.",
"_._._._._._._._._._._._._._._._._._._._._._._._._._._._._._._._._._._._._._._._._._._._._._._._._._.",
"_._._._._._._._._._._._._._._._._.w w w 0 7 7 7 _._._._._._._._._._._._._._._._._._._._._._._._._._.",
"_._._._._._._._._._._._._._._.r j j j j r q 7 0 l j _._._._._._._._._._._._._._._._._._._._._._._._.",
"_._._._._._._._._._._._._._.h x z v v v j g r q 7 9 a _._._._._._._._._._._._._._._._._._._._._._._.",
"_._._._._._._._._._._._._.h z k M k v N N c r 7 7 w a b _._._._._._._._._._._._._._._._._._._._._._.",
"_._._._._._._._._._._._._.j e e q r v _ X._ g 7 8 : C : y _._._._._._._._._._._._._._._._._._._._._.",
"_._._._._._._._._._._._.w 0 5 7 7 7 j X.5.5.J 8 G   ( ) H _._._._._._._._._._._._._._._._._._._._._.",
"_._._._._._._._._._._._.i i 8 ; ; ; 0 &.m.B.q.A /.. / ~.O.t._._._._._._._._._._._._._._._._._._._._.",
"_._._._._._._._._._._._.= - 3   , 2 7 o.m.F.F.-.!.~ b.l.1.w._._._._._._._._._._._._._._._._._._._._.",
"_._._._._._._._._._._._.8 ^ ).< < Q.Z o.n.q.=.W ! h.e.5.1.6.K._._._._._._._._._._._._._._._._._._._.",
"_._._._._._._._._._._._.c d.^.< ( (.-.X.8 @ @ &  .N.e.2.+.} J._._._._._._._._._._._._._._._._._._._.",
"_._._._._._._._._._._._.j L a.c.V.y.r.<.8 ; @ f u.G.w.%.] U z._._._._._._._._._._._._._._._._._._._.",
"_._._._._._._._._._._.4 r _ $.2.5.y.y.M.M.n.| 4.T.T.t...m n j._._._._._._._._._._._._._._._._._._._.",
"_._._._._._._._._._._.9 c Y { $.9.8.>.N.Y.Y.S.&.r.y...N r p j._._._._._._._._._._._._._._._._._._._.",
"_._._._._._._._._._._._.e v _ { o.9.*.<.n.8.b 6 J L N g 0 p k._._._._._._._._._._._._._._._._._._._.",
"_._._._._._._._._._._._.0 g M B [ ....o.` T x.i.7.` g q 0 p l._._._._._._._._._._._._._._._._._._._.",
"_._._._._._._._._._._._.5 g k M N k M L &.u.D.D.w.k r q 7 i :.E._._._._._._._._._._._._._._._._._._.",
"_._._._._._._._._._._._.4 0 b M M k k j M ' X.' k r r 0 7 8 s l._._._._._._._._._._._._._._._._._._.",
"_._._._._._._._._._._._._.% e b M b k k j g r g r r q 7 4 # % U P._._._._._._._._._._._._._._._._._.",
"_._._._._._._._._._._._._.# 5 r b M v k j j g g r q q 7 4 $ $ 9 =.R._._._._._._._._._._._._._._._._.",
"_._._._._._._._._._._._._.$ 4 7 j k b k k j g g g q q 7 4 % % 8 i g.W._._._._._._._._._._._._._._._.",
"_._._._._._._._._._._._._.0 e e r j k v k k g g g r q 7 7 4 7 4 4 d l._._._._._._._._._._._._._._._.",
"_._._._._._._._._._._._.7 r g g k k j k k j g j g g q 0 7 7 7 7 4 % D C._._._._._._._._._._._._._._.",
"_._._._._._._._._._._._.e g v b M M k j j k k g g g r w e e w w 5 4 % d :.J.R._._._._._._._._._._._.",
"_._._._._._._._._._._._.r k b B B N b k k k g k j j r n M v j j r q 5 % 8 s E j.P._._._._._._._._._.",
"_._._._._._._._._._._.w g v B L J B N M k g g g j r m K c j j j j g e 4 $ $ = u E l._._._._._._._._.",
"_._._._._._._._._._._.e j b B ` _ J B N M k k g g j Q V v j j j g r q 7 5 % $ # > S j._._._._._._._.",
"_._._._._._._._._._._.e g b L ` ' _ J B N k k k g n R M c j j j e 7 4 7 q 5 4 $ # = d g._._._._._._.",
"_._._._._._._._._._._.r g b L [ } ' _ B B N M k g m R b v j j r 6 4 $ 7 e q 7 4 $ # * d j._._._._._.",
"_._._._._._._._._._._.r g b _ [ } } ` _ J B N k g T Y m b v j w $ X O 5 g r e 5 4 $ # * S l._._._._.",
"_._._._._._._._._.j e g j g L [ } [ ' ` _ B B b j Q ] K V N r 4 X X O q g g e 9 5 4 $ # ; W L._._._.",
"_._._._._._._.P r 9 7 g j g N ` } } [ ` ` L B B g #.p.] ] g 4 + X + 4 g g g r q 5 5 4 # # y :._._._.",
"_._._._._._._.c r r e j g r p _ } ..} [ ` _ L B k p ! W e 4 + O # $ 5 g g g g q 0 4 4 $ @ * P J._._.",
"_._._._._.@.Y v v g r j c r 9 N [ } } [ ' ` _ B N r 4 4 $ + + $ $ 4 r g g g g q 5 5 4 $ # # u h._._.",
"_._._.s.c.@.V j e e e v j r 5 r ` } } } [ ` _ L B M j e 4 4 4 $ $ 5 g g g g q 0 7 4 4 $ @ @ = @._._.",
"_._._.Z I p 9 4 % % e M j g 5 4 b ` } } [ [ ` _ L N k k e 4 4 $ 4 6 g r r q 0 5 5 4 % # # @ * E _._.",
"_._._._._._._._._._.g M j g 9 # 9 J [ } } ' ` L B V b k g 0 5 5 q g g r q 0 5 5 4 % $ # # o & I _._.",
"_._._._._._._._._._.N k k g 0 # # w N ` [ } [ _ L V M k k g r r g g q q 0 5 5 4 % # # # # o & P _._.",
"_._._._._._._._._.B B k g g e $ _.# 7 v L ` ` ] L N N n v c v g g q q 6 5 4 4 $ % # # # o @ = S _._.",
"_._._._._._._._.b L N k g k q $ _._.# 5 e b L L L K N b k c j g r q 0 7 4 % $ # # # @ @ @ @ > _._._.",
"_._._._._._._.V ` B M k g g e $ _._._.# $ 5 w c b b v v j j g r q 7 4 $ # # # # @ @ o o @ * _._._._.",
"_._._._._.K ` ' B M k g g g 0 $ # _._._.# # $ 4 7 w w r e w 0 5 % $ # # @ @ @ @ @ o o @ & _._._._._.",
"_._._.p.;...' J B M M k j q 4 # _._._._._._.# # # # # # $ # # @ @ @ @ @ @ @ o @ o o _._._._._._._._.",
"_._.f.Z.6.O.{ _ B M k e 0 4 $ + _._._._._._._._._.@ @ @ @ @ o @ @ @ _._._._._._._._._._._._._._._._.",
"_.4 i P m b k g r 0 4 % $ $ # _._._._._._._._._._._._._._._._._._._._._._._._._._._._._._._._._._._.",
"_._.$ % % 4 4 4 $ $ $ $ $ _._._._._._._._._._._._._._._._._._._._._._._._._._._._._._._._._._._._._.",
"_._._._._._._._._._._._._._._._._._._._._._._._._._._._._._._._._._._._._._._._._._._._._._._._._._.",
"_._._._._._._._._._._._._._._._._._._._._._._._._._._._._._._._._._._._._._._._._._._._._._._._._._.",
"_._._._._._._._._._._._._._._._._._._._._._._._._._._._._._._._._._._._._._._._._._._._._._._._._._."
};
