/* XPM */
static char *ping1630167501[] = {
/* columns rows colors chars-per-pixel */
"50 50 184 2 ",
"   c None",
".  c #0D0C0E",
"X  c #0E0E10",
"o  c #100F11",
"O  c #131213",
"+  c #1B1413",
"@  c #1C1B1D",
"#  c #191718",
"$  c #221612",
"%  c #2C1A14",
"&  c #341C15",
"*  c #3B1E13",
"=  c #3D231B",
"-  c #392112",
";  c #242324",
":  c #2C2C2D",
">  c #27292A",
",  c #302323",
"<  c #312F30",
"1  c #353435",
"2  c #3B3B3C",
"3  c #383738",
"4  c #431F13",
"5  c #54250E",
"6  c #442114",
"7  c #412218",
"8  c #532311",
"9  c #5B2511",
"0  c #522A1B",
"q  c #6B280D",
"w  c #762E0F",
"e  c #7E340E",
"r  c #652811",
"t  c #652811",
"y  c #712E12",
"u  c #6D3619",
"i  c #743216",
"p  c #442C23",
"a  c #472F2A",
"s  c #4B342C",
"d  c #42322C",
"f  c #56382C",
"g  c #403E3D",
"h  c #583D39",
"j  c #693422",
"k  c #603B2C",
"l  c #4A433F",
"z  c #58453D",
"x  c #63493D",
"c  c #714733",
"v  c #434444",
"b  c #4B4C4C",
"n  c #444948",
"m  c #4F4F50",
"M  c #545453",
"N  c #565C5B",
"B  c #5D5C5C",
"V  c #5B5855",
"C  c #60544B",
"Z  c #665851",
"A  c #59615F",
"S  c #6F645D",
"D  c #67625B",
"F  c #77645D",
"G  c #5F5F60",
"H  c #5C6562",
"J  c #5F6865",
"K  c #646462",
"L  c #616A67",
"P  c #646D69",
"I  c #6A6C6A",
"U  c #686665",
"Y  c #66716D",
"T  c #6A726E",
"R  c #76726D",
"E  c #6B7571",
"W  c #6E7A75",
"Q  c #737373",
"!  c #7C7672",
"~  c #717C77",
"^  c #7E7B74",
"/  c #737E79",
"(  c #7C7C7C",
")  c #9C4C15",
"_  c #85472A",
"`  c #945327",
"'  c #864E32",
"]  c #8E5235",
"[  c #975839",
"{  c #8F5A42",
"}  c #945A5A",
"|  c #9A6343",
" . c #85685C",
".. c #996651",
"X. c #A36F52",
"o. c #A4745C",
"O. c #8A796C",
"+. c #937B67",
"@. c #887A75",
"#. c #A67E6D",
"$. c #75817B",
"%. c #78847F",
"&. c #82827C",
"*. c #9D857B",
"=. c #B1896B",
"-. c #A38071",
";. c #B58E72",
":. c #B3907F",
">. c #7C8681",
",. c #7E8984",
"<. c #848584",
"1. c #818B86",
"2. c #8A8986",
"3. c #848D89",
"4. c #8B8B8A",
"5. c #9B8A83",
"6. c #85908A",
"7. c #8A958E",
"8. c #93928F",
"9. c #99998F",
"0. c #8E9591",
"q. c #8E9991",
"w. c #929593",
"e. c #939C95",
"r. c #9A9B9A",
"t. c #9B9992",
"y. c #BB9B8C",
"u. c #A19C97",
"i. c #96A197",
"p. c #9AA49C",
"a. c #9FAA9F",
"s. c #AAA69C",
"d. c #B6A99B",
"f. c #A2A3A1",
"g. c #A2ACA2",
"h. c #ACACAB",
"j. c #A7B1A5",
"k. c #A9B3A7",
"l. c #ACB5AA",
"z. c #AEB8AC",
"x. c #B5B4AC",
"c. c #B1BBAE",
"v. c #B4B4B3",
"b. c #B5BEB1",
"n. c #BEBDB4",
"m. c #BBBCBA",
"M. c #B7BCB9",
"N. c #CCBCAC",
"B. c #C7B4A4",
"V. c #C5BFB7",
"C. c #B7C0B3",
"Z. c #BAC3B5",
"A. c #BEC5B9",
"S. c #C3C5BC",
"D. c #CAC7BD",
"F. c #C4CABD",
"G. c #D7C8BA",
"H. c #BFC3C1",
"J. c #C2C2C2",
"K. c #CACDC3",
"L. c #CBCCCB",
"P. c #C9C9C1",
"I. c #D3CDC3",
"U. c #D9CCC4",
"Y. c #CED1C5",
"T. c #D1D2C6",
"R. c #D4D5CA",
"E. c #D7D8CC",
"W. c #DADBCE",
"Q. c #DAD7CC",
"!. c #D3D4D2",
"~. c #DDDDD1",
"^. c #DAD9D6",
"/. c #E4DACC",
"(. c #E0DFD2",
"). c #DFE0D3",
"_. c #E4E2D5",
"`. c #E7E5D8",
"'. c #E9E6D9",
"]. c #EEE9DD",
"[. c #E8E5D7",
"{. c #F0EBDF",
"}. c gray93",
"|. c #F0ECE0",
/* pixels */
"                                                        L.2.M 2 M ( M.                              ",
"                                                      J.x.S.x.K > 1 < I L.                          ",
"                                                    v.I.'._._.R.n.F.%.; v S.                        ",
"                                                  f.V.'.'._.W.R.E.W.S.e.t.w.                        ",
"                                                h.R [.'.Q.S.K.R.T.A.a.p.c.c.!.                      ",
"                                              L.2.T.'.~.L.g.g.R.K.i.,.a.c.k.M.                      ",
"                                              2.D.G./.T.q.n w.T.s.,.7.p.c.g.v.                      ",
"                                            w.8./.| | =.+.O.s.;.O.a.s.8.j.p.p.                      ",
"                                          M.M T._.X.9 - u ` ` ) ` t.N Y e.7.w.                      ",
"                                        ^.b ^ [.'.N._ * + + $ % 6 x S T >.1.4.                      ",
"                                        &.> V.'.[.[.B.' 0 h , + O $ = f C $.s.                      ",
"                                      h.@ V '.].'.[.[.N.] [ } d + O + $ a I r.                      ",
"                                    L.3 O u.|.{.].]._.(.d.c j 0 = p s z I / w.                      ",
"                                  L.b o g Q.|.{.{.].'.~.F.9.D C D P T W $.T w.                      ",
"                          h.4.K M 3 O # t.|.{.].{.{.{.'.W.c.>.Y Y P L P E N <.                      ",
"                    !.4.v # O b 3 o O K _.{.{.{.{.{.|.].{._.l.E N N N H Y v 4.                      ",
"                  4.3 o X 1 r.J.1 o M U.{.{.{.{.{.|.|.{.].].W.a.P V N A L 3 Q                       ",
"              v.b O . > Q   }.( : ! Q.{.].].].{.|.|.].{.].'.'.R.q.L A H J : I                       ",
"            ( ; . # G m.    L.2.D.'.'.].].].{.{.{.|.{.].|.'.'.'.F.6.L H P > m                       ",
"        L.M o X v h.        J.(.'.[.[.[.'.].].].|.|.{.{.].'.'.'._.A.%.L Y : 1                       ",
"      J.3 . : 8.          !.R.'.'.'.'.'.].].].].{.|.|.|.].].'.'._.).k.$.Y 2 # r.                    ",
"    L.2 # U L.            P.`.`.[.'.[.'.].].].].|.].].].].'.'.`._.~.Y.i.E b X @ Q !.                ",
"    B > r.              R.~.[.[.'.'.'.].].].].].].|.|.].].'.`._.).).R.Z.,.H @ m @ g M.              ",
"  t.3 v.                E.[.'.[.'.'.].].].].].].|.].{.{.'.'.`._._.^.R.Y.a.$.3 0.K . < v.            ",
"L.M v.                  (.[.[.'.'.'.'.'.].].].{.|.].].].`.`.`._.).E.R.Y.Z.e.J e.v.; X 3 J.          ",
"f.v.                  !._._.[.[.'.'.{.{.'.].].].].].].].]._.(.(.).E.T.Y.A.z.>.p.  E X X b           ",
"                      ~._._._.[.'.].'.].].].].].].].].].`.`._.~.W.R.Y.K.A.Z.i.i.    g X O (         ",
"                      _._._.[.[.'.'.].'.'.'.'.].].].`.`.`.(.(.W.R.R.K.A.A.C.g.i.    h.@ X @ v.      ",
"                      (._._._._.[.'.'.[.'.'.'.`.'.`.`._.(.~.Q.T.Y.Y.A.A.C.z.a.p.      Q X X v       ",
"                      (._._._._._._._._.`.`.`.`.`._.).).~.R.R.T.Y.A.A.Z.b.k.p.e.        v X o 4.    ",
"                      (._.(.(.(.(._._._._._._.).).~.).^.E.Y.Y.P.A.Z.C.c.z.a.0.0.        v.; X : L.  ",
"                      W._.W.(.W.W.W.W.W.~.~.~.~.~.~.E.R.T.Y.F.A.Z.C.z.z.a.e.>.e.          4.O X <.  ",
"                      W.~.W.W.W.E.E.E.E.E.E.W.E.E.T.Y.Y.A.A.A.Z.C.C.a.a.e.,.$.j.            G X g   ",
"                      E.W.W.E.E.R.Y.Y.R.Y.Y.Y.R.Y.K.K.A.C.C.A.C.C.j.a.q.,.$.$.A.            L.: # h.",
"              y.y.    R.E.R.R.Y.K.K.K.K.K.A.A.A.A.Z.A.Z.C.C.C.C.j.a.,.,.$.$.6.                8.o <.",
"            U.#.e U.  ^.R.Y.F.F.A.Z.Z.Z.Z.Z.Z.Z.C.C.C.C.C.j.a.a.i.,.%.%.$.$.C.                  3 G ",
"            o._ e -.D.).E.Y.A.C.C.c.c.c.z.z.z.l.C.C.C.j.a.a.a.7.,.%.$.$.$.,.                    Q V ",
"            ..y y i { G.^.T.Z.k.j.j.j.j.j.g.a.a.a.a.j.a.i.q.,.%.$.%.$.$.%.Z.                    H.U ",
"            -.q t q i | B.F.j.i.7.7.7.7.q.q.7.q.q.q.7.,.,.$.$.$.$.$.$.%.p.                        m.",
"            V.j 9 9 t e [ p.7.,.>.$.$./ $.$./ >.$.$.$.$.$.$.$.$.$.$.$.,.                            ",
"              *.5 9 9 9 u @.>./ / ~ ~ ~ ~ E W W ~ ~ ~ / / / / / / / ,.L.                            ",
"                 .8 8 8 f ! >./ W E Y E E E E Y E E W W ~ ~ ~ ~ E 3.L.                              ",
"                  O.0 F L.  L.L.m.g.0.>./ Y L J P Y Y E Y E Y W p.                                  ",
"                    P.^.                !.v.J G H H J L L P 3.H.                                    ",
"                                            4.M N A A L <.J.                                        ",
"                                            U d v K 0.H.                                            ",
"                                          @.7 4 s V.                                                ",
"                                        J.p 6 4 7 Z f.                                              ",
"                                        L.s * & % & 7 f O.P.                                        ",
"                                          u.z h @.S C k 5.                                          "
};
