/* XPM */
static char *_630099432838[] = {
/* columns rows colors chars-per-pixel */
"50 50 156 2 ",
"   c #2E1C0A",
".  c #361F07",
"X  c #391F06",
"o  c #311D0A",
"O  c #2E1F11",
"+  c #3C2207",
"@  c #35210D",
"#  c #3A220A",
"$  c #2E2114",
"%  c #332314",
"&  c #3B2611",
"*  c #3E2813",
"=  c #342619",
"-  c #35291D",
";  c #3B2C1D",
":  c #372C22",
">  c #392E23",
",  c #3B3126",
"<  c #3C342B",
"1  c #3F382F",
"2  c #3C3732",
"3  c #3F3932",
"4  c #432506",
"5  c #492704",
"6  c #4D2A04",
"7  c #412609",
"8  c #46290B",
"9  c #4C2B09",
"0  c #542D03",
"q  c #582F04",
"w  c #542F08",
"e  c #573006",
"r  c #5A3106",
"t  c #573109",
"y  c #5B330A",
"u  c #422B12",
"i  c #4D2F10",
"p  c #4D3112",
"a  c #4E3419",
"s  c #523313",
"d  c #5A3612",
"f  c #5D3913",
"g  c #573A1D",
"h  c #5C3B1A",
"j  c #61370B",
"k  c #653A0D",
"l  c #633C13",
"z  c #693E12",
"x  c #623E18",
"c  c #433324",
"v  c #4D3925",
"b  c #41362C",
"n  c #44392E",
"m  c #493C2E",
"M  c #563C21",
"N  c #433C34",
"B  c #483F36",
"V  c #463F38",
"C  c #6D4216",
"Z  c #64421E",
"A  c #6D451B",
"S  c #734516",
"D  c #774817",
"F  c #474037",
"G  c #4A4036",
"H  c #46413A",
"J  c #4A443C",
"K  c #524436",
"L  c #50473D",
"P  c #53493E",
"I  c #614222",
"U  c #6C4720",
"Y  c #6D4924",
"T  c #6B4B29",
"R  c #724C25",
"E  c #674E34",
"W  c #6D4F30",
"Q  c #624F3B",
"!  c #6B5136",
"~  c #6E553C",
"^  c #70563B",
"/  c #4B4641",
"(  c #4E4A44",
")  c #524C45",
"_  c #544E48",
"`  c #575047",
"'  c #56514B",
"]  c #5A544D",
"[  c #5C5651",
"{  c #5E5954",
"}  c #615343",
"|  c #6A5641",
" . c #6E5841",
".. c #625C55",
"X. c #685F57",
"o. c #635E59",
"O. c #66615A",
"+. c #6B635B",
"@. c #7D6D5D",
"#. c #676460",
"$. c #6C6661",
"%. c #6E6963",
"&. c #726B63",
"*. c #796F65",
"=. c #756F68",
"-. c #7A7067",
";. c #76716B",
":. c #7C756E",
">. c #7A7671",
",. c #7E7973",
"<. c #81776E",
"1. c #807A73",
"2. c #847F7A",
"3. c #85817C",
"4. c #8A8682",
"5. c #8D8985",
"6. c #8E8B88",
"7. c #918C87",
"8. c #928E8A",
"9. c #96918D",
"0. c #98948F",
"q. c #979491",
"w. c #9A9692",
"e. c #9F9C99",
"r. c #A19D9A",
"t. c #A4A19D",
"y. c #ABA59F",
"u. c #A6A4A1",
"i. c #AAA6A2",
"p. c #ADA9A6",
"a. c #ADABA8",
"s. c #B2AFAC",
"d. c #B3B0AE",
"f. c #B6B3B1",
"g. c #B9B6B4",
"h. c #BBB9B6",
"j. c #BEBBB9",
"k. c #C1BEBB",
"l. c #C3C1BF",
"z. c #C4C3C1",
"x. c #C8C6C4",
"c. c #CBC9C7",
"v. c #CDCCCA",
"b. c #D0CFCE",
"n. c #D4D0CD",
"m. c #D5D3D2",
"M. c #D8D5D3",
"N. c #D9D8D6",
"B. c #DDDCDB",
"V. c #E0DFDE",
"C. c #E4E3E2",
"Z. c #E8E7E6",
"A. c #E8E8E7",
"S. c #ECECEC",
"D. c #F0F0EF",
"F. c #F3F3F3",
/* pixels */
"F.F.F.F.F.F.S.F.F.F.F.D.F.F.F.F.F.F.F.c.4.#.#.>.4.,.#.{ #.#.,.i.m.F.F.F.F.F.F.F.F.F.F.F.D.F.D.F.F.D.",
"F.F.F.F.F.F.F.F.D.F.F.F.F.F.F.F.F.m.7.{ ( ( ( ( H / ( / N ( { O.%.e.S.F.F.F.F.F.F.F.F.F.F.F.F.F.F.F.",
"F.F.F.F.F.F.F.F.F.F.F.F.F.F.B.b.q.=.' B ( ( ( ' / H ( ( / N < H N N 9.p.u.z.A.F.F.F.F.F.F.F.F.F.F.F.",
"F.F.F.F.F.F.F.F.F.F.F.F.F.z.[ ' { { ..N / ( ( ( 2 / ( ( ( J > , - , { { { o.q.S.F.F.F.F.F.F.F.F.F.F.",
"F.F.F.F.F.F.F.F.F.F.F.D.x.=.N < _ o.[ > > N B 2 > 1 1 F J < < 3 > / o.[ { { { z.F.F.F.F.F.F.F.F.F.F.",
"F.F.F.F.F.F.F.F.F.F.B.7.] ..{ _ N / J - o O % % O     $ = % = : < ' o.{ { [ o.>.f.C.F.F.F.F.F.F.F.F.",
"F.F.F.F.F.F.F.F.F.S.,.N { { [ { / < < % o o   o . # # .         % B ' ] ' o.{ 3 N 2.D.F.F.F.F.F.D.F.",
"F.F.F.F.S.F.F.F.F.d.B < ..{ { { _ % O     . 4 6 6 0 0 5 t t +     % > 3 ( ' / : < ' V.F.D.F.F.F.F.F.",
"F.F.F.F.F.F.F.F.j._ < : / ..o.{ B o o X 5 6 0 0 0 0 0 0 e r e 0 +   o o > N 3 B V N u.F.F.F.F.F.F.F.",
"F.F.F.F.F.F.F.Z.#.2 3 2 , V / V % o 4 0 0 0 6 q 0 0 0 6 e e e e 0 4     . % N ) ( H V d.F.F.F.F.F.D.",
"D.F.F.F.F.F.F.A.O.< < : N 1 =   . 9 0 q 6 6 6 0 e 0 0 0 y r q q 0 0 7 o     , ) ( / < ] B.F.F.F.F.F.",
"F.F.F.F.F.F.F.p.+.{ / : : -     9 q 0 0 0 0 0 0 e 0 0 0 e r e 0 0 0 w w     % H ( / 2 N l.F.F.F.F.F.",
"F.F.F.F.D.F.b.#.{ { [ / @ o   4 t e 0 0 0 6 6 0 q 0 0 6 e y e 0 0 0 0 r 4 o . = V 2 : N j.F.F.F.F.F.",
"D.F.F.F.F.F.k.o.{ { _ H %   X 6 t r 0 q 0 0 0 0 q 0 0 6 e y e q 0 0 w q 0 X   o % , / { 2.Z.F.F.F.F.",
"F.F.F.F.F.F.v.{ { { _ 3 % o 5 6 r e 0 e 0 6 0 q q q 0 0 0 r e 0 0 0 w q q 0 o o o ) ..o.&.V.F.F.F.D.",
"F.F.F.F.F.C.8.b < N , - O + 0 6 t r 0 0 0 0 0 0 e 0 0 0 0 j e 0 0 0 0 t 0 q +   & ' ......c.F.F.F.F.",
"F.F.F.F.Z.6..._ , V % o   6 0 6 t r w 0 0 0 6 0 q q 0 6 0 j q 0 0 0 0 q q q 6 o o ` ../ b =.m.F.F.F.",
"F.F.F.F.l.o.{ ( b V : o X q 0 6 y r e 0 6 0 0 q 0 q 0 6 6 q q 0 0 6 6 q q q 0 . o / [ B H { u.F.F.F.",
"F.F.F.F.h...[ 2 N N =   4 q 6 6 r r 0 e 0 0 0 q 0 q 0 0 6 j q 0 0 0 6 e 0 q 0 4   m [ V / { e.F.F.F.",
"F.F.F.F.B.#.2 : < , O   6 q 6 6 t e 0 0 0 6 6 q 0 q 0 6 6 y 0 0 0 0 6 e 0 q 0 6 o = V 2 < ) g.F.F.F.",
"F.F.F.F.a.{ 3 > V :   & r r y q l j q r r e q r r r q q e j y y q q q j t q q 0 o o < / 2 ] Z.D.F.F.",
"S.z.i.j.;./ 3 ) o.b $ a y d d j j j j j j k j k k k j j k k k k k k k k k k k j +   b N n +.C.F.F.F.",
"q.>.>.s.%.H < { o.N = : 8 8 u 6 6 6 0 6 0 6 6 6 0 0 6 6 0 6 0 0 6 0 6 0 0 6 6 0 4   % B { o.r.s.f.C.",
"..&.j.n.>.N , { ..B % : O @ % = 8 0 0 0 0 0 0 0 0 0 0 0 0 0 0 6 0 0 0 6 0 0 0 0 4   % ) ..' &.>.*.4.",
"o.{ 2.8.] , - ' { V - : 4 4 # 7 0 q q y q j j j r j j y q j r j q q e j q q 0 0 4   c B ) / 4.0.;.' ",
"s.$...<.B O $ : V 1 = ; 9 8 f S S S S D S S S D D D D D S D D z S S C R A j 6 5 + o B _ b < &.<.' ..",
"D.B.w.+.[ = O : V 2 o 9 0 w Y @.W z C C S z A C z S S C A C z S C C T =.^ z u . o   n ' > B +...%.g.",
"F.F.a.X.o.b $ b ] J O 0 0 r Y +.E C C C C z z A z z z C z S z C S z Y | T C r 6 X o K ..J ] +.s.V.F.",
"F.S.=.] ..) L - _ J o 6 t t C Y A C C z U z A z C C z A C C z A C C C C z S x I v K ..' ) ) ..N.F.F.",
"D.S.2.{ / / ..B < n o w q r z z C C C C z z z A C C A z S C C C C C C C S Y *.*.&.....] ' ' ..b.F.F.",
"F.F.a.;.=./ ) ..-     6 q q j l l f l f d d d d f f d d d d l f d d f d f M } o./ ` ) ..=.+.3.S.F.F.",
"F.F.B.,.*.] ` ] ) - % w e 0 d f d d f f f l d f f l l l x l l l l f f f f Z ` ] ) ) ..X.=.-.3.S.F.F.",
"F.F.F.j.+...' X.&.*.) 0 q 0 d l f f l f f l f f l f f l f l l l l f l f d I ) ) ) ) ' ..+.] +.b.F.F.",
"F.F.F.F.8.) ' J ' ..&.Q E x t d f f f f f f f f f f f f f f h d d d d d d g K L _ B B J n J o.c.F.F.",
"F.F.F.F.i._ / / / ) ] +.%.} x T Z l l f f f f f f l l f l l l l l z x T Z z g v ; o ; H > ' { n.F.F.",
"F.F.F.F.s.[ J ) ` ) ..] ] X.E *. .C C C C C C C S C C A C C C S C S T :.~ z r 0 + o n ) < < ) N.F.F.",
"F.F.F.F.m._ , V B ) <.' P g Z ^ T C C C C C C C C C C C C C C A C C Y ~ T C y 0 +   ; , - < { C.F.F.",
"F.F.F.F.C.o.> > N B ..+.P d x C Y C C C C A S S S A C C C S C C C C C A Y C z k 7   > ) B H o.B.F.F.",
"D.F.F.F.v.$._ N { ) N ) ) i u l z z k z z z z z z z z C z z z z z z z z z z r w 7   m O.' < _ B.F.F.",
"F.F.F.F.g.o.[ [ o.' < n H > % - u 0 0 0 0 0 0 0 0 0 0 0 0 0 0 0 0 0 0 0 0 0 0 0 4   ) O.{ N L B.F.F.",
"F.F.F.F.d...( _ { ' < > & 8 # 7 9 0 0 0 q e e e 0 q q 0 0 0 q 0 e 0 q e q 0 q q + o ) +.o.J o.Z.F.F.",
"F.F.F.F.x._ b < ' ) : > 9 7 * 9 0 0 6 6 0 6 0 0 0 0 9 5 9 6 0 6 6 6 6 6 6 6 6 6 #   , ( ' B o.Z.F.F.",
"F.F.F.F.N.%.o.] J 1 - # 0 0 5 5 w 0 6 4 + # + 0 0 w 5 4 + 5 0 0 5 4 4 6 6 6 5 4 .   % 1 < B ] d.F.F.",
"F.F.F.F.d.{ { { [ ) , @ 0 0 0 0 y e 0 0 0 5 6 0 0 0 6 0 0 6 q q 0 0 6 0 0 0 0 0 #   c ] [ { { 6.F.F.",
"F.F.F.F.a.[ { { { [ b . 0 0 0 0 0 r q 0 0 0 0 0 0 0 0 0 6 6 q q 0 6 6 0 0 0 0 0 X o P o.O.O.[ 5.F.D.",
"F.F.F.F.z.O.{ { { _ N c g s p s d h d s i i 9 s s d s i i a s i t i 9 p s p s i u > _ ..[ ` / w.F.F.",
"F.F.F.F.Z.6.o.o.{ ) ] %.&.+.+.+.+.+.+.%.+.+.X.X.+.+.+.+.+.+.X.X.O.O.O.+.+.+.+.+.+.+...+.o.O.3.m.F.F.",
"F.F.F.F.F.Z.m.v.v.w.' ....$.;.>.:.:.:.#._ ) ( ) ) ) _ ' ] ] ....] ] ] ' { O.O.o.' _ ` :.y.v.N.F.F.F.",
"F.F.F.F.F.F.F.F.F.C.k.l.k.m.V.C.C.C.V.k.r.8.8.5.5.w.r.r.r.0.1.1.5.q.8.r.j.m.b.j.i.t.i.a.l.D.D.F.F.F.",
"F.F.F.F.F.F.F.F.F.F.F.F.F.F.F.S.S.V.m.m.C.D.F.D.F.F.D.S.D.V.n.n.N.S.F.F.F.F.D.C.C.S.F.Z.D.F.F.D.F.F."
};
