/* XPM */
static char *ping1630167345[] = {
/* columns rows colors chars-per-pixel */
"50 50 186 2 ",
"   c #0D0C0E",
".  c #0E0E10",
"X  c #100F11",
"o  c #131213",
"O  c #1B1413",
"+  c #191718",
"@  c #1C1B1D",
"#  c #221612",
"$  c #2C1A14",
"%  c #341C15",
"&  c #3B1E13",
"*  c #3C2218",
"=  c #242324",
"-  c #27292A",
";  c #2C2C2D",
":  c #302323",
">  c #312F30",
",  c #353435",
"<  c #383738",
"1  c #3B3B3C",
"2  c #431F13",
"3  c #54250E",
"4  c #442114",
"5  c #412218",
"6  c #532311",
"7  c #5B2511",
"8  c #522A1B",
"9  c #6B280D",
"0  c #762E0F",
"q  c #7E340E",
"w  c #652811",
"e  c #712E12",
"r  c #6D3619",
"t  c #743216",
"y  c #442C23",
"u  c #472F2A",
"i  c #42322C",
"p  c #4B342C",
"a  c #56382C",
"s  c #403E3D",
"d  c #583D39",
"f  c #693422",
"g  c #58453D",
"h  c #63493D",
"j  c #714733",
"k  c #434444",
"l  c #444948",
"z  c #4B4C4C",
"x  c #4F4F50",
"c  c #545453",
"v  c #5B5855",
"b  c #565C5B",
"n  c #5D5C5C",
"m  c #60544B",
"M  c #665851",
"N  c #59615F",
"B  c #67625B",
"V  c #6F645D",
"C  c #77645D",
"Z  c #5F5F60",
"A  c #5C6562",
"S  c #5F6865",
"D  c #646462",
"F  c #686665",
"G  c #616A67",
"H  c #646D69",
"J  c #6A6C6A",
"K  c #66716D",
"L  c #6A726E",
"P  c #76726D",
"I  c #6B7571",
"U  c #6E7A75",
"Y  c #737373",
"T  c #7C7672",
"R  c #717C77",
"E  c #7E7B74",
"W  c #737E79",
"Q  c #7C7C7C",
"!  c #9C4C15",
"~  c #85472A",
"^  c #945327",
"/  c #864E32",
"(  c #8E5235",
")  c #975839",
"_  c #945A5A",
"`  c #9A6343",
"'  c #85685C",
"]  c #996651",
"[  c #A36F52",
"{  c #A4745C",
"}  c #8A796C",
"|  c #937B67",
" . c #887A75",
".. c #A67E6D",
"X. c #75817B",
"o. c #78847F",
"O. c #9D857B",
"+. c #B1896B",
"@. c #A38071",
"#. c #B58E72",
"$. c #7C8681",
"%. c #7E8984",
"&. c #848584",
"*. c #818B86",
"=. c #8A8986",
"-. c #848D89",
";. c #8B8B8A",
":. c #9B8A83",
">. c #85908A",
",. c #8A958E",
"<. c #93928F",
"1. c #8E9591",
"2. c #8E9991",
"3. c #929593",
"4. c #939C95",
"5. c #9B9992",
"6. c #9A9B9A",
"7. c #BB9B8C",
"8. c #A19C97",
"9. c #96A197",
"0. c #9AA49C",
"q. c #9FAA9F",
"w. c #AAA69C",
"e. c #B6A99B",
"r. c #A2A3A1",
"t. c #A2ACA2",
"y. c #ACACAB",
"u. c #A7B1A5",
"i. c #A9B3A7",
"p. c #ACB5AA",
"a. c #AEB8AC",
"s. c #B5B4AC",
"d. c #B1BBAE",
"f. c #B4B4B3",
"g. c #B5BEB1",
"h. c #BEBDB4",
"j. c #B7BCB9",
"k. c #BBBCBA",
"l. c #C7B4A4",
"z. c #CCBCAC",
"x. c #C5BFB7",
"c. c #B7C0B3",
"v. c #BAC3B5",
"b. c #BEC5B9",
"n. c #C3C5BC",
"m. c #CAC7BD",
"M. c #C4CABD",
"N. c #D7C8BA",
"B. c #BFC3C1",
"V. c #C2C2C2",
"C. c #C9C9C1",
"Z. c #CACDC3",
"A. c #CBCCCB",
"S. c #D3CDC3",
"D. c #D9CCC4",
"F. c #CED1C5",
"G. c #D1D2C6",
"H. c #D4D5CA",
"J. c #DAD7CC",
"K. c #D7D8CC",
"L. c #DADBCE",
"P. c #D5D5D4",
"I. c #DDDDD1",
"U. c #D8D8D4",
"Y. c #DDDDDC",
"T. c #E4DACC",
"R. c #E0DFD2",
"E. c #E1DDDC",
"W. c #DFE0D3",
"Q. c #E4E2D5",
"!. c #E8E5D7",
"~. c #E6E4D9",
"^. c #E9E6D9",
"/. c #EEE9DD",
"(. c #F0EBDF",
"). c #E5E5E5",
"_. c #E7E8E6",
"`. c #E9E9E6",
"'. c #EDEDED",
"]. c #F0ECE0",
"[. c #F0EFEF",
"{. c #EFEFF0",
"}. c #EFF0F0",
"|. c #F2F2F2",
" X c #F7F8F8",
".X c #F8F8F8",
/* pixels */
" X'.'. X). X_. X'.'.|.'. X). X'.'.|.'. X_. X'.|.[.'. X_.A.;.c 1 c Q k.|.'.|.'.'.|.'. X). X'.'.|.'..X",
"'.|.{.'.|.'.|.'.[.|.{.|.'.|.'.|.'.'.|.'.|.'.[.'.{.|._.V.s.x.s.D ; , > F A.'.|.|.'.|.'.|.'.|.'.'.|.'.",
"|.|.'.|.'.|.'.[.{.{.[.'.|.'.|.|.'.|.'.[.'.|.'.[.[.'.f.S.^.~.R.J.v.M.o.= k V.[.'.|.'.|.'.|.'.|.[.'.|.",
"'.'.[.|.'.|.[.[.'.{.|.{.{.'.|.'.|.|.'.[.{.|.[.[.'.r.h.^.^.R.I.H.K.K.M.4.5.3.).|.|.'.|.'.|.'.{.[.'.|.",
"'.[.[.'.|.'.|.'.[.|.'.|.'.|.'.[.'.'.|.'.|.'.|.|.y.P !.^.J.n.Z.H.H.b.q.0.d.p.P.|.'.|.'.[.'.|.{.{.[.'.",
" X[.'.|.'.|.'.|.'.{.|.'.|.'.|.'.|.|.'.|.'.|.[.A.=.G.^.W.A.t.t.H.Z.4.%.q.d.p.j.}.|.'.|.'.|.'.[.|.'. X",
"_.[.|.'.|._. X'.|.[.'.|.'. X'.[.'.'. X'. X'.).&.m.N.T.F.3.l 3.F.w.%.>.0.d.w.s.}.'.|._. X'.|.[.{.|.'.",
" X{.'.|.'. X).|.'.{.|.'.|._. X'.|.|.'.|._. X<.<.T.` ` +.| } w.#.| t.r.2.u.0.0.'.|.'. X_.|.'.[.|.'. X",
"_.[.|.'.|._. X'.[.[.'.|.'.|.'.|.[.'.|.'..Xj.c G.Q.[ 3 & r ^ ^ ! ^ 5.b J 4.>.3.}.'.|.'.|.'.|.|.'.|.).",
"|.[.{.|.'. X'.[.'.[.|.'.|.'.|.'.[.|.'.|.U.z E ^.^.z./ & O # # $ 4 h V I $.*.;.}.|.'.|.'.|.'.{.|.'.|.",
"'.[.{.'.|.'.|.{.|.[.{.|.'.|.{.[.[.[.|.'. .- x.^.!.!.l./ 8 d : O o # 5 p M X.w.[.'.|.'.|.'.|.'.'.[.'.",
"|.{.{.[.'.{.{.[.'.{.[.{.[.{.[.[.|.[.|.y.@ b ^./.^.!.!.z.( ) _ i O o O $ y L 6.}.|.'.|.'.|.'.|.{.{.|.",
"[.{.'.|.'.|.[.|.{.{.[.[.|.'.[.[.{.|.A.< o 8.].(.(.^.Q.R.e.j r 8 * y p g J W 3.[.}.'.|.'.|.'.[.|.'.|.",
"'.|.|.'.|.'.|.'.}.|.'.|.'. X[.|.'.A.z . s J.].(.(.(.^.I.n.2.B m D H L U X.L 3.|.'.|.'. X'.|.{.'.|.'.",
"|.{.'.|.'. X_.|.'.'. X[._.y.;.F c , X + 5.]./.(.(./.(.^.L.g.$.K H H H H I b &.|.[.'.|.'.|.'.{.|.'. X",
"'.'.|.'.|._.|.'.|.|.A.3.k + o k , X o F Q.(.(.(.(.].(.(./.Q.p.I b b b A K k &.|.'. X). X'.|.'.'.|.).",
" X{.{.|.'.|.'. XE.;.< X X , 6.V., X v H.(./.(.(.(.].]././.^.R.w.G b b A G < Y |.|.'. X_.|.'.[.|.'. X",
"'.[.[.'.|.'.|.f.k o   - Y U.'.Q ; T J././.(.(.(.].].(.(./.^.~.H.4.A N N S ; H }.'.|.'.|.'.|.{.{.{._.",
"|.'.{.|.[.E.Q = X @ Z k.|.[.A.&.m.!.^.^.^././.(.].].(.(././.^.~.Z.-.G A G - x '.|.'.|.'.|.'.[.|.'. X",
"'.{.{.{.A.c X o k y._.|.'.'.n.E.^.^.^.^.^././.(.].(.(.(././.^.~.!.v.o.K K ; , W.{.}.'.|.{.|.{.[.{.'.",
"[.{.|.B.1 . ; ;.E.|.[.[.[.A.J.^.!.^.^.^.^.(.(././.].]././.^.^.^.Q.L.a.R K 1 + 6.'.|.'.'.{.{.[.[.[.{.",
"|.|.A.1 o F A.|.|.{.|.{._.Z.^.^.^.^.^.^././.^.(.]./.].]./.^.^.^.Q.W.F.9.U l o @ Y P. X'.{.{.{.{.{.|.",
"'.).M - 6.). X'.|.{.'.|.H.I.!.!.!.^.^./.(.^./././.].(././.^.~.~.W.W.H.c.%.A @ x @ s f. X'.|.[.[.{.'.",
" X6., j.'.|.'.|.'.{.|.).U.!.!.!.^.^././././.(./.]./.(./.^.^.~.Q.W.L.K.Z.t.X.< 1.A   , f. X'.[.{.'. X",
"A.c f.'. X'.|.'.|.[.'.).L.!.!.^.^.^.^././././././.].(./.^.^.!.Q.W.K.K.F.v.4.G 2.f.@ . 1 V. X{.'.|._.",
"r.f.{. X'.|.'.|.'.}.|.U.Q.Q.!.!.^.^././././././././.`.^.^.!.Q.R.W.K.G.F.b.c.%.0.{.Y . . x U.{.{.'. X",
"Y.{.{.'.|.'.|.'.|.[.).I.Q.Q.!.!.^.^./././././././././.^.^.Q.Q.I.L.H.F.Z.b.c.9.4.'.Y.1 . . Q '.'.{.'.",
"|.{.{.|.'.|.'.{.'.}.'.Q.Q.Q.Q.!.^.^.^.^.^.^./.^./.^.^.^.Q.Q.I.J.K.F.Z.b.v.c.q.0.'.{.y.@ . @ f.|.'.|.",
"{.[.[.[.[.{.[.[.|.}.`.Q.Q.Q.Q.!.^.!.^.!.~.^.^.~.^.~.~.~.R.I.J.H.G.F.b.b.c.a.t.6.).|.'.Y . . l Y.|.'.",
"{.[.|.[.{.{.[.[.'.|.).L.Q.Q.Q.Q.!.Q.Q.Q.!.!.!.!.~.Q.W.I.I.H.H.F.F.b.b.v.g.u.0.4.).{.{.P.s . X ;.|.'.",
"|.{.{.{.'.{.'.|.'.{.`.L.Q.L.Q.L.W.Q.Q.Q.Q.Q.Q.!.Q.I.I.I.K.F.F.M.b.b.c.a.p.t.1.1.'.'.|.{.f.= . > A. X",
"'.[.|.'.|.'.|.'.}.|.~.L.Q.R.R.L.L.L.L.L.W.I.I.L.L.U.K.H.F.F.M.M.c.c.a.p.t.4.$.1.'.{.'. X'.;.o X Q '.",
"|.{.'. X`. X`.|.{.{.`.L.R.I.L.L.K.K.K.K.K.L.L.K.K.H.F.F.b.M.b.v.c.c.q.q.4.%.U u.}.'.|.'.|.).Z   s ).",
"'.{.{.'. X_. XE.`.|.Y.H.L.J.H.K.H.H.F.F.F.F.G.G.F.M.M.b.v.c.v.c.c.q.q.2.%.W $.B.{.|.'.|.'.|.A.- + y.",
" X'.'.|.`..X[.7.7.{.'.H.K.H.H.F.F.M.B.Z.M.M.b.b.b.b.b.b.c.c.c.i.u.0.,.o.$.U %.).|.'.|.'.|.{.}.1.o &.",
"'.'.|.'.|._.D...q D._.U.H.F.M.M.b.b.b.v.b.v.v.v.c.c.c.c.c.i.u.q.9.,.o.X.W $.c.}.'.|.'.|.'.|.|.P.< Z ",
"|.'.'.|.'.'.{ ~ 0 @.m.W.K.F.b.c.c.d.c.a.a.a.p.p.c.i.c.u.q.q.q.2.o.o.X.X.X.,.W.}.|.'.|.'.}.{.{.|.Y c ",
"[.[.|.'.[.'.] 9 e t ) N.L.G.v.p.u.u.u.u.u.t.t.t.u.q.q.q.9.2.%.o.X.X.X.X.o.c.}.}.'.|.{.}.{.}.{.|.B.F ",
"'.[.|.'.|.'...w w w e ` l.M.u.9.>.,.,.,.2.2.1.2.2.2.2.>.%.X.X.X.X.X.X.o.9._.}.}.'.|.'.|.{.{.{.{.'.j.",
"|.|.'.|.'. Xx.f 7 w w q ` 0.,.%.$.W $.W W X.X.X.X.X.X.X.X.X.X.X.X.X.X.%.P. X'.}.|.'.|.'.|.'.{.|.'.|.",
"'.|.|.'.|.'.[.O.6 3 7 7 r  .$.W W W U R U U U R U U R W W W W W X.W %.A.|.'.|.|.'.|.'.|.'.|.'.{.|.'.",
"|.'.'.|.'.|.'.).' 6 6 6 a T $.R U I L I I I K K I I U U R U R R U %.A. X'.|.'.'.|.'.|.'.|.'.{.|.'.|.",
"'.'.[.'.|.'.|.'.E.} 8 C A.Y.A.A.k.t.1.&.W K S S H K H I I K H U 6.P.|.'.|.'.|.|.'.|.'.|.'.|.'.'.|.'.",
" X[.'.|.'.|.'. X'.'.C.U. X'. X{.|.{._.`.P.f.S Z A S S H H H ;.B.'.|.'.|.'.|.'.'.|.'.|.'.|.'.|.|.'.|.",
"'.|.|.'.|.'.|.'.|.|.'. X'.|.'.[.[.[.|.'.{.'.&.c b n A H &.B.).{.|.'.|.'.|.'.|.|.|.|.'.|.'.|.'.'.|.'.",
"'.'.'.|.'.|.'.|.'.{.[.'.[.'.|.[.{.{.[.{.{.).F u k D 1.B.`.|.{.{.}.|.'.}.'.|.'.{.{.'.|.'.|.'.|.|.'.|.",
"|.'.'.|.'.|.'.|.'.[.{.{.[.{.[.{.{.{.{.|.). .y 2 p x.{.|.|.{.{.{.'.|.}.|.'.|.}.'.|.'.|.'.'.|.'.|.|.{.",
"'.[.|.'.|.'.|.'.{.|.{.|.'.|.'.|.[.[.|.|.C.: 2 2 & M w.Y.).|.{.{.|.'.|.'.|.'.|.|.'.|.'.|.'.|.'.'.|.'.",
"|.'.'.|.'. X'.|.'.'.|.'.|.'.|.'.[.[.'.|.A.p & % % % 5 a } S.|.{.'.|.'.|.'.|.'.'.|.'.|.'.|.'.|.|.'.|.",
"'.|.'.'. X). X_.|.[.'. X)..X'.|.{.'. X_.|.8.g d  .V m a :.E.'.{.|.'.|.). X'.|.|.'.|.'.|.'.|.'.'.|.)."
};
