/* XPM */
static char *_630099465625[] = {
/* columns rows colors chars-per-pixel */
"50 50 179 2 ",
"   c #3F0002",
".  c #440201",
"X  c #4C0301",
"o  c #4C0A02",
"O  c #45030B",
"+  c #4B020B",
"@  c #4D0B0A",
"#  c #530501",
"$  c #5B0500",
"%  c #540A01",
"&  c #5B0C02",
"*  c #55060A",
"=  c #58040C",
"-  c #530C0B",
";  c #5B0E09",
":  c #551205",
">  c #5C1203",
",  c #5E1A02",
"<  c #55120A",
"1  c #5B130A",
"2  c #5D1B0F",
"3  c #460211",
"4  c #4A0710",
"5  c #440812",
"6  c #550D11",
"7  c #5E0E10",
"8  c #4F1211",
"9  c #551413",
"0  c #5B1514",
"q  c #5F1A13",
"w  c #630D01",
"e  c #6A0E00",
"r  c #660C09",
"t  c #680D0C",
"y  c #631402",
"u  c #6B1502",
"i  c #641904",
"p  c #6B1A03",
"a  c #62150A",
"s  c #6C160B",
"d  c #651A0C",
"f  c #6B1B0C",
"g  c #721603",
"h  c #731B03",
"j  c #791D04",
"k  c #721609",
"l  c #731C0C",
"z  c #7A1F0C",
"x  c #640910",
"c  c #621311",
"v  c #6A1516",
"b  c #631B13",
"n  c #6C1C12",
"m  c #651D1A",
"M  c #6C191A",
"N  c #771A16",
"B  c #7A1A12",
"V  c #751A1B",
"C  c #6B2001",
"Z  c #6E220C",
"A  c #752305",
"S  c #7B2406",
"D  c #782803",
"F  c #75230C",
"G  c #7B240B",
"H  c #762A0D",
"J  c #7D2A0D",
"K  c #7E300C",
"L  c #662111",
"P  c #6D2315",
"I  c #662219",
"U  c #6D231B",
"Y  c #6E2B1E",
"T  c #742313",
"R  c #7D2512",
"E  c #762B14",
"W  c #7C2B14",
"Q  c #73251B",
"!  c #7D271B",
"~  c #752B1C",
"^  c #7B2C1B",
"/  c #773010",
"(  c #7C3116",
")  c #7F311D",
"_  c #7F391F",
"`  c #661E21",
"'  c #6E2B26",
"]  c #682C2E",
"[  c #752A25",
"{  c #7B2D23",
"}  c #7A282C",
"|  c #743224",
" . c #7C3323",
".. c #773129",
"X. c #7E362A",
"o. c #7D3D2D",
"O. c #763A30",
"+. c #7E3C32",
"@. c #822303",
"#. c #852B05",
"$. c #8C2C05",
"%. c #84260D",
"&. c #8C2709",
"*. c #852B0C",
"=. c #8B2D0C",
"-. c #922C06",
";. c #922E0D",
":. c #873102",
">. c #8D3006",
",. c #85320D",
"<. c #8C320C",
"1. c #8E3B0F",
"2. c #913207",
"3. c #92320C",
"4. c #923A0E",
"5. c #822513",
"6. c #842D13",
"7. c #8B2D13",
"8. c #842D1A",
"9. c #8A2E1A",
"0. c #912E14",
"q. c #912E19",
"w. c #853215",
"e. c #8C3214",
"r. c #873A13",
"t. c #8D3B14",
"y. c #85331C",
"u. c #8B341B",
"i. c #863A1C",
"p. c #8D391B",
"a. c #923414",
"s. c #9A3514",
"d. c #933B15",
"f. c #92341B",
"g. c #9A371B",
"h. c #933B1C",
"j. c #983D1B",
"k. c #842E22",
"l. c #8A2D20",
"z. c #852A29",
"x. c #882F2B",
"c. c #843423",
"v. c #8B3422",
"b. c #853924",
"n. c #8C3A24",
"m. c #84352B",
"M. c #8C372A",
"N. c #853A2B",
"B. c #8B3C2B",
"V. c #923621",
"C. c #923B23",
"Z. c #9A3E22",
"A. c #943428",
"S. c #933D2B",
"D. c #9A3D28",
"F. c #823332",
"G. c #853A33",
"H. c #8C3D33",
"J. c #8E3F38",
"K. c #823C3A",
"L. c #953833",
"P. c #983F31",
"I. c #8F411B",
"U. c #954414",
"Y. c #96431D",
"T. c #9A441D",
"R. c #8C4124",
"E. c #8D402A",
"W. c #924123",
"Q. c #9A4124",
"!. c #93422A",
"~. c #9B462A",
"^. c #99482A",
"/. c #8D4533",
"(. c #914333",
"). c #984034",
"_. c #934038",
"`. c #A14629",
"'. c #933D40",
/* pixels */
"T.d.j.T.j.j.j.T.Q.Z.p.y u 6.^.t.W.Y.T.U.T.<.p 6.Q.h.U.D X v S.W.C.`.d.4.T.,.y & # 7 . } n.t.U.U.U.U.",
"<.$.=.a.=.<.e.7.7.7.7.h h p.u.w.e.<.<.,.d.e.@.u.u.u.1.J $ M y.u.9.a.2.:.t.t.D y n t = '.u.w.r.#.,.#.",
";.=.0.;.0.0.0.0.7.f.a.G j D.9.9.7.*.,.$.=.0.7.f.7.7.$.=.x V R 6.0.7.2.>.=.e.*.y l.z.x z.V.<.#.1.a.7.",
";.a.a.=.7.f.0.7.e.9.9.g g C.5.u.C.u.a.e.7.7.q.7.9.e.a.e.t V u.u.f.&.>.4.e.e.u.u.8.M.r s 9.<.*.e.6.9.",
"*.r.w.6.u.w.w.w.w.8.( & F n.i.n.w.G D ,.w.w.p.6.W J Y.J $ r n.J w.<.:.,.r.w.r.W.) E i y.p.I.p.i.y.y.",
"w.r.w.6.i.y.E ^ y y i # , i Z i Z y > F ) y.n.( i p i.C # % ( p D ,.K K y.b.E / C > % Z ( H Z T N.F ",
"i p > i f & . # : % X # X X & # % # X w & # y f % & i % # # , % % w p i 1 ; d , o : . o Z , # # & % ",
"n.B.c.b.H.Q & a _.m.M H.{ ~ H.H.M.H.B.B.n # f n.M._.n.y._.H.c.B.^.y.n.c.* # ^ B.i.R.(.n.i.E.F.* * [ ",
"u.9.u.6.n.8.u S.l.c.S.l.v.V.V.8.v.q.u.u.l.u Q.6.v.A.h.u.V.9.h.7.u.h.f.f.N V P.8.,.j.p.*.u.u.L.N k u.",
"a.=.3.0.f.S w u.v.5.9.9.u.7.7.g.7.*.*.7.9.g j.>.7.9.e.<.a.=.0.7.;.<.=.7.B B D.*.e.,.7.e.a.7.A.B j e.",
"$.#.=.e.a.h & h.6.w.p.*.e.<.#.*.a.7.a.a.5.e 1.:.9.u.%.#.,.>.$.<.<.,.$.h.5.R V.%.1.@.<.e.<.=.v.g j e.",
"t.e.e.t.w.p & n.y.) y.6.h.w.7.a.e.e.w.u.8.u 1.t.w.v.6.*.<.d.*.u.,.w.,.w.B f 8.u.,.w.u.w.e.w.v.l p 6.",
"y.y.W T P % X b F.N.m.f Q c.v.^ y i s n v & H ( G.F.{ ) w.w.u n b.^ W E c a } N.c.M.m.Q y.E d > i ^ ",
"y u y & & % X - b - 1 # $ y u & # # % $ * X > , r = 1 a p p # $ a & % & # # & > > $ ; % f & X $ # y ",
"w.p.w.u.R.n.B.E.E . y n.C.h J Q.p.W.p.n.M.m.r.r.y # T 6.<.d.h.v.n.r.t.Y.C.B.u.y.& X s ^ p.r.r.C.y.n.",
"3.d.t.d.h.i.w.y.y.u 6.h.w.*.d.j.e.j.r.w.v.i.,.,.8.s S.h.r.<.e.u.t.t.U.t.i.u.w.i.j w y.C.r.t.U.#.7.f.",
">.>.$.e.,.6.w.y.u.u u.u.7.e.a.=.=.7.=.e.e.6.w.u.R k v.z u.e.=.=.=.<.<.w.e.y.c.) F G S.6.7.>.$.;.;.0.",
"3.>.<.<.e.e.w.w.w.y w.p.e.0.0.a.a.a.7.7.=.u.u.8.u.$ k R 9.7.e.=.;.=.*.e.w.w.y.S.p # G e.e.;.a.s.=.7.",
"<.<.e.<.e.w.w.w.G $ W u.u.9.@.u.9.a.7.7.6.9.u.c.8.$ u R G u.Q.#.h.e.e.e.w.R F E R w 5.n.u.0.=.*.e.,.",
"e.e.w.e.w.e.w.y.y $ l y.n.v.c.S.u.8.8.u.5.h T v.N X $ ! B u G 6.A S G 6.v.n.W i y % f F ^ n.u.u.w.e.",
"i y y y y y i y & # X > ; ; : ; a & a d & . X b X X . # X X > f # # # > L L 1 % o % % % d 2 X d i y ",
"B.b.b.b.b.v.b.n.b.c.d b 2 : % < ; y y y & y > ; c G.} X b N.N. ./.N.b.N.b.y.c.B.N.N.m. .X.b   P M.v.",
"h.f.f.e.a.f.s.s.g.f.e.8.^ ^ f N.u.l.u.9.f.V.v.8.9.v.l.w l.C.u.C.Q.h.h.h.d.e.s.Q.e.u.u.C.!.^ y S.u.e.",
"a.0.e.3.;.$.;.;.a.@.f.u.8.v.w !.9.7.7.0.7.7.=.a.9.9.f.g f.f.%.7.7.<.=.$.;.;.-.$.;.$.=.7.6.W p n.e.>.",
"e.=.3.a.;.;.;.;.$.;.a.u.u.y $ ).9.7.h.%.<.7.e.7.q.f.9.g 6.u.7.7.=.e.<.=.;.2.-.;.$.=.a.w.6.y.u i.e.=.",
"6.u.u.6.%.a.a.&.e.%.5.w.v.T i B.8.8.9.G 6.6.e.u.5.v.8.w u 8.y.u.u.w.e.=.e.=.=.<.a.=.p.y.c.^ % i u.e.",
"v.c.m.n.c.c.v.n.B.m.^ U U 2 : I X.U > > ) c.m.E ~ ^ U # b X.N. .b.c.y.i.i.W R y.y.) b.~ Y 2   : m.y.",
"d y > y y y , & % d d > % % % < o # # o i i i & > # X . 2 1 : b > y , y y & % , i , : % % o o < & y ",
"e.p.u.G A u.u.y $ F y.y.n.u.u.y.L.^ $ # J w.p.w.!.v.n.v.^ % # G u.h.n.p.u.e.w.u.u.p & p w.N.B.b.A F ",
"e.f.a.*.6.C.u.h h n.p.u.h.h.p.7.w.v.G G h.<.t.d.e.e.C.C.C.G G ~.t.j.j.d.h.d.p.p.p.6.u 6.n.Q.Q.u.u.p.",
";.$.$.7.f.u.w.J A C.*.S e.=.$.e.u.u.h h j.<.<.,.d.%.9.6.u.h u W <.<.$.,.e.*.*.w.6.e.u Z.w.7.9.%.e.e.",
";.=.a.e.e.e.6.G h C.i.7.h.=.$.a.9.h.h S j.*.<.>.a.%.u.u.p.l p u.f.3.=.e.a.=.%.u.6.u.y C.*.e.e.<.7.<.",
"0.;.&.0.7.7.a.j h u.7.%.%.g.&.0.e.e.5.g 9.$.a.=.a.q.5.q.p.A r s G =.=.a.&.&.g.7.9.9.w p.e.*.3.>.3.<.",
"q.A.q.q.*.i.C.8.& k.M.^ G G %.Z.6.6.! s c.w.u.e.9.8.8.v.n.P % 0 E y.*.w.f.a.9.8.M.k.% ^ y.i.t.*.7.7.",
"} { {  .X.N.| : % ' K.+.[ 2 & b m.~ 2 . % 1 P P K.n ; [ | @ O ] O.o.| ) B.c.n Q m -   < Y ~ E F T ! ",
"d n a > o o : < < @ . o q 1 1 , > , & X < < o % 1 > % & 2 : . . < @ : o & & . X ; o - : 2 : > % * # ",
"u.u.J A p i H b.n.P # y 8.c.S.n.f.Q.~.W.n.8.& # i.h.Q.C.~.!.W Z 1 . r n u k k l k f m.k.!.M.D.P.` 6 ",
"f.e.@.e.Q.t.,.w.n.8.u V.C.u.e.e.a.a.4.<.u.u.G 6.Y.=.#.d.f.*.#.e.^ a ! S.9.9.f.9.q.9.A.u.V.9.9.l.+.9 ",
"*.s.<.w.d.,.e.w.6.6.u C.7.7.7.a.0.;.>.*.w.v.u F <.1.<.>.<.f.4.,.C.l F h.a.=.1.$.,.$.=.*.;.=.0.7...8 ",
"*.g.<.#.<.1.e.*.e.u.e C.8.u.9.0.0.;.>.<.w.n.f R p.<.<.<.=.;.-.>.u.f $ G f.=.<.>.$.4.$.3.;.=.g.u.q   ",
"0.*.a.=.>.*.<.u.h.g e z f.q.7.7.q.f.a.#.R ^ V f e.,.,.$.a.a.3.>.R f & ) C.J e.*.=.=.$.a.f.7.%.l.[ 9 ",
"u.8.C.e.p.u.6.R g w $ e B 9.v.l.l.8.5.u n a ; # y.w.e.9.7.6.S h $ . $  .c.) y.( w.a.e.7.%.g u T b % ",
"1 ; % . > d i , % % # . X # & ; a ; 1 . @   @ 6 > > , a a y & % : o : : o : , , y , y y > % # a > % ",
"} U P % P c.B.N.H.H.m.Q v b n s * % - < ` 0 ' +.G.N.v.B.B.H.B././.o.o.2 o | R. .^.I.i.p.R.E.E.n.!.C.",
"u.8.y.u p.p.f.w.u.f.u.9.9.6.6.6.5.T w ! c.c.y.C.C.f.0.=.=.e.u.u.n.y.v.T i (.n.p.Z.a.;.;.a.u.u.w.w.t.",
"9.6.9.u a.=.=.#.7.*.*.e.a.a.3.e.h.u.w v.v.f.%.$.;.0.;.-.2.$.=.7.9.S W R F S.5.7.=.&.;.0.&.7.u.u.e.>.",
"v.8.6.y p.r.,.r.a.e.u.e.e.<.<.w.w.w.r k.v.e.<.a.=.;.;.;.2.3.e.u.7.%.p h f B.8.V.a.0.s.s.$.*.e.6.e.=.",
"m.~ E w C.i.6.w.6.u.w.W R ^ u.u.c.T # n v.w.e.*.0.0.0.;.=.7.8.v.y.B.p % & M.k.v.8.5.7.a.9.u.n.6.f.9.",
"` 6 @ O n c.~ { ) c.8.8.U 1 n [ m 6 # m m.{ ! y.v.k.8.y.8.c.k.Q b 0 6 * - q U M 0 x n n k.y.c.c.! ! ",
"+ O 5   % y $ 1 a a y s - . # 6 @ + . @ 0 ; # y y w y r & r > # o O 3 3 O @ < + + + = # a > y & % $ "
};
