/* XPM */
static char *_630154274952[] = {
/* columns rows colors chars-per-pixel */
"50 50 6 1 ",
"  c #F7F0E6",
". c #F8F1E7",
"X c #F8F2E6",
"o c #F9F3E7",
"O c #F9F2E8",
"+ c #FAF3E9",
/* pixels */
"OOOOOOOO....O...O......O...................OOOOOoo",
"OOOOO.OO........O......O......................OOoo",
"OOOO..OO......OOO......O........OO............OOOO",
"OOOO..OOO.....OOO......O........OOOOO...OOOOOOOOOO",
"OOOO..OOO.....OOO......O........OOOOO...OOOOOOOOOO",
"OOOO..OO......OOO......O........OO..............OO",
".OOO..OO........O......O..........................",
".OOO..OO....O...O......O................OOOOOOOO..",
"OOOOOOOO........O..............O........ooOOOOOOOO",
"OOOOOOOO......OOO..............O........ooOOOOOOOO",
"OOOOOOOOOO...OOOO..............O........ooOOOOOOOO",
"OOOOOOOO......OOO..............O........ooOOOOOOOO",
"OOOOOOOO........O....O.........O........ooOOOOOOOO",
"OOOOOOOO........O....O.........O........ooOOOOOO..",
"OOOOOOOO.......OO....OO.O......O........ooOOOOOOOO",
"OOOOOOOOO....OOOO....OO.OO.....OOOOOOOOOooOOOOOOOO",
"OOOOOOOOOO....OOOO...O.............OO...O..OO..OOO",
"OOOOOOOOOO...OOOOO...O..................O..OO..OO.",
"OOOOOOOO......OOO....O..................O..OO..O..",
"OOOOOOOO........O.......................O..OO..O..",
"OOOOOOOO...OOOOOO.......................O..OO..OOO",
"OOOOOOOOOOOOOOOOO...............O......OO..OO..O++",
"OOOOOOOOOOO..OOOO...............OO....OO...OO..OOO",
"OOOOOOOOO..  ..OO...............OO....OO...OO..O..",
"OOOOOOOOOO....OOOOO............O..OOO.........OO..",
"OOOOOOOO........OOO............O.............OOOOO",
"OOOOOOOO........OO.............OO.......OOOOOOOOOO",
"OOOOOOOOOO....OOOO.............OOO.....OOOO.OOOOOO",
"OOOOOOOOOO....OOO..............OOO.....O.......OOO",
"OOOOOOOO.......................OO...............OO",
"OOOOOOOO.......................O........OO.....O..",
"OOOOOOOOOO....OO...............O..OOO...OOOOOOOOOO",
"OOOOOOOOO.....OOO......O........OOOOOOOOO..OOOO+OO",
"OOOOOOOOO.....OOO......O........OOOOOOOO...OOOO+OO",
"OOOOOOOOO.....OOO......O....................O..OOO",
"OOOOOOOOO.....OOO...........................O..Ooo",
"OOOOOOOOO.....OOOO..........................O..Ooo",
"OOOOOOOOO.....OOOO......................O..OO..OOO",
"OOOOOOOOO.....OOOO.............O........O..OO..OOO",
"OOOOOOOOO.....OOOO.............O........O..OOOOOOO",
"OOOOOOOO........O...............OO..............oo",
"OOOOOOOO........O...............O...............oo",
"OOOOOOOO........O...........................OOOOOO",
"OOOOOOOO........O..............OOOO..OOO.OOOOOOOOO",
"OOOOOOOO........O..............OOOOOOOOO.OOOOOOOOO",
"OOOOOOOO........O.............OOOOOOOOOO...OOOOOOO",
"OOOOOOOO........O.............OoO....OOO....OOOOOO",
"OOOOOOOO........O.............O..............OOO..",
"OOOOOOOO.OOo...oO....Ooooo........O....OOO.ooOOO..",
"OOOOOOOO.OO.o...O....Oooo.........O....OOO.ooOOOOO"
};
