/* XPM */
static char *_630156685276[] = {
/* columns rows colors chars-per-pixel */
"50 50 129 2 ",
"   c #131313",
".  c gray8",
"X  c #151515",
"o  c #161616",
"O  c gray9",
"+  c #181715",
"@  c #171719",
"#  c #191718",
"$  c #181818",
"%  c #191919",
"&  c #18181A",
"*  c #1B191A",
"=  c #191B1A",
"-  c gray10",
";  c #1B1B1B",
":  c #1C1A1B",
">  c #1B1D1A",
",  c #1A1C1B",
"<  c #1C1C1A",
"1  c #1D1D1B",
"2  c #1B1B1D",
"3  c #1D1B1C",
"4  c #1B1D1C",
"5  c gray11",
"6  c #1D1D1D",
"7  c #1E1C1D",
"8  c #1E1E1C",
"9  c #1F1F1D",
"0  c #1C1C1E",
"q  c #1D1D1F",
"w  c #1F1D1E",
"e  c #1D1F1E",
"r  c #1E1E1E",
"t  c gray12",
"y  c #201E1F",
"u  c #1E201F",
"i  c #20201E",
"p  c #21211F",
"a  c #1E1E20",
"s  c #1E1F21",
"d  c #1F1F21",
"f  c #211F20",
"g  c #201E21",
"h  c #1D2120",
"j  c #1F2120",
"k  c #1E2221",
"l  c #1D2122",
"z  c #1E2223",
"x  c #202020",
"c  c gray13",
"v  c #222021",
"b  c #202221",
"n  c #222220",
"m  c #232321",
"M  c #202022",
"N  c #212123",
"B  c #232122",
"V  c #212322",
"C  c #222222",
"Z  c #232323",
"A  c #242223",
"S  c #222423",
"D  c #242422",
"F  c #252523",
"G  c #222224",
"H  c #232325",
"J  c #252324",
"K  c #232524",
"L  c gray14",
"P  c #252525",
"I  c #262425",
"U  c #242625",
"Y  c #262624",
"T  c #272725",
"R  c #242426",
"E  c #252527",
"W  c #272526",
"Q  c #252726",
"!  c gray15",
"~  c #272727",
"^  c #282627",
"/  c #262827",
"(  c #282826",
")  c #292927",
"_  c #262628",
"`  c #272729",
"'  c #292728",
"]  c #272928",
"[  c #282828",
"{  c gray16",
"}  c #2A2829",
"|  c #282A29",
" . c #2A2A28",
".. c #2B2B29",
"X. c #28282A",
"o. c #29292B",
"O. c #292B2A",
"+. c #2A2A2A",
"@. c gray17",
"#. c #2A2C2B",
"$. c #2C2C2A",
"%. c #2D2D2B",
"&. c #2B2B2D",
"*. c #2B2D2C",
"=. c #2C2C2C",
"-. c #2D2D2D",
";. c #2C2E2D",
":. c #2E2E2C",
">. c #2F2F2D",
",. c #2C2C2E",
"<. c #2D2D2F",
"1. c #2D2F2E",
"2. c gray18",
"3. c #2F2F2F",
"4. c #2E302F",
"5. c #30302E",
"6. c #31312F",
"7. c #2E2E30",
"8. c gray19",
"9. c #313131",
"0. c #323230",
"q. c #323232",
"w. c gray20",
"e. c #343434",
"r. c #353535",
"t. c gray21",
"y. c #373737",
"u. c gray22",
"i. c #393939",
/* pixels */
"    . . % . . % # # % % % % % , , 5 5 % 5 5 % % 5 5 5 1 1 % 5 2 5 5 % % % % % . % % . O . . . . . . ",
". . . . . % . % % % % % % % 4 4 % 5 5 5 5 5 5 5 d 5 5 1 1 1 5 5 5 5 5 3 3 4 % % 3 % O % % . % . . . ",
". . % % % % % % : % 5 5 5 5 5 5 5 5 5 c 5 c 5 c d 5 d i 5 c 5 d 5 5 5 5 4 5 5 % 3 % % % O O % . . . ",
". % % . . % % 5 : % 5 5 5 5 c 5 c 5 c 5 c c c c d c c 5 i 5 d d c 5 c 5 5 5 5 5 4 4 % % % % O # . % ",
". . % % % % 5 5 3 3 5 5 5 5 5 u c 5 c c c c c c G c c c i c c c c 5 c 5 c 5 5 5 5 5 3 % % % % % % . ",
"% % % % 5 % 5 5 y 5 5 5 c c c j c c c c c c c c G m m m m c c G c c c j j c c 5 5 5 5 5 5 % % % O % ",
"% % % 5 5 5 5 5 5 5 c 5 c c c S L c L c L L L L L L L m m L L G c J c c c c c 5 c 5 5 5 5 5 5 % % O ",
". % % % 5 5 5 5 y c 5 c c c S L c L L L L L [ L _ L L L L L L L c K J c c c c c c f j 5 5 5 5 4 % % ",
"% % 5 5 5 5 c c 5 c c c c L c L m m L L [ _ [ _ _ _ [ [ L L ( L L ' L L L L J c c 5 f j 5 5 5 5 4 % ",
"5 5 5 5 5 5 5 c c c c L L L L L ( [ L [ L [ L [ [ o.[ [ [ [ ( ( L [ L L L L c c c f j 5 c 5 5 5 3 % ",
"5 5 5 5 5 c c c c c L L L [ L L [ L -.L -._ [ [ [ [ [ [ -.[ [ [ [ [ [ L L L L L c K c c j 5 5 5 5 5 ",
"5 5 5 c c c c c c L L L L L [ [ [ -.[ -.L -.( $.o.o.-.[ [ [ $.[ [ [ [ [ ] L L L c J c c f c f 5 4 5 ",
"5 5 5 c c c c L L L L [ [ L [ [ o._ 7._ 8.( -.$.[ -.[ -.-.[ -.[ [ =.[ [ [ [ L ' L L L K c c d c 3 4 ",
"5 c c c 5 c c L L L L [ [ [ [ [ o.-.[ 8.[ 8.$.-.-.-.-.-.-.-.-.-.[ [ =.[ [ [ [ [ L L K J c c j 5 5 5 ",
"5 5 c 5 c c L L L L [ [ [ [ [ [ -.$.-.-.7.-.8.-.6.6.-.-.-.-.7.-.-.=.-.[ [ [ [ [ L [ L L c c j f c c ",
"c c c c L c L L [ [ [ [ [ [ -.-.$.-.-.-.-.7.-.-.6.-.8.7.7.-.-.7.-.-.*.-.-.[ [ [ [ L L L J c c c c 5 ",
"c 5 c L L L L L L [ [ [ -.[ -.-.-.6.-.8.8.8.8.8.8.8.8.8.8.8.8.-.3.-.-.=.=.[ -.[ ( ( [ L L L _ G d f ",
"5 c c c L L L [ [ [ [ -.[ -.[ 8.-.-.8.8.r.8.8.8.r.8.8.8.r.8.8.8.-.8.-.8.[ -.[ [ [ ( [ ( L L L G d j ",
"c c c L L L L [ [ [ -.[ 8.[ 8.-.8.8.8.8.8.8.r.8.r.r.8.r.8.r.8.8.8.3.8.-.8.[ -.=.[ [ [ L L L m L z s ",
"c c c L L L [ [ [ -.L 8.[ 8.[ 8.8.8.8.8.r.8.r.8.w.8.r.8.r.8.r.8.8.8.-.8.=.8.[ -.-.[ [ [ L L L L z j ",
"d c m L L [ [ [ [ [ -.[ 8.-.8.8.8.8.r.r.8.r.r.r.r.r.8.r.8.r.8.8.8.8.r.-.w.[ -.=.[ =.[ [ [ L L m c c ",
"c c L L L L [ [ [ -.[ 8.[ 8.-.8.8.r.8.8.r.r.r.r.r.r.r.r.r.r.r.8.8.r.-.8.-.3.=.-.-.[ [ [ [ L L L c f ",
"c L L L L [ [ [ -.[ 8.-.8.-.8.8.r.r.r.r.r.r.r.u.r.r.r.r.r.r.r.r.8.8.r.-.8.-.-.-.=.o.o.[ L L L m c G ",
"c c c L L [ [ [ [ -.[ -.-.-.8.8.8.8.8.r.w.r.r.r.u.r.r.r.r.r.r.8.w.8.8.8.-.-.-.-.o.-.o.[ [ L L m j j ",
"c c L L L [ [ [ [ -.-.-.-.8.8.r.8.r.8.r.r.u.r.u.u.u.u.r.r.r.r.r.w.8.8.8.3.8.-.-.=.-.[ [ ' ] L c c j ",
"c c L L L [ [ [ -.$.-.-.8.-.8.8.8.8.u.8.u.8.u.r.u.u.r.u.r.r.8.r.8.3.r.-.8.-.-.-.[ -.[ [ L L L J K K ",
"c L L L L [ [ [ [ -.[ 8.[ 8.8.8.8.r.8.u.8.u.r.r.u.r.u.8.u.8.r.r.8.r.3.8.=.8.=.-.-.[ [ [ ] L L L S j ",
"c c c L L L [ -.[ [ 8.-.8.-.8.8.8.8.r.r.r.r.u.r.r.u.r.u.8.u.8.r.w.8.r.-.8.-.-.-.=.=.[ [ [ L L c K G ",
"c c c L L [ [ [ [ -.[ 8.[ 8.-.8.8.8.r.8.r.r.r.r.r.r.u.8.u.8.r.8.8.r.-.w.-.8.-.-.[ [ [ [ ' L L K 5 5 ",
"c c L L [ L [ [ [ _ -.[ 8.-.8.8.8.r.8.u.8.r.8.r.r.r.r.u.8.u.8.r.8.3.w.-.8.[ -.[ =.[ [ [ ] [ L L L c ",
"c c L L L L L [ [ -.[ -.-.8.-.8.8.8.r.-.r.8.r.8.8.r.r.8.r.8.r.8.8.8.-.8.=.-.[ -.*.[ [ ' L L L L c c ",
"c c L L L L L [ [ [ -.[ -.[ -.8.8.8.8.8.8.r.8.r.r.8.8.r.8.r.8.8.8.8.8.-.-.=.=.-.[ [ [ L L L L c c c ",
"c c L c L L L [ [ [ [ -.-.o.-.-.8.8.8.8.8.8.8.8.w.6.6.w.8.8.8.8.4.-.-.-.=.@.[ } [ [ [ ] L K K S c c ",
"5 c L c c c [ [ [ [ [ [ [ -.-.-.-.-.8.8.8.8.8.8.8.6.6.-.8.-.r.8.-.-.*.-.@.=.[ @.[ [ L L L K c c 5 5 ",
"5 c c c L L L L L [ [ [ [ [ [ -.-.-.-.-.-.8.-.8.-.6.$.w.-.8.-.6.-.-.[ -.[ =.[ ' [ [ L L c K c c c c ",
"5 5 c c c L L L L [ L [ [ [ $.[ -.-.-.-.-.8.-.8.6.-.6.$.8.[ 6.-.-.[ -.[ =.[ [ ' L L L L L c c c 1 2 ",
"5 c c c c c L L [ L L [ [ [ -.[ -.-.[ -.o.-.-.-.$.-.[ 8.[ 8.[ $.*.[ -.[ [ [ ' L L L L m c c c c c c ",
"5 5 5 c c c c m L L L [ [ [ [ [ [ [ -.[ $.-.[ -.-.[ -.[ 6.( $.$.*.[ [ [ [ [ ^ L L L c A c c d c 5 5 ",
"5 5 c 5 c c c c L L L L L [ [ [ [ [ [ -.[ [ o.-.[ -.[ -.L $.( $.] ] L L L L L ^ L L c c c y 5 5 5 i ",
"5 5 5 5 5 c d c c c L L L [ L [ [ [ [ [ [ [ [ o.[ [ [ [ [ ( [ ( ] / [ L L [ L L L L f c y y y 5 % 1 ",
"% 5 % 5 5 c c c c c c c m L L L _ L _ _ [ [ [ [ [ [ [ [ [ [ [ L [ L L L L L L c c c d 5 i 5 5 c , , ",
"% % 5 5 5 5 5 5 c c c c c L L L L L L _ L _ L [ L L [ [ L L L L L [ L L c L c c c c c c 5 5 5 5 % % ",
"% 5 5 5 5 5 5 c 5 c c d c c c c L L L L L L _ L L L L [ L L L L L L L L c c c c f c 5 5 5 5 5 5 2 2 ",
"% % % % 5 5 5 5 c 5 5 c c c c c c c c L L L L L L L L L L L L c c L c c c c c c f 5 5 5 5 5 5 % % @ ",
". @ $ % % 5 % 5 5 c 5 5 5 c c d c c c c c m c c L L L L c c c c c c c c c 5 c c 5 5 5 1 % % % % % @ ",
"% % . $ % % % 5 5 5 5 5 c 5 c 5 5 c c c c c c c c c c c c d i c c c c 5 c 5 5 5 5 5 % % % % % % % % ",
". $ % $ % % % % % 5 5 5 5 5 5 5 5 i 5 i c c c c c c c c c c 5 c 5 c 5 5 5 5 5 5 5 5 % % $ @ . % . + ",
"$ . $ . % % % % % % % 5 5 5 i 5 1 5 i i 5 i 5 i 5 c 5 5 5 c 5 5 5 5 5 5 5 5 5 5 5 % % $ $ % % . + $ ",
"  . . $ . . % % $ . 1 . 5 % 5 5 5 % 5 5 5 c 5 c 5 c % c 5 5 5 5 c 5 5 % 5 % 5 % % % % % . % . . . . ",
". .   $ % . % . % % % % 5 % 5 % 5 % 5 5 5 5 5 5 5 5 % 5 5 5 5 5 5 % % % 5 % % % % . % . . . . % % . "
};
